<svg width="142" height="58" viewBox="0 0 142 58" fill="none" xmlns="http://www.w3.org/2000/svg">
<g clip-path="url(#clip0_62_922)">
<path fill-rule="evenodd" clip-rule="evenodd" d="M132.001 24.7895H128.575L128.291 26.0454H132.001C135.395 26.0454 136.54 26.9687 136.54 29.7045V31.0289C135.698 30.1676 134.21 29.7309 132.107 29.7309C128.752 29.7309 127.121 31.1848 127.121 34.1747V34.3923C127.121 37.1956 128.728 38.6174 131.894 38.6174H132.747C136.102 38.6174 137.804 37.1956 137.804 34.3923V29.7045C137.804 26.2134 136.122 24.7895 132.001 24.7895ZM136.54 34.5736C136.54 36.5798 135.467 37.3615 132.712 37.3615H132.179C129.52 37.3615 128.385 36.4731 128.385 34.3923V34.1747C128.385 31.9145 129.467 30.9508 132.001 30.9508H132.214C135.246 30.9508 136.54 31.882 136.54 34.0655V34.5736ZM44.0243 27.2534L44.6982 23.8986H38.8969V19.3157L34.8246 19.9444V33.6331C34.8246 38.3655 36.6406 39.7737 41.5921 39.7737H43.7599L44.4342 36.4485H41.885C39.6294 36.4485 38.8966 35.8801 38.8966 33.3634V27.2534H44.0243ZM16.0446 17.7277V32.4354C16.0446 37.887 18.5053 40.1633 23.8671 40.1633C29.4336 40.1633 31.8947 37.947 31.8947 32.465V31.0575C31.8947 25.9055 29.6091 23.3891 24.6288 23.3891C23.0465 23.3891 21.3178 23.7184 20.1458 24.6468V17.0687L16.0446 17.7277ZM24.0133 26.6836C26.8259 26.6836 27.8224 27.8221 27.8224 31.2066V32.465C27.8224 35.7595 26.8259 36.8984 23.9548 36.8984C21.0838 36.8984 20.0869 35.7595 20.0869 32.435V30.7278C20.0869 27.7023 21.0838 26.6836 24.0133 26.6836ZM53.8683 23.3891C48.5066 23.3891 46.0455 25.6954 46.0455 30.9672V31.776C46.0455 36.7781 48.1844 39.2043 53.2232 39.2043C54.8348 39.2043 56.4464 38.9053 57.5888 37.9762V38.576C57.5888 41.3917 56.3879 42.3194 53.575 42.3194H51.891C50.9284 42.3368 50.491 42.5117 49.9109 43.4839L49.9076 43.4825C45.0768 51.2989 36.6899 56.0741 27.5498 56.0741C12.9662 56.0741 1.10211 43.9449 1.10211 29.0349C1.10211 14.1252 12.9662 1.99599 27.5498 1.99599C37.7934 1.99599 47.1122 8.06096 51.4721 17.4993H52.6874C48.244 7.3927 38.3935 0.869263 27.5498 0.869263C12.359 0.869263 0 13.5044 0 29.0349C0 44.5657 12.359 57.2008 27.5498 57.2008C36.4837 57.2008 44.7282 52.8216 49.868 45.5543H53.8094C58.9953 45.5543 61.6615 43.5478 61.6615 38.4258V30.6978C61.6615 25.6054 59.1127 23.3891 53.8683 23.3891ZM57.6185 32.2852C57.6185 35.1009 56.6516 35.9693 53.8687 35.9693C50.7332 35.9693 50.1182 34.8611 50.1182 31.5966V31.0874C50.1182 27.8518 50.6747 26.6836 53.8683 26.6836C57.003 26.6836 57.6185 27.8221 57.6185 31.117V32.2852ZM140.414 38.6174H141.678V19.5936H140.414V38.6174H140.414ZM111.935 26.0457L112.218 24.7895H106.564V21.1981L105.265 21.4354V33.7383C105.265 37.242 106.549 38.5449 110.002 38.5449H111.869L112.105 37.2891H110.002C107.399 37.2891 106.564 36.4442 106.564 33.8104V26.0461H111.935L111.935 26.0457ZM123.639 33.1571C123.639 36.395 122.648 37.4339 119.562 37.4339C116.567 37.4339 115.556 36.355 115.556 33.1571V24.7895H114.256V33.1571C114.256 37.1388 115.744 38.6898 119.562 38.6898C123.356 38.6898 124.903 37.0875 124.903 33.1571V24.7895H123.639V33.1571ZM95.049 32.2488V31.0857C95.049 27.3644 96.2924 26.0457 99.8014 26.0457H102.766L103.049 24.7895H99.8017C95.6167 24.7895 93.7493 26.7311 93.7493 31.0853V32.2488C93.7493 36.603 95.6163 38.5449 99.8017 38.5449H102.801L103.085 37.2891H99.8017C96.3813 37.2891 95.0494 35.8758 95.0494 32.2488H95.049ZM85.6924 24.7895H82.2658L81.9829 26.0454H85.6924C89.0597 26.0454 90.1957 26.9687 90.1957 29.7045V31.0289C89.3548 30.1676 87.8666 29.7309 85.763 29.7309C82.4085 29.7309 80.7777 31.1848 80.7777 34.1747V34.3923C80.7777 37.1956 82.395 38.6174 85.5853 38.6174H86.4384C89.7708 38.6174 91.4601 37.1956 91.4601 34.3923V29.7045C91.4601 26.2134 89.789 24.7895 85.6924 24.7895ZM90.1957 34.5736C90.1957 36.6062 89.1678 37.3615 86.4031 37.3615H85.87C83.187 37.3615 82.0417 36.4731 82.0417 34.3923V34.1747C82.0417 31.9145 83.1228 30.9508 85.6567 30.9508H85.87C88.902 30.9508 90.1957 31.882 90.1957 34.0655V34.5736ZM72.9687 24.5715C68.9613 24.5715 67.0946 26.5955 67.0946 30.9401V42.7596H68.3587V36.6904C69.2735 37.9059 70.979 38.6174 73.0397 38.6174C77.0289 38.6174 78.8079 36.6529 78.8079 32.2488V30.904C78.8079 26.5245 77.0068 24.5715 72.9687 24.5715ZM77.5077 32.2484C77.5077 35.9757 76.2972 37.3611 73.0397 37.3611C69.9571 37.3611 68.3941 35.8245 68.3941 32.7932V30.9401C68.3941 27.308 69.7195 25.827 72.9687 25.827C76.2351 25.827 77.5077 27.2502 77.5077 30.904V32.2484Z" fill="white"/>
</g>
<defs>
<clipPath id="clip0_62_922">
<rect width="142" height="56.3719" fill="white" transform="translate(0 0.869263)"/>
</clipPath>
</defs>
</svg>
