<svg width="142" height="57" viewBox="0 0 142 57" fill="none" xmlns="http://www.w3.org/2000/svg">
<g clip-path="url(#clip0_62_1659)">
<path fill-rule="evenodd" clip-rule="evenodd" d="M132.001 23.9202H128.575L128.291 25.1761H132.001C135.395 25.1761 136.54 26.0995 136.54 28.8353V30.1597C135.698 29.2984 134.21 28.8617 132.107 28.8617C128.752 28.8617 127.121 30.3156 127.121 33.3054V33.5231C127.121 36.3263 128.728 37.7481 131.894 37.7481H132.747C136.102 37.7481 137.804 36.3263 137.804 33.5231V28.8353C137.804 25.3441 136.122 23.9202 132.001 23.9202ZM136.54 33.7043C136.54 35.7105 135.467 36.4922 132.712 36.4922H132.179C129.52 36.4922 128.385 35.6038 128.385 33.5231V33.3054C128.385 31.0452 129.467 30.0815 132.001 30.0815H132.214C135.246 30.0815 136.54 31.0127 136.54 33.1962V33.7043ZM44.0243 26.3842L44.6982 23.0293H38.8969V18.4464L34.8246 19.0751V32.7638C34.8246 37.4962 36.6406 38.9044 41.5921 38.9044H43.7599L44.4342 35.5792H41.885C39.6294 35.5792 38.8966 35.0108 38.8966 32.4941V26.3842H44.0243ZM16.0446 16.8584V31.5661C16.0446 37.0178 18.5053 39.294 23.8671 39.294C29.4336 39.294 31.8947 37.0777 31.8947 31.5957V30.1882C31.8947 25.0362 29.6091 22.5198 24.6288 22.5198C23.0465 22.5198 21.3178 22.8492 20.1458 23.7775V16.1994L16.0446 16.8584ZM24.0133 25.8144C26.8259 25.8144 27.8224 26.9529 27.8224 30.3373V31.5957C27.8224 34.8903 26.8259 36.0291 23.9548 36.0291C21.0838 36.0291 20.0869 34.8903 20.0869 31.5657V29.8585C20.0869 26.833 21.0838 25.8144 24.0133 25.8144ZM53.8683 22.5198C48.5066 22.5198 46.0455 24.8261 46.0455 30.0979V30.9068C46.0455 35.9089 48.1844 38.335 53.2232 38.335C54.8348 38.335 56.4464 38.036 57.5888 37.107V37.7067C57.5888 40.5224 56.3879 41.4501 53.575 41.4501H51.891C50.9284 41.4676 50.491 41.6424 49.9109 42.6146L49.9076 42.6132C45.0768 50.4296 36.6899 55.2048 27.5498 55.2048C12.9662 55.2048 1.10211 43.0756 1.10211 28.1656C1.10211 13.2559 12.9662 1.12672 27.5498 1.12672C37.7934 1.12672 47.1122 7.19169 51.4721 16.6301H52.6874C48.244 6.52344 38.3935 0 27.5498 0C12.359 0 0 12.6351 0 28.1656C0 43.6964 12.359 56.3315 27.5498 56.3315C36.4837 56.3315 44.7282 51.9524 49.868 44.685H53.8094C58.9953 44.685 61.6615 42.6785 61.6615 37.5565V29.8286C61.6615 24.7362 59.1127 22.5198 53.8683 22.5198ZM57.6185 31.4159C57.6185 34.2316 56.6516 35.1 53.8687 35.1C50.7332 35.1 50.1182 33.9919 50.1182 30.7273V30.2182C50.1182 26.9825 50.6747 25.8144 53.8683 25.8144C57.003 25.8144 57.6185 26.9529 57.6185 30.2478V31.4159ZM140.414 37.7481H141.678V18.7244H140.414V37.7481H140.414ZM111.935 25.1765L112.218 23.9202H106.564V20.3288L105.265 20.5661V32.8691C105.265 36.3727 106.549 37.6757 110.002 37.6757H111.869L112.105 36.4198H110.002C107.399 36.4198 106.564 35.5749 106.564 32.9411V25.1768H111.935L111.935 25.1765ZM123.639 32.2879C123.639 35.5257 122.648 36.5646 119.562 36.5646C116.567 36.5646 115.556 35.4857 115.556 32.2879V23.9202H114.256V32.2879C114.256 36.2696 115.744 37.8205 119.562 37.8205C123.356 37.8205 124.903 36.2182 124.903 32.2879V23.9202H123.639V32.2879ZM95.049 31.3795V30.2164C95.049 26.4951 96.2924 25.1765 99.8014 25.1765H102.766L103.049 23.9202H99.8017C95.6167 23.9202 93.7493 25.8618 93.7493 30.216V31.3795C93.7493 35.7337 95.6163 37.6757 99.8017 37.6757H102.801L103.085 36.4198H99.8017C96.3813 36.4198 95.0494 35.0066 95.0494 31.3795H95.049ZM85.6924 23.9202H82.2658L81.9829 25.1761H85.6924C89.0597 25.1761 90.1957 26.0995 90.1957 28.8353V30.1597C89.3548 29.2984 87.8666 28.8617 85.763 28.8617C82.4085 28.8617 80.7777 30.3156 80.7777 33.3054V33.5231C80.7777 36.3263 82.395 37.7481 85.5853 37.7481H86.4384C89.7708 37.7481 91.4601 36.3263 91.4601 33.5231V28.8353C91.4601 25.3441 89.789 23.9202 85.6924 23.9202ZM90.1957 33.7043C90.1957 35.7369 89.1678 36.4922 86.4031 36.4922H85.87C83.187 36.4922 82.0417 35.6038 82.0417 33.5231V33.3054C82.0417 31.0452 83.1228 30.0815 85.6567 30.0815H85.87C88.902 30.0815 90.1957 31.0127 90.1957 33.1962V33.7043ZM72.9687 23.7022C68.9613 23.7022 67.0946 25.7263 67.0946 30.0708V41.8904H68.3587V35.8211C69.2735 37.0367 70.979 37.7481 73.0397 37.7481C77.0289 37.7481 78.8079 35.7836 78.8079 31.3795V30.0348C78.8079 25.6553 77.0068 23.7022 72.9687 23.7022ZM77.5077 31.3791C77.5077 35.1065 76.2972 36.4919 73.0397 36.4919C69.9571 36.4919 68.3941 34.9552 68.3941 31.924V30.0708C68.3941 26.4388 69.7195 24.9578 72.9687 24.9578C76.2351 24.9578 77.5077 26.381 77.5077 30.0348V31.3791Z" fill="#05142D"/>
</g>
<defs>
<clipPath id="clip0_62_1659">
<rect width="142" height="56.3719" fill="white"/>
</clipPath>
</defs>
</svg>
