<svg width="418" height="159" viewBox="0 0 418 159" fill="none" xmlns="http://www.w3.org/2000/svg">
<g clip-path="url(#clip0_71_81)">
<path d="M0 5C0 2.23857 2.23858 0 5 0H413C415.761 0 418 2.23858 418 5V159H0V5Z" fill="#102240"/>
<rect opacity="0.37" x="81.5" y="26.5" width="255" height="203" rx="9.5" fill="#091427" stroke="url(#paint0_linear_71_81)"/>
<g filter="url(#filter0_b_71_81)">
<rect x="28" y="47" width="362.459" height="66" rx="10.8197" fill="#0A1629" fill-opacity="0.8"/>
<rect x="28.541" y="47.541" width="361.377" height="64.918" rx="10.2787" stroke="url(#paint1_linear_71_81)" stroke-width="1.08197"/>
</g>
<path d="M42.91 68.0169C42.91 67.8016 42.8681 67.6293 42.7842 67.5001C42.7026 67.371 42.5859 67.2769 42.4341 67.218C42.2845 67.159 42.1077 67.1296 41.9037 67.1296H41.3394V68.9552H41.9139C42.1111 68.9552 42.2845 68.9257 42.4341 68.8668C42.5836 68.8078 42.7004 68.7104 42.7842 68.5744C42.8681 68.4384 42.91 68.2526 42.91 68.0169ZM43.7395 68.0101C43.7395 68.375 43.6613 68.6707 43.5049 68.8974C43.3508 69.124 43.1355 69.2906 42.859 69.3971C42.5825 69.5036 42.2652 69.5569 41.9071 69.5569H41.3394V71.2295H40.5507V66.5381H41.8527C42.442 66.5381 42.9032 66.6593 43.2364 66.9018C43.5718 67.142 43.7395 67.5115 43.7395 68.0101ZM47.8028 68.8838C47.8028 69.3665 47.7359 69.7915 47.6022 70.1586C47.4685 70.5235 47.269 70.8091 47.0039 71.0153C46.7387 71.2193 46.4101 71.3213 46.018 71.3213C45.6282 71.3213 45.2995 71.2216 45.0321 71.0221C44.7669 70.8204 44.5675 70.5382 44.4338 70.1756C44.3001 69.8107 44.2332 69.3824 44.2332 68.8906C44.2332 68.4056 44.3001 67.9806 44.4338 67.6157C44.5675 67.2486 44.7669 66.9619 45.0321 66.7556C45.2995 66.5471 45.6282 66.4429 46.018 66.4429C46.4101 66.4429 46.7387 66.5437 47.0039 66.7454C47.269 66.9471 47.4685 67.2316 47.6022 67.5987C47.7359 67.9636 47.8028 68.392 47.8028 68.8838ZM46.9869 68.8838C46.9869 68.2764 46.9109 67.8208 46.7591 67.5171C46.6095 67.2112 46.3625 67.0582 46.018 67.0582C45.6735 67.0582 45.4253 67.2123 45.2735 67.5205C45.1239 67.8265 45.0491 68.2832 45.0491 68.8906C45.0491 69.4957 45.1262 69.9501 45.2803 70.2538C45.4344 70.5552 45.6803 70.706 46.018 70.706C46.367 70.706 46.6152 70.5541 46.7625 70.2504C46.9121 69.9444 46.9869 69.4889 46.9869 68.8838ZM51.7844 69.9037C51.7844 70.1802 51.713 70.4261 51.5703 70.6414C51.4297 70.8544 51.2258 71.021 50.9583 71.1411C50.6932 71.2612 50.3725 71.3213 49.9962 71.3213C49.6155 71.3213 49.2812 71.2646 48.9934 71.1513C48.7078 71.0357 48.4664 70.8827 48.2693 70.6924L48.701 70.2096C48.8687 70.3615 49.058 70.4816 49.2687 70.57C49.4795 70.6561 49.7209 70.6992 49.9929 70.6992C50.1696 70.6992 50.3317 70.672 50.479 70.6176C50.6263 70.5609 50.7442 70.477 50.8326 70.366C50.9209 70.2527 50.9651 70.111 50.9651 69.941C50.9651 69.8028 50.9368 69.6861 50.8801 69.5909C50.8235 69.4957 50.7249 69.4096 50.5844 69.3325C50.4461 69.2555 50.2524 69.1807 50.003 69.1081C49.6722 69.0084 49.3945 68.8974 49.1701 68.775C48.9458 68.6526 48.7758 68.5064 48.6602 68.3364C48.5469 68.1642 48.4902 67.9557 48.4902 67.7109C48.4902 67.4571 48.5594 67.235 48.6976 67.0446C48.8381 66.8542 49.0296 66.7069 49.2721 66.6026C49.5169 66.4961 49.7934 66.4429 50.1016 66.4429C50.4416 66.4429 50.7385 66.4916 50.9923 66.589C51.2462 66.6865 51.4728 66.8259 51.6722 67.0072L51.2575 67.4763C51.0921 67.3313 50.9141 67.2259 50.7238 67.1602C50.5357 67.0945 50.3441 67.0616 50.1492 67.0616C49.9906 67.0616 49.8467 67.0843 49.7175 67.1296C49.5883 67.1749 49.4863 67.2418 49.4115 67.3302C49.3367 67.4185 49.2993 67.5307 49.2993 67.6667C49.2993 67.7868 49.3322 67.89 49.3979 67.9761C49.4659 68.0622 49.5792 68.1427 49.7379 68.2175C49.8988 68.29 50.1186 68.3682 50.3974 68.452C50.6603 68.5291 50.896 68.6243 51.1045 68.7376C51.3153 68.8509 51.4807 68.9994 51.6009 69.1829C51.7232 69.3665 51.7844 69.6068 51.7844 69.9037ZM54.5558 67.1738V71.2295H53.7671V67.1738H52.3597V66.5381H55.9973L55.9157 67.1738H54.5558ZM66.7864 67.1738V71.2295H65.9977V67.1738H64.5903V66.5381H68.2278L68.1463 67.1738H66.7864ZM70.4825 67.5443C70.8338 67.5443 71.1296 67.6225 71.3698 67.7789C71.6101 67.9353 71.7914 68.154 71.9138 68.435C72.0384 68.7161 72.1007 69.047 72.1007 69.4277C72.1007 69.8062 72.0373 70.1382 71.9104 70.4238C71.7857 70.7071 71.6021 70.9281 71.3596 71.0867C71.1194 71.2431 70.8259 71.3213 70.4791 71.3213C70.1324 71.3213 69.8377 71.2454 69.5952 71.0935C69.355 70.9394 69.1714 70.7207 69.0445 70.4374C68.9198 70.1541 68.8575 69.8198 68.8575 69.4345C68.8575 69.0606 68.9198 68.7319 69.0445 68.4486C69.1714 68.1653 69.3561 67.9444 69.5986 67.7857C69.8411 67.6248 70.1358 67.5443 70.4825 67.5443ZM70.4825 68.1359C70.2083 68.1359 70.002 68.2412 69.8638 68.452C69.7255 68.6605 69.6564 68.988 69.6564 69.4345C69.6564 69.8787 69.7244 70.2062 69.8604 70.417C69.9986 70.6278 70.2049 70.7332 70.4791 70.7332C70.7534 70.7332 70.9585 70.6278 71.0945 70.417C71.2327 70.2062 71.3018 69.8765 71.3018 69.4277C71.3018 68.9858 71.2338 68.6605 71.0979 68.452C70.9619 68.2412 70.7568 68.1359 70.4825 68.1359ZM76.283 67.6395L74.8313 69.2441L76.436 71.2295H75.5045L73.9611 69.2645L75.3957 67.6395H76.283ZM73.9067 66.1131V71.2295H73.1451V66.1981L73.9067 66.1131ZM77.8305 69.6793C77.8464 69.924 77.8985 70.1246 77.9869 70.281C78.0753 70.4351 78.1909 70.5484 78.3337 70.621C78.4787 70.6935 78.6374 70.7298 78.8096 70.7298C78.9864 70.7298 79.1496 70.7026 79.2992 70.6482C79.4487 70.5938 79.5995 70.5167 79.7513 70.417L80.0811 70.8725C79.9134 71.0085 79.7173 71.1173 79.4929 71.1989C79.2686 71.2805 79.0283 71.3213 78.7722 71.3213C78.4005 71.3213 78.0855 71.242 77.8271 71.0833C77.571 70.9247 77.3761 70.7037 77.2424 70.4204C77.1087 70.1371 77.0418 69.8096 77.0418 69.4379C77.0418 69.0775 77.1076 68.7557 77.239 68.4724C77.3705 68.1869 77.5586 67.9613 77.8033 67.7959C78.0481 67.6282 78.3405 67.5443 78.6804 67.5443C79 67.5443 79.2742 67.6169 79.5031 67.7619C79.7343 67.907 79.9122 68.1132 80.0369 68.3806C80.1638 68.6458 80.2272 68.9654 80.2272 69.3393C80.2272 69.4005 80.225 69.4617 80.2204 69.5229C80.2182 69.5818 80.2148 69.6339 80.2103 69.6793H77.8305ZM78.6872 68.1087C78.4493 68.1087 78.2521 68.1937 78.0957 68.3636C77.9416 68.5336 77.8521 68.7988 77.8271 69.1591H79.4895C79.4827 68.8214 79.4102 68.5619 79.272 68.3806C79.136 68.1993 78.9411 68.1087 78.6872 68.1087ZM81.2751 71.2295V67.6395H81.9312L81.989 68.1053C82.1386 67.9217 82.3153 67.7823 82.5193 67.6871C82.7233 67.5919 82.9329 67.5443 83.1482 67.5443C83.4837 67.5443 83.7341 67.6384 83.8996 67.8265C84.0673 68.0123 84.1511 68.2741 84.1511 68.6118V71.2295H83.3896V68.9892C83.3896 68.7807 83.3771 68.6129 83.3522 68.486C83.3273 68.3591 83.2774 68.2673 83.2026 68.2107C83.1301 68.154 83.0213 68.1257 82.8763 68.1257C82.7607 68.1257 82.6508 68.1506 82.5465 68.2005C82.4423 68.2503 82.3471 68.316 82.2609 68.3976C82.1748 68.477 82.1 68.5619 82.0366 68.6526V71.2295H81.2751ZM46.4123 77.4429C46.7296 77.4429 46.9971 77.4848 47.2146 77.5686C47.4345 77.6502 47.6385 77.7681 47.8266 77.9222L47.4152 78.4117C47.2747 78.2939 47.124 78.2066 46.9631 78.15C46.8022 78.0933 46.631 78.065 46.4497 78.065C46.2163 78.065 46.001 78.1239 45.8038 78.2418C45.6066 78.3596 45.448 78.5511 45.3279 78.8163C45.21 79.0815 45.1511 79.435 45.1511 79.877C45.1511 80.3099 45.2077 80.6589 45.3211 80.924C45.4344 81.1892 45.5896 81.3819 45.7868 81.502C45.984 81.6221 46.205 81.6822 46.4497 81.6822C46.7013 81.6822 46.9098 81.6414 47.0753 81.5598C47.2407 81.4759 47.3869 81.3819 47.5138 81.2776L47.8946 81.7637C47.7382 81.9156 47.5399 82.047 47.2996 82.1581C47.0594 82.2669 46.767 82.3213 46.4225 82.3213C46.0259 82.3213 45.669 82.2284 45.3517 82.0425C45.0366 81.8544 44.7873 81.579 44.6037 81.2164C44.4224 80.8538 44.3318 80.4073 44.3318 79.877C44.3318 79.3512 44.4258 78.9081 44.6139 78.5477C44.8021 78.1851 45.0536 77.9109 45.3687 77.725C45.6837 77.5369 46.0316 77.4429 46.4123 77.4429ZM50.0982 78.5443C50.4495 78.5443 50.7453 78.6225 50.9855 78.7789C51.2258 78.9353 51.4071 79.154 51.5295 79.435C51.6541 79.7161 51.7164 80.047 51.7164 80.4277C51.7164 80.8062 51.653 81.1382 51.5261 81.4238C51.4014 81.7071 51.2178 81.9281 50.9753 82.0867C50.7351 82.2431 50.4416 82.3213 50.0948 82.3213C49.7481 82.3213 49.4534 82.2454 49.2109 82.0935C48.9707 81.9394 48.7871 81.7207 48.6602 81.4374C48.5356 81.1541 48.4732 80.8198 48.4732 80.4345C48.4732 80.0606 48.5356 79.7319 48.6602 79.4486C48.7871 79.1653 48.9718 78.9444 49.2143 78.7857C49.4568 78.6248 49.7515 78.5443 50.0982 78.5443ZM50.0982 79.1359C49.824 79.1359 49.6178 79.2412 49.4795 79.452C49.3413 79.6605 49.2721 79.988 49.2721 80.4345C49.2721 80.8787 49.3401 81.2062 49.4761 81.417C49.6144 81.6278 49.8206 81.7332 50.0948 81.7332C50.3691 81.7332 50.5742 81.6278 50.7102 81.417C50.8484 81.2062 50.9175 80.8765 50.9175 80.4277C50.9175 79.9858 50.8495 79.6605 50.7136 79.452C50.5776 79.2412 50.3725 79.1359 50.0982 79.1359ZM52.7371 82.2295V78.6395H53.3932L53.451 79.1053C53.6006 78.9217 53.7773 78.7823 53.9813 78.6871C54.1853 78.5919 54.3949 78.5443 54.6102 78.5443C54.9457 78.5443 55.1961 78.6384 55.3616 78.8265C55.5293 79.0123 55.6131 79.2741 55.6131 79.6118V82.2295H54.8516V79.9892C54.8516 79.7807 54.8391 79.6129 54.8142 79.486C54.7893 79.3591 54.7394 79.2673 54.6646 79.2107C54.5921 79.154 54.4833 79.1257 54.3383 79.1257C54.2227 79.1257 54.1128 79.1506 54.0085 79.2005C53.9043 79.2503 53.8091 79.316 53.7229 79.3976C53.6368 79.477 53.562 79.5619 53.4986 79.6526V82.2295H52.7371ZM59.8124 82.0391C59.6809 82.123 59.5234 82.191 59.3398 82.2431C59.1562 82.2952 58.9647 82.3213 58.7653 82.3213C58.3483 82.3213 58.031 82.2136 57.8134 81.9983C57.5981 81.7807 57.4904 81.4952 57.4904 81.1416V79.1937H56.6915V78.6395H57.4904V77.8372L58.252 77.7454V78.6395H59.4622L59.3772 79.1937H58.252V81.1348C58.252 81.3275 58.2995 81.4714 58.3947 81.5666C58.4922 81.6595 58.6508 81.706 58.8707 81.706C59.0021 81.706 59.1234 81.6901 59.2344 81.6584C59.3455 81.6266 59.4463 81.5858 59.537 81.536L59.8124 82.0391ZM61.5231 80.6793C61.539 80.924 61.5911 81.1246 61.6795 81.281C61.7679 81.4351 61.8835 81.5484 62.0262 81.621C62.1713 81.6935 62.3299 81.7298 62.5022 81.7298C62.679 81.7298 62.8421 81.7026 62.9917 81.6482C63.1413 81.5938 63.292 81.5167 63.4439 81.417L63.7736 81.8725C63.6059 82.0085 63.4099 82.1173 63.1855 82.1989C62.9611 82.2805 62.7209 82.3213 62.4648 82.3213C62.0931 82.3213 61.7781 82.242 61.5197 82.0833C61.2636 81.9247 61.0687 81.7037 60.935 81.4204C60.8013 81.1371 60.7344 80.8096 60.7344 80.4379C60.7344 80.0775 60.8001 79.7557 60.9316 79.4724C61.063 79.1869 61.2511 78.9613 61.4959 78.7959C61.7407 78.6282 62.033 78.5443 62.373 78.5443C62.6926 78.5443 62.9668 78.6169 63.1957 78.7619C63.4269 78.907 63.6048 79.1132 63.7294 79.3806C63.8564 79.6458 63.9198 79.9654 63.9198 80.3393C63.9198 80.4005 63.9176 80.4617 63.913 80.5229C63.9108 80.5818 63.9074 80.6339 63.9028 80.6793H61.5231ZM62.3798 79.1087C62.1418 79.1087 61.9447 79.1937 61.7883 79.3636C61.6342 79.5336 61.5446 79.7988 61.5197 80.1591H63.1821C63.1753 79.8214 63.1028 79.5619 62.9645 79.3806C62.8285 79.1993 62.6336 79.1087 62.3798 79.1087ZM64.9676 82.2295V78.6395H65.6238L65.6816 79.1053C65.8311 78.9217 66.0079 78.7823 66.2119 78.6871C66.4159 78.5919 66.6255 78.5443 66.8408 78.5443C67.1762 78.5443 67.4267 78.6384 67.5921 78.8265C67.7598 79.0123 67.8437 79.2741 67.8437 79.6118V82.2295H67.0822V79.9892C67.0822 79.7807 67.0697 79.6129 67.0448 79.486C67.0199 79.3591 66.97 79.2673 66.8952 79.2107C66.8227 79.154 66.7139 79.1257 66.5688 79.1257C66.4533 79.1257 66.3433 79.1506 66.2391 79.2005C66.1348 79.2503 66.0396 79.316 65.9535 79.3976C65.8674 79.477 65.7926 79.5619 65.7291 79.6526V82.2295H64.9676ZM72.0429 82.0391C71.9115 82.123 71.754 82.191 71.5704 82.2431C71.3868 82.2952 71.1953 82.3213 70.9959 82.3213C70.5788 82.3213 70.2615 82.2136 70.044 81.9983C69.8287 81.7807 69.721 81.4952 69.721 81.1416V79.1937H68.9221V78.6395H69.721V77.8372L70.4825 77.7454V78.6395H71.6928L71.6078 79.1937H70.4825V81.1348C70.4825 81.3275 70.5301 81.4714 70.6253 81.5666C70.7228 81.6595 70.8814 81.706 71.1012 81.706C71.2327 81.706 71.354 81.6901 71.465 81.6584C71.5761 81.6266 71.6769 81.5858 71.7676 81.536L72.0429 82.0391ZM79.017 78.1738V82.2295H78.2283V78.1738H76.8209V77.5381H80.4584L80.3768 78.1738H79.017ZM84.4163 78.6395L83.1788 82.2431C83.0859 82.5151 82.9669 82.7542 82.8219 82.9604C82.6768 83.1689 82.491 83.3366 82.2643 83.4635C82.0377 83.5905 81.7567 83.6687 81.4212 83.6981L81.3227 83.127C81.5652 83.0885 81.7578 83.0318 81.9006 82.957C82.0456 82.8845 82.1601 82.7882 82.2439 82.668C82.3301 82.5479 82.406 82.4017 82.4717 82.2295H82.2134L81.0031 78.6395H81.8122L82.7165 81.6992L83.6344 78.6395H84.4163ZM87.1027 78.5443C87.42 78.5443 87.6738 78.6225 87.8642 78.7789C88.0546 78.933 88.1929 79.1517 88.279 79.435C88.3651 79.7161 88.4082 80.047 88.4082 80.4277C88.4082 80.7926 88.356 81.1178 88.2518 81.4034C88.1475 81.689 87.9923 81.9133 87.786 82.0765C87.5821 82.2397 87.3282 82.3213 87.0245 82.3213C86.6483 82.3213 86.3446 82.1887 86.1134 81.9235V83.6097L85.3519 83.6947V78.6395H86.0148L86.0624 79.1019C86.1984 78.916 86.3559 78.7766 86.535 78.6837C86.7163 78.5908 86.9055 78.5443 87.1027 78.5443ZM86.8919 79.1325C86.722 79.1325 86.5724 79.1835 86.4432 79.2854C86.314 79.3874 86.2041 79.5076 86.1134 79.6458V81.3252C86.1996 81.4544 86.3015 81.5541 86.4194 81.6244C86.5395 81.6924 86.6744 81.7264 86.8239 81.7264C87.0801 81.7264 87.275 81.6232 87.4087 81.417C87.5424 81.2107 87.6093 80.8821 87.6093 80.4311C87.6093 80.1251 87.5821 79.877 87.5277 79.6866C87.4755 79.494 87.3962 79.3534 87.2897 79.265C87.1854 79.1767 87.0529 79.1325 86.8919 79.1325ZM90.0611 80.6793C90.077 80.924 90.1291 81.1246 90.2175 81.281C90.3059 81.4351 90.4215 81.5484 90.5642 81.621C90.7093 81.6935 90.8679 81.7298 91.0402 81.7298C91.217 81.7298 91.3801 81.7026 91.5297 81.6482C91.6793 81.5938 91.83 81.5167 91.9819 81.417L92.3116 81.8725C92.1439 82.0085 91.9479 82.1173 91.7235 82.1989C91.4991 82.2805 91.2589 82.3213 91.0028 82.3213C90.6311 82.3213 90.3161 82.242 90.0577 82.0833C89.8016 81.9247 89.6067 81.7037 89.473 81.4204C89.3393 81.1371 89.2724 80.8096 89.2724 80.4379C89.2724 80.0775 89.3381 79.7557 89.4696 79.4724C89.601 79.1869 89.7891 78.9613 90.0339 78.7959C90.2787 78.6282 90.571 78.5443 90.911 78.5443C91.2306 78.5443 91.5048 78.6169 91.7337 78.7619C91.9649 78.907 92.1428 79.1132 92.2674 79.3806C92.3944 79.6458 92.4578 79.9654 92.4578 80.3393C92.4578 80.4005 92.4556 80.4617 92.451 80.5229C92.4488 80.5818 92.4454 80.6339 92.4408 80.6793H90.0611ZM90.9178 79.1087C90.6798 79.1087 90.4827 79.1937 90.3263 79.3636C90.1722 79.5336 90.0826 79.7988 90.0577 80.1591H91.7201C91.7133 79.8214 91.6408 79.5619 91.5025 79.3806C91.3666 79.1993 91.1716 79.1087 90.9178 79.1087ZM94.3249 81.706C94.3249 81.5405 94.3839 81.3989 94.5017 81.281C94.6196 81.1609 94.7646 81.1008 94.9369 81.1008C95.1114 81.1008 95.2564 81.1609 95.372 81.281C95.4899 81.3989 95.5488 81.5405 95.5488 81.706C95.5488 81.8759 95.4899 82.021 95.372 82.1411C95.2564 82.2612 95.1114 82.3213 94.9369 82.3213C94.7646 82.3213 94.6196 82.2612 94.5017 82.1411C94.3839 82.021 94.3249 81.8759 94.3249 81.706ZM94.3249 79.2922C94.3249 79.1812 94.3521 79.0792 94.4065 78.9863C94.4609 78.8934 94.5346 78.8197 94.6275 78.7653C94.7204 78.7109 94.8235 78.6837 94.9369 78.6837C95.1114 78.6837 95.2564 78.7438 95.372 78.8639C95.4899 78.9817 95.5488 79.1245 95.5488 79.2922C95.5488 79.46 95.4899 79.605 95.372 79.7274C95.2564 79.8475 95.1114 79.9076 94.9369 79.9076C94.7646 79.9076 94.6196 79.8475 94.5017 79.7274C94.3839 79.605 94.3249 79.46 94.3249 79.2922ZM104.403 81.349C104.403 81.4895 104.424 81.5926 104.467 81.6584C104.51 81.7218 104.58 81.7694 104.675 81.8011L104.505 82.3179C104.328 82.2975 104.176 82.2488 104.049 82.1717C103.922 82.0946 103.826 81.9779 103.76 81.8215C103.629 81.987 103.462 82.1116 103.261 82.1955C103.059 82.2794 102.844 82.3213 102.615 82.3213C102.252 82.3213 101.964 82.2193 101.751 82.0153C101.54 81.8091 101.435 81.5394 101.435 81.2062C101.435 80.8277 101.582 80.5365 101.877 80.3325C102.172 80.1285 102.593 80.0266 103.142 80.0266H103.655V79.792C103.655 79.5608 103.585 79.3942 103.444 79.2922C103.306 79.1903 103.11 79.1393 102.856 79.1393C102.738 79.1393 102.595 79.1551 102.428 79.1869C102.26 79.2163 102.084 79.2628 101.901 79.3262L101.714 78.7891C101.938 78.7052 102.158 78.6441 102.373 78.6055C102.589 78.5647 102.788 78.5443 102.972 78.5443C103.452 78.5443 103.81 78.6509 104.046 78.8639C104.284 79.0769 104.403 79.3716 104.403 79.7478V81.349ZM102.846 81.7603C103 81.7603 103.151 81.7196 103.298 81.638C103.445 81.5564 103.564 81.4419 103.655 81.2946V80.5025H103.233C102.875 80.5025 102.619 80.5626 102.465 80.6827C102.311 80.8005 102.234 80.9637 102.234 81.1722C102.234 81.3626 102.285 81.5088 102.387 81.6108C102.491 81.7105 102.644 81.7603 102.846 81.7603ZM107.487 78.5443C107.804 78.5443 108.058 78.6225 108.249 78.7789C108.439 78.933 108.577 79.1517 108.663 79.435C108.749 79.7161 108.792 80.047 108.792 80.4277C108.792 80.7926 108.74 81.1178 108.636 81.4034C108.532 81.689 108.377 81.9133 108.17 82.0765C107.966 82.2397 107.713 82.3213 107.409 82.3213C107.033 82.3213 106.729 82.1887 106.498 81.9235V83.6097L105.736 83.6947V78.6395H106.399L106.447 79.1019C106.583 78.916 106.74 78.7766 106.919 78.6837C107.101 78.5908 107.29 78.5443 107.487 78.5443ZM107.276 79.1325C107.106 79.1325 106.957 79.1835 106.827 79.2854C106.698 79.3874 106.588 79.5076 106.498 79.6458V81.3252C106.584 81.4544 106.686 81.5541 106.804 81.6244C106.924 81.6924 107.059 81.7264 107.208 81.7264C107.464 81.7264 107.659 81.6232 107.793 81.417C107.927 81.2107 107.994 80.8821 107.994 80.4311C107.994 80.1251 107.966 79.877 107.912 79.6866C107.86 79.494 107.78 79.3534 107.674 79.265C107.57 79.1767 107.437 79.1325 107.276 79.1325ZM111.564 78.5443C111.881 78.5443 112.135 78.6225 112.325 78.7789C112.516 78.933 112.654 79.1517 112.74 79.435C112.826 79.7161 112.869 80.047 112.869 80.4277C112.869 80.7926 112.817 81.1178 112.713 81.4034C112.609 81.689 112.453 81.9133 112.247 82.0765C112.043 82.2397 111.789 82.3213 111.486 82.3213C111.109 82.3213 110.806 82.1887 110.575 81.9235V83.6097L109.813 83.6947V78.6395H110.476L110.524 79.1019C110.66 78.916 110.817 78.7766 110.996 78.6837C111.177 78.5908 111.367 78.5443 111.564 78.5443ZM111.353 79.1325C111.183 79.1325 111.034 79.1835 110.904 79.2854C110.775 79.3874 110.665 79.5076 110.575 79.6458V81.3252C110.661 81.4544 110.763 81.5541 110.881 81.6244C111.001 81.6924 111.136 81.7264 111.285 81.7264C111.541 81.7264 111.736 81.6232 111.87 81.417C112.004 81.2107 112.07 80.8821 112.07 80.4311C112.07 80.1251 112.043 79.877 111.989 79.6866C111.937 79.494 111.857 79.3534 111.751 79.265C111.647 79.1767 111.514 79.1325 111.353 79.1325ZM115.467 77.1981V81.2504C115.467 81.4159 115.517 81.5337 115.617 81.604C115.719 81.672 115.85 81.706 116.011 81.706C116.116 81.706 116.214 81.6946 116.307 81.672C116.4 81.6493 116.491 81.621 116.579 81.587L116.773 82.1173C116.666 82.1717 116.535 82.2193 116.378 82.2601C116.224 82.3009 116.048 82.3213 115.848 82.3213C115.488 82.3213 115.207 82.2204 115.005 82.0187C114.806 81.8147 114.706 81.536 114.706 81.1824V77.759H113.621V77.1981H115.467ZM119.928 78.6395V81.672H120.904V82.2295H118.093V81.672H119.167V79.1971H118.127V78.6395H119.928ZM119.398 76.8819C119.548 76.8819 119.668 76.9273 119.758 77.0179C119.851 77.1086 119.898 77.2219 119.898 77.3579C119.898 77.4939 119.851 77.6083 119.758 77.7012C119.668 77.7942 119.548 77.8406 119.398 77.8406C119.253 77.8406 119.134 77.7942 119.041 77.7012C118.948 77.6083 118.902 77.4939 118.902 77.3579C118.902 77.2219 118.948 77.1086 119.041 77.0179C119.134 76.9273 119.253 76.8819 119.398 76.8819ZM123.774 81.6958C123.942 81.6958 124.098 81.6674 124.243 81.6108C124.388 81.5518 124.526 81.4759 124.658 81.383L125.011 81.8725C124.855 82.0063 124.665 82.115 124.44 82.1989C124.218 82.2805 123.988 82.3213 123.75 82.3213C123.383 82.3213 123.069 82.2442 122.809 82.0901C122.548 81.9337 122.348 81.715 122.21 81.434C122.072 81.153 122.003 80.8255 122.003 80.4515C122.003 80.0866 122.072 79.7614 122.21 79.4758C122.351 79.188 122.552 78.9613 122.815 78.7959C123.078 78.6282 123.394 78.5443 123.764 78.5443C124.009 78.5443 124.234 78.5806 124.44 78.6531C124.647 78.7256 124.836 78.8333 125.008 78.9761L124.658 79.4554C124.517 79.358 124.373 79.2843 124.226 79.2344C124.081 79.1823 123.932 79.1563 123.777 79.1563C123.494 79.1563 123.262 79.2605 123.081 79.469C122.901 79.6775 122.812 80.005 122.812 80.4515C122.812 80.7507 122.853 80.992 122.934 81.1756C123.018 81.3569 123.133 81.4895 123.278 81.5734C123.423 81.655 123.588 81.6958 123.774 81.6958ZM128.864 81.349C128.864 81.4895 128.885 81.5926 128.929 81.6584C128.972 81.7218 129.041 81.7694 129.136 81.8011L128.966 82.3179C128.789 82.2975 128.637 82.2488 128.51 82.1717C128.383 82.0946 128.287 81.9779 128.221 81.8215C128.09 81.987 127.923 82.1116 127.722 82.1955C127.52 82.2794 127.305 82.3213 127.076 82.3213C126.713 82.3213 126.425 82.2193 126.212 82.0153C126.002 81.8091 125.896 81.5394 125.896 81.2062C125.896 80.8277 126.043 80.5365 126.338 80.3325C126.633 80.1285 127.054 80.0266 127.603 80.0266H128.116V79.792C128.116 79.5608 128.046 79.3942 127.905 79.2922C127.767 79.1903 127.571 79.1393 127.317 79.1393C127.199 79.1393 127.057 79.1551 126.889 79.1869C126.721 79.2163 126.545 79.2628 126.362 79.3262L126.175 78.7891C126.399 78.7052 126.619 78.6441 126.834 78.6055C127.05 78.5647 127.249 78.5443 127.433 78.5443C127.913 78.5443 128.271 78.6509 128.507 78.8639C128.745 79.0769 128.864 79.3716 128.864 79.7478V81.349ZM127.307 81.7603C127.461 81.7603 127.612 81.7196 127.759 81.638C127.906 81.5564 128.025 81.4419 128.116 81.2946V80.5025H127.695C127.336 80.5025 127.08 80.5626 126.926 80.6827C126.772 80.8005 126.695 80.9637 126.695 81.1722C126.695 81.3626 126.746 81.5088 126.848 81.6108C126.952 81.7105 127.105 81.7603 127.307 81.7603ZM133.196 82.0391C133.064 82.123 132.907 82.191 132.723 82.2431C132.54 82.2952 132.348 82.3213 132.149 82.3213C131.732 82.3213 131.414 82.2136 131.197 81.9983C130.982 81.7807 130.874 81.4952 130.874 81.1416V79.1937H130.075V78.6395H130.874V77.8372L131.635 77.7454V78.6395H132.846L132.761 79.1937H131.635V81.1348C131.635 81.3275 131.683 81.4714 131.778 81.5666C131.876 81.6595 132.034 81.706 132.254 81.706C132.386 81.706 132.507 81.6901 132.618 81.6584C132.729 81.6266 132.83 81.5858 132.92 81.536L133.196 82.0391ZM136.236 78.6395V81.672H137.211V82.2295H134.4V81.672H135.474V79.1971H134.434V78.6395H136.236ZM135.705 76.8819C135.855 76.8819 135.975 76.9273 136.066 77.0179C136.159 77.1086 136.205 77.2219 136.205 77.3579C136.205 77.4939 136.159 77.6083 136.066 77.7012C135.975 77.7942 135.855 77.8406 135.705 77.8406C135.56 77.8406 135.441 77.7942 135.348 77.7012C135.256 77.6083 135.209 77.4939 135.209 77.3579C135.209 77.2219 135.256 77.1086 135.348 77.0179C135.441 76.9273 135.56 76.8819 135.705 76.8819ZM139.789 78.5443C140.14 78.5443 140.436 78.6225 140.676 78.7789C140.917 78.9353 141.098 79.154 141.22 79.435C141.345 79.7161 141.407 80.047 141.407 80.4277C141.407 80.8062 141.344 81.1382 141.217 81.4238C141.092 81.7071 140.909 81.9281 140.666 82.0867C140.426 82.2431 140.132 82.3213 139.786 82.3213C139.439 82.3213 139.144 82.2454 138.902 82.0935C138.662 81.9394 138.478 81.7207 138.351 81.4374C138.226 81.1541 138.164 80.8198 138.164 80.4345C138.164 80.0606 138.226 79.7319 138.351 79.4486C138.478 79.1653 138.663 78.9444 138.905 78.7857C139.148 78.6248 139.442 78.5443 139.789 78.5443ZM139.789 79.1359C139.515 79.1359 139.309 79.2412 139.17 79.452C139.032 79.6605 138.963 79.988 138.963 80.4345C138.963 80.8787 139.031 81.2062 139.167 81.417C139.305 81.6278 139.511 81.7332 139.786 81.7332C140.06 81.7332 140.265 81.6278 140.401 81.417C140.539 81.2062 140.608 80.8765 140.608 80.4277C140.608 79.9858 140.54 79.6605 140.404 79.452C140.268 79.2412 140.063 79.1359 139.789 79.1359ZM142.428 82.2295V78.6395H143.084L143.142 79.1053C143.291 78.9217 143.468 78.7823 143.672 78.6871C143.876 78.5919 144.086 78.5443 144.301 78.5443C144.637 78.5443 144.887 78.6384 145.052 78.8265C145.22 79.0123 145.304 79.2741 145.304 79.6118V82.2295H144.542V79.9892C144.542 79.7807 144.53 79.6129 144.505 79.486C144.48 79.3591 144.43 79.2673 144.355 79.2107C144.283 79.154 144.174 79.1257 144.029 79.1257C143.914 79.1257 143.804 79.1506 143.699 79.2005C143.595 79.2503 143.5 79.316 143.414 79.3976C143.328 79.477 143.253 79.5619 143.189 79.6526V82.2295H142.428ZM151.112 82.2295H150.269L151.557 80.3359L150.412 78.6395H151.289L152.023 79.9042L152.757 78.6395H153.594L152.472 80.3053L153.764 82.2295H152.87L151.989 80.7643L151.112 82.2295ZM169.038 78.6395H169.752L169.163 82.2295H168.218L167.797 79.6798L167.287 82.2295H166.434L166.005 79.6798L165.577 82.2295H164.707L164.261 79.6798L163.795 82.2295H162.939L162.493 79.6798L162.034 82.2295H161.168L160.726 79.6798L160.284 82.2295H159.352L158.747 78.6395H159.478L159.855 81.7569L160.352 79.0951H161.117L161.599 81.7569L162.119 79.0951H162.891L163.364 81.7569L163.894 79.0951H164.645L165.152 81.7569L165.624 79.0951H166.396L166.869 81.7569L167.423 79.0951H168.188L168.66 81.7569L169.038 78.6395ZM177.225 77.1131C177.445 77.1131 177.641 77.1324 177.813 77.1709C177.988 77.2072 178.149 77.257 178.296 77.3205L178.072 77.8474C177.952 77.7976 177.826 77.7613 177.694 77.7386C177.565 77.716 177.434 77.7046 177.3 77.7046C177.064 77.7046 176.89 77.75 176.777 77.8406C176.663 77.929 176.607 78.0695 176.607 78.2622V78.8979H177.807L177.725 79.4588H176.607V82.2295H175.848V79.4588H175.033V78.8979H175.848V78.2554C175.848 78.0287 175.905 77.8304 176.018 77.6604C176.134 77.4882 176.295 77.3545 176.501 77.2593C176.707 77.1618 176.949 77.1131 177.225 77.1131ZM180.558 78.5443C180.909 78.5443 181.205 78.6225 181.445 78.7789C181.685 78.9353 181.867 79.154 181.989 79.435C182.114 79.7161 182.176 80.047 182.176 80.4277C182.176 80.8062 182.112 81.1382 181.985 81.4238C181.861 81.7071 181.677 81.9281 181.435 82.0867C181.195 82.2431 180.901 82.3213 180.554 82.3213C180.208 82.3213 179.913 82.2454 179.67 82.0935C179.43 81.9394 179.247 81.7207 179.12 81.4374C178.995 81.1541 178.933 80.8198 178.933 80.4345C178.933 80.0606 178.995 79.7319 179.12 79.4486C179.247 79.1653 179.431 78.9444 179.674 78.7857C179.916 78.6248 180.211 78.5443 180.558 78.5443ZM180.558 79.1359C180.283 79.1359 180.077 79.2412 179.939 79.452C179.801 79.6605 179.732 79.988 179.732 80.4345C179.732 80.8787 179.8 81.2062 179.936 81.417C180.074 81.6278 180.28 81.7332 180.554 81.7332C180.829 81.7332 181.034 81.6278 181.17 81.417C181.308 81.2062 181.377 80.8765 181.377 80.4277C181.377 79.9858 181.309 79.6605 181.173 79.452C181.037 79.2412 180.832 79.1359 180.558 79.1359ZM183.23 82.2295V81.6856H183.757V79.1801H183.23V78.6395H184.339L184.478 79.4724C184.612 79.171 184.777 78.9421 184.974 78.7857C185.174 78.6271 185.43 78.5477 185.743 78.5477C185.849 78.5477 185.945 78.5568 186.028 78.5749C186.114 78.5908 186.199 78.6123 186.283 78.6395L186.056 79.2922C185.983 79.2718 185.915 79.2571 185.852 79.248C185.788 79.2367 185.718 79.231 185.641 79.231C185.38 79.231 185.155 79.3285 184.964 79.5234C184.776 79.7183 184.628 79.9948 184.519 80.3529V81.6856H185.243V82.2295H183.23ZM185.61 79.962V79.0781L185.705 78.6395H186.283L186.154 79.962H185.61ZM189.748 78.5443C189.884 78.5443 190.007 78.5738 190.115 78.6327C190.224 78.6916 190.309 78.7948 190.37 78.9421C190.434 79.0894 190.466 79.2956 190.466 79.5608V82.2295H189.789V79.6662C189.789 79.4781 189.775 79.3432 189.748 79.2616C189.723 79.1801 189.656 79.1393 189.548 79.1393C189.462 79.1393 189.374 79.1665 189.286 79.2209C189.198 79.273 189.108 79.3636 189.017 79.4928V82.2295H188.402V79.6662C188.402 79.4781 188.388 79.3432 188.361 79.2616C188.336 79.1801 188.269 79.1393 188.161 79.1393C188.072 79.1393 187.984 79.1665 187.895 79.2209C187.809 79.273 187.721 79.3636 187.63 79.4928V82.2295H186.95V78.6395H187.525L187.576 79.0271C187.678 78.8843 187.789 78.7687 187.909 78.6803C188.029 78.5897 188.174 78.5443 188.344 78.5443C188.48 78.5443 188.604 78.5783 188.715 78.6463C188.826 78.7143 188.907 78.8333 188.96 79.0033C189.059 78.8673 189.173 78.7574 189.3 78.6735C189.426 78.5874 189.576 78.5443 189.748 78.5443ZM196.189 78.6395V81.1484C196.189 81.3615 196.23 81.5133 196.314 81.604C196.4 81.6946 196.53 81.74 196.702 81.74C196.865 81.74 197.023 81.6912 197.174 81.5938C197.326 81.4963 197.446 81.3773 197.535 81.2368V78.6395H198.296V82.2295H197.64L197.593 81.7705C197.459 81.9496 197.29 82.0867 197.086 82.1819C196.882 82.2748 196.674 82.3213 196.461 82.3213C196.114 82.3213 195.854 82.2261 195.682 82.0357C195.512 81.8431 195.427 81.579 195.427 81.2436V78.6395H196.189ZM199.538 82.2295V81.6856H200.065V79.1801H199.538V78.6395H200.646L200.786 79.4724C200.919 79.171 201.085 78.9421 201.282 78.7857C201.481 78.6271 201.737 78.5477 202.05 78.5477C202.157 78.5477 202.252 78.5568 202.336 78.5749C202.422 78.5908 202.507 78.6123 202.591 78.6395L202.363 79.2922C202.29 79.2718 202.222 79.2571 202.159 79.248C202.096 79.2367 202.025 79.231 201.948 79.231C201.688 79.231 201.462 79.3285 201.272 79.5234C201.084 79.7183 200.935 79.9948 200.826 80.3529V81.6856H201.55V82.2295H199.538ZM201.918 79.962V79.0781L202.013 78.6395H202.591L202.462 79.962H201.918ZM205.158 77.1981V81.2504C205.158 81.4159 205.208 81.5337 205.308 81.604C205.41 81.672 205.541 81.706 205.702 81.706C205.806 81.706 205.905 81.6946 205.998 81.672C206.091 81.6493 206.181 81.621 206.27 81.587L206.464 82.1173C206.357 82.1717 206.226 82.2193 206.069 82.2601C205.915 82.3009 205.738 82.3213 205.539 82.3213C205.179 82.3213 204.898 82.2204 204.696 82.0187C204.496 81.8147 204.397 81.536 204.397 81.1824V77.759H203.312V77.1981H205.158ZM208.29 80.6793C208.306 80.924 208.358 81.1246 208.446 81.281C208.535 81.4351 208.65 81.5484 208.793 81.621C208.938 81.6935 209.097 81.7298 209.269 81.7298C209.446 81.7298 209.609 81.7026 209.759 81.6482C209.908 81.5938 210.059 81.5167 210.211 81.417L210.54 81.8725C210.373 82.0085 210.177 82.1173 209.952 82.1989C209.728 82.2805 209.488 82.3213 209.232 82.3213C208.86 82.3213 208.545 82.242 208.287 82.0833C208.03 81.9247 207.836 81.7037 207.702 81.4204C207.568 81.1371 207.501 80.8096 207.501 80.4379C207.501 80.0775 207.567 79.7557 207.698 79.4724C207.83 79.1869 208.018 78.9613 208.263 78.7959C208.508 78.6282 208.8 78.5443 209.14 78.5443C209.459 78.5443 209.734 78.6169 209.963 78.7619C210.194 78.907 210.372 79.1132 210.496 79.3806C210.623 79.6458 210.687 79.9654 210.687 80.3393C210.687 80.4005 210.684 80.4617 210.68 80.5229C210.678 80.5818 210.674 80.6339 210.67 80.6793H208.29ZM209.147 79.1087C208.909 79.1087 208.712 79.1937 208.555 79.3636C208.401 79.5336 208.311 79.7988 208.287 80.1591H209.949C209.942 79.8214 209.87 79.5619 209.731 79.3806C209.595 79.1993 209.4 79.1087 209.147 79.1087ZM211.734 82.2295V78.6395H212.391L212.448 79.1053C212.598 78.9217 212.775 78.7823 212.979 78.6871C213.183 78.5919 213.392 78.5443 213.608 78.5443C213.943 78.5443 214.194 78.6384 214.359 78.8265C214.527 79.0123 214.611 79.2741 214.611 79.6118V82.2295H213.849V79.9892C213.849 79.7807 213.837 79.6129 213.812 79.486C213.787 79.3591 213.737 79.2673 213.662 79.2107C213.59 79.154 213.481 79.1257 213.336 79.1257C213.22 79.1257 213.11 79.1506 213.006 79.2005C212.902 79.2503 212.806 79.316 212.72 79.3976C212.634 79.477 212.559 79.5619 212.496 79.6526V82.2295H211.734ZM217.542 81.6958C217.709 81.6958 217.866 81.6674 218.011 81.6108C218.156 81.5518 218.294 81.4759 218.426 81.383L218.779 81.8725C218.623 82.0063 218.432 82.115 218.208 82.1989C217.986 82.2805 217.756 82.3213 217.518 82.3213C217.151 82.3213 216.837 82.2442 216.576 82.0901C216.316 81.9337 216.116 81.715 215.978 81.434C215.84 81.153 215.771 80.8255 215.771 80.4515C215.771 80.0866 215.84 79.7614 215.978 79.4758C216.118 79.188 216.32 78.9613 216.583 78.7959C216.846 78.6282 217.162 78.5443 217.532 78.5443C217.776 78.5443 218.002 78.5806 218.208 78.6531C218.414 78.7256 218.604 78.8333 218.776 78.9761L218.426 79.4554C218.285 79.358 218.141 79.2843 217.994 79.2344C217.849 79.1823 217.699 79.1563 217.545 79.1563C217.262 79.1563 217.03 79.2605 216.848 79.469C216.669 79.6775 216.58 80.005 216.58 80.4515C216.58 80.7507 216.62 80.992 216.702 81.1756C216.786 81.3569 216.9 81.4895 217.045 81.5734C217.19 81.655 217.356 81.6958 217.542 81.6958ZM221.326 78.5443C221.678 78.5443 221.973 78.6225 222.214 78.7789C222.454 78.9353 222.635 79.154 222.757 79.435C222.882 79.7161 222.944 80.047 222.944 80.4277C222.944 80.8062 222.881 81.1382 222.754 81.4238C222.629 81.7071 222.446 81.9281 222.203 82.0867C221.963 82.2431 221.67 82.3213 221.323 82.3213C220.976 82.3213 220.681 82.2454 220.439 82.0935C220.199 81.9394 220.015 81.7207 219.888 81.4374C219.764 81.1541 219.701 80.8198 219.701 80.4345C219.701 80.0606 219.764 79.7319 219.888 79.4486C220.015 79.1653 220.2 78.9444 220.442 78.7857C220.685 78.6248 220.979 78.5443 221.326 78.5443ZM221.326 79.1359C221.052 79.1359 220.846 79.2412 220.708 79.452C220.569 79.6605 220.5 79.988 220.5 80.4345C220.5 80.8787 220.568 81.2062 220.704 81.417C220.842 81.6278 221.049 81.7332 221.323 81.7332C221.597 81.7332 221.802 81.6278 221.938 81.417C222.076 81.2062 222.146 80.8765 222.146 80.4277C222.146 79.9858 222.078 79.6605 221.942 79.452C221.806 79.2412 221.6 79.1359 221.326 79.1359ZM226.073 77.1131L226.834 77.1981V82.2295H226.165L226.11 81.7875C225.988 81.9575 225.842 82.089 225.672 82.1819C225.502 82.2748 225.311 82.3213 225.101 82.3213C224.792 82.3213 224.538 82.2431 224.339 82.0867C224.14 81.9281 223.991 81.7071 223.894 81.4238C223.798 81.1382 223.751 80.8085 223.751 80.4345C223.751 80.0696 223.808 79.7455 223.921 79.4622C224.034 79.1767 224.196 78.9523 224.407 78.7891C224.618 78.6259 224.872 78.5443 225.169 78.5443C225.357 78.5443 225.525 78.5783 225.675 78.6463C225.825 78.712 225.957 78.8084 226.073 78.9353V77.1131ZM225.369 79.1291C225.113 79.1291 224.914 79.2356 224.771 79.4486C224.628 79.6594 224.557 79.988 224.557 80.4345C224.557 80.7405 224.586 80.9898 224.645 81.1824C224.704 81.3728 224.789 81.5133 224.9 81.604C225.011 81.6924 225.145 81.7366 225.301 81.7366C225.473 81.7366 225.623 81.6867 225.75 81.587C225.877 81.4872 225.984 81.3671 226.073 81.2266V79.5268C225.984 79.3999 225.881 79.3024 225.763 79.2344C225.646 79.1642 225.514 79.1291 225.369 79.1291ZM228.674 80.6793C228.69 80.924 228.742 81.1246 228.831 81.281C228.919 81.4351 229.035 81.5484 229.177 81.621C229.322 81.6935 229.481 81.7298 229.653 81.7298C229.83 81.7298 229.993 81.7026 230.143 81.6482C230.292 81.5938 230.443 81.5167 230.595 81.417L230.925 81.8725C230.757 82.0085 230.561 82.1173 230.337 82.1989C230.112 82.2805 229.872 82.3213 229.616 82.3213C229.244 82.3213 228.929 82.242 228.671 82.0833C228.415 81.9247 228.22 81.7037 228.086 81.4204C227.952 81.1371 227.886 80.8096 227.886 80.4379C227.886 80.0775 227.951 79.7557 228.083 79.4724C228.214 79.1869 228.402 78.9613 228.647 78.7959C228.892 78.6282 229.184 78.5443 229.524 78.5443C229.844 78.5443 230.118 78.6169 230.347 78.7619C230.578 78.907 230.756 79.1132 230.881 79.3806C231.008 79.6458 231.071 79.9654 231.071 80.3393C231.071 80.4005 231.069 80.4617 231.064 80.5229C231.062 80.5818 231.058 80.6339 231.054 80.6793H228.674ZM229.531 79.1087C229.293 79.1087 229.096 79.1937 228.939 79.3636C228.785 79.5336 228.696 79.7988 228.671 80.1591H230.333C230.326 79.8214 230.254 79.5619 230.116 79.3806C229.98 79.1993 229.785 79.1087 229.531 79.1087ZM234.227 77.1131L234.988 77.1981V82.2295H234.318L234.264 81.7875C234.142 81.9575 233.995 82.089 233.825 82.1819C233.655 82.2748 233.465 82.3213 233.254 82.3213C232.946 82.3213 232.692 82.2431 232.493 82.0867C232.293 81.9281 232.145 81.7071 232.047 81.4238C231.952 81.1382 231.905 80.8085 231.905 80.4345C231.905 80.0696 231.961 79.7455 232.075 79.4622C232.188 79.1767 232.35 78.9523 232.561 78.7891C232.772 78.6259 233.025 78.5443 233.322 78.5443C233.51 78.5443 233.679 78.5783 233.829 78.6463C233.978 78.712 234.111 78.8084 234.227 78.9353V77.1131ZM233.523 79.1291C233.267 79.1291 233.067 79.2356 232.924 79.4486C232.782 79.6594 232.71 79.988 232.71 80.4345C232.71 80.7405 232.74 80.9898 232.799 81.1824C232.858 81.3728 232.943 81.5133 233.054 81.604C233.165 81.6924 233.298 81.7366 233.455 81.7366C233.627 81.7366 233.777 81.6867 233.904 81.587C234.03 81.4872 234.138 81.3671 234.227 81.2266V79.5268C234.138 79.3999 234.035 79.3024 233.917 79.2344C233.799 79.1642 233.668 79.1291 233.523 79.1291ZM46.3137 92.6958C46.4815 92.6958 46.6378 92.6674 46.7829 92.6108C46.9279 92.5518 47.0662 92.4759 47.1976 92.383L47.5512 92.8725C47.3948 93.0063 47.2044 93.115 46.9801 93.1989C46.758 93.2805 46.5279 93.3213 46.2899 93.3213C45.9228 93.3213 45.6089 93.2442 45.3483 93.0901C45.0876 92.9337 44.8882 92.715 44.7499 92.434C44.6117 92.153 44.5426 91.8255 44.5426 91.4515C44.5426 91.0866 44.6117 90.7614 44.7499 90.4758C44.8904 90.188 45.0922 89.9613 45.3551 89.7959C45.618 89.6282 45.9341 89.5443 46.3035 89.5443C46.5483 89.5443 46.7738 89.5806 46.9801 89.6531C47.1863 89.7256 47.3756 89.8333 47.5478 89.9761L47.1976 90.4554C47.0571 90.358 46.9132 90.2843 46.7659 90.2344C46.6208 90.1823 46.4713 90.1563 46.3171 90.1563C46.0338 90.1563 45.8015 90.2605 45.6202 90.469C45.4412 90.6775 45.3517 91.005 45.3517 91.4515C45.3517 91.7507 45.3925 91.992 45.474 92.1756C45.5579 92.3569 45.6724 92.4895 45.8174 92.5734C45.9625 92.655 46.1279 92.6958 46.3137 92.6958ZM50.2376 88.1981V92.2504C50.2376 92.4159 50.2875 92.5337 50.3872 92.604C50.4892 92.672 50.6206 92.706 50.7816 92.706C50.8858 92.706 50.9844 92.6946 51.0773 92.672C51.1702 92.6493 51.2609 92.621 51.3493 92.587L51.5431 93.1173C51.4365 93.1717 51.3051 93.2193 51.1487 93.2601C50.9946 93.3009 50.8178 93.3213 50.6184 93.3213C50.258 93.3213 49.977 93.2204 49.7753 93.0187C49.5758 92.8147 49.4761 92.536 49.4761 92.1824V88.759H48.3916V88.1981H50.2376ZM54.6986 89.6395V92.672H55.6743V93.2295H52.8629V92.672H53.9371V90.1971H52.8968V89.6395H54.6986ZM54.1683 87.8819C54.3179 87.8819 54.438 87.9273 54.5287 88.0179C54.6216 88.1086 54.668 88.2219 54.668 88.3579C54.668 88.4939 54.6216 88.6083 54.5287 88.7012C54.438 88.7942 54.3179 88.8406 54.1683 88.8406C54.0232 88.8406 53.9043 88.7942 53.8113 88.7012C53.7184 88.6083 53.672 88.4939 53.672 88.3579C53.672 88.2219 53.7184 88.1086 53.8113 88.0179C53.9043 87.9273 54.0232 87.8819 54.1683 87.8819ZM57.4462 91.6793C57.4621 91.924 57.5142 92.1246 57.6026 92.281C57.691 92.4351 57.8066 92.5484 57.9494 92.621C58.0944 92.6935 58.2531 92.7298 58.4253 92.7298C58.6021 92.7298 58.7653 92.7026 58.9149 92.6482C59.0645 92.5938 59.2152 92.5167 59.367 92.417L59.6968 92.8725C59.5291 93.0085 59.333 93.1173 59.1086 93.1989C58.8843 93.2805 58.644 93.3213 58.3879 93.3213C58.0162 93.3213 57.7012 93.242 57.4428 93.0833C57.1867 92.9247 56.9918 92.7037 56.8581 92.4204C56.7244 92.1371 56.6575 91.8096 56.6575 91.4379C56.6575 91.0775 56.7233 90.7557 56.8547 90.4724C56.9862 90.1869 57.1743 89.9613 57.4191 89.7959C57.6638 89.6282 57.9562 89.5443 58.2961 89.5443C58.6157 89.5443 58.8899 89.6169 59.1188 89.7619C59.35 89.907 59.5279 90.1132 59.6526 90.3806C59.7795 90.6458 59.843 90.9654 59.843 91.3393C59.843 91.4005 59.8407 91.4617 59.8362 91.5229C59.8339 91.5818 59.8305 91.6339 59.826 91.6793H57.4462ZM58.3029 90.1087C58.065 90.1087 57.8678 90.1937 57.7114 90.3636C57.5573 90.5336 57.4678 90.7988 57.4428 91.1591H59.1053C59.0985 90.8214 59.0259 90.5619 58.8877 90.3806C58.7517 90.1993 58.5568 90.1087 58.3029 90.1087ZM60.8908 93.2295V89.6395H61.5469L61.6047 90.1053C61.7543 89.9217 61.9311 89.7823 62.135 89.6871C62.339 89.5919 62.5486 89.5443 62.764 89.5443C63.0994 89.5443 63.3498 89.6384 63.5153 89.8265C63.683 90.0123 63.7668 90.2741 63.7668 90.6118V93.2295H63.0053V90.9892C63.0053 90.7807 62.9929 90.6129 62.9679 90.486C62.943 90.3591 62.8931 90.2673 62.8184 90.2107C62.7458 90.154 62.637 90.1257 62.492 90.1257C62.3764 90.1257 62.2665 90.1506 62.1622 90.2005C62.058 90.2503 61.9628 90.316 61.8767 90.3976C61.7905 90.477 61.7157 90.5619 61.6523 90.6526V93.2295H60.8908ZM67.9661 93.0391C67.8346 93.123 67.6771 93.191 67.4935 93.2431C67.31 93.2952 67.1184 93.3213 66.919 93.3213C66.502 93.3213 66.1847 93.2136 65.9671 92.9983C65.7518 92.7807 65.6442 92.4952 65.6442 92.1416V90.1937H64.8453V89.6395H65.6442V88.8372L66.4057 88.7454V89.6395H67.6159L67.5309 90.1937H66.4057V92.1348C66.4057 92.3275 66.4533 92.4714 66.5484 92.5666C66.6459 92.6595 66.8046 92.706 67.0244 92.706C67.1558 92.706 67.2771 92.6901 67.3881 92.6584C67.4992 92.6266 67.6001 92.5858 67.6907 92.536L67.9661 93.0391ZM68.7793 94.4737V93.8448H72.1789V94.4737H68.7793ZM75.0829 89.6395V92.672H76.0586V93.2295H73.2471V92.672H74.3214V90.1971H73.2811V89.6395H75.0829ZM74.5526 87.8819C74.7022 87.8819 74.8223 87.9273 74.9129 88.0179C75.0059 88.1086 75.0523 88.2219 75.0523 88.3579C75.0523 88.4939 75.0059 88.6083 74.9129 88.7012C74.8223 88.7942 74.7022 88.8406 74.5526 88.8406C74.4075 88.8406 74.2885 88.7942 74.1956 88.7012C74.1027 88.6083 74.0562 88.4939 74.0562 88.3579C74.0562 88.2219 74.1027 88.1086 74.1956 88.0179C74.2885 87.9273 74.4075 87.8819 74.5526 87.8819ZM79.306 88.1131L80.0675 88.1981V93.2295H79.3977L79.3434 92.7875C79.221 92.9575 79.0748 93.089 78.9048 93.1819C78.7348 93.2748 78.5444 93.3213 78.3337 93.3213C78.0254 93.3213 77.7716 93.2431 77.5722 93.0867C77.3727 92.9281 77.2243 92.7071 77.1268 92.4238C77.0316 92.1382 76.984 91.8085 76.984 91.4345C76.984 91.0696 77.0407 90.7455 77.154 90.4622C77.2673 90.1767 77.4294 89.9523 77.6402 89.7891C77.8509 89.6259 78.1048 89.5443 78.4017 89.5443C78.5898 89.5443 78.7586 89.5783 78.9082 89.6463C79.0578 89.712 79.1904 89.8084 79.306 89.9353V88.1131ZM78.6022 90.1291C78.3461 90.1291 78.1467 90.2356 78.0039 90.4486C77.8611 90.6594 77.7897 90.988 77.7897 91.4345C77.7897 91.7405 77.8192 91.9898 77.8781 92.1824C77.9371 92.3728 78.022 92.5133 78.1331 92.604C78.2442 92.6924 78.3779 92.7366 78.5343 92.7366C78.7065 92.7366 78.8561 92.6867 78.983 92.587C79.1099 92.4872 79.2176 92.3671 79.306 92.2266V90.5268C79.2176 90.3999 79.1144 90.3024 78.9966 90.2344C78.8787 90.1642 78.7473 90.1291 78.6022 90.1291ZM85.9265 94.0318V87.6678H87.7792V88.2763H86.6438V93.4301H87.7792V94.0318H85.9265ZM91.2612 91.4379V93.2295H90.4657V91.4447L88.9018 88.5381H89.7687L90.8804 90.7614L91.9989 88.5381H92.825L91.2612 91.4379ZM94.9437 89.5443C95.295 89.5443 95.5907 89.6225 95.831 89.7789C96.0712 89.9353 96.2525 90.154 96.3749 90.435C96.4995 90.7161 96.5619 91.047 96.5619 91.4277C96.5619 91.8062 96.4984 92.1382 96.3715 92.4238C96.2468 92.7071 96.0633 92.9281 95.8208 93.0867C95.5805 93.2431 95.287 93.3213 94.9403 93.3213C94.5935 93.3213 94.2989 93.2454 94.0564 93.0935C93.8161 92.9394 93.6326 92.7207 93.5056 92.4374C93.381 92.1541 93.3187 91.8198 93.3187 91.4345C93.3187 91.0606 93.381 90.7319 93.5056 90.4486C93.6326 90.1653 93.8173 89.9444 94.0598 89.7857C94.3023 89.6248 94.5969 89.5443 94.9437 89.5443ZM94.9437 90.1359C94.6694 90.1359 94.4632 90.2412 94.3249 90.452C94.1867 90.6605 94.1176 90.988 94.1176 91.4345C94.1176 91.8787 94.1856 92.2062 94.3215 92.417C94.4598 92.6278 94.666 92.7332 94.9403 92.7332C95.2145 92.7332 95.4196 92.6278 95.5556 92.417C95.6938 92.2062 95.763 91.8765 95.763 91.4277C95.763 90.9858 95.695 90.6605 95.559 90.452C95.423 90.2412 95.2179 90.1359 94.9437 90.1359ZM98.344 89.6395V92.1484C98.344 92.3615 98.3859 92.5133 98.4698 92.604C98.5559 92.6946 98.6851 92.74 98.8573 92.74C99.0205 92.74 99.178 92.6912 99.3299 92.5938C99.4817 92.4963 99.6019 92.3773 99.6902 92.2368V89.6395H100.452V93.2295H99.7956L99.748 92.7705C99.6143 92.9496 99.4455 93.0867 99.2415 93.1819C99.0375 93.2748 98.829 93.3213 98.616 93.3213C98.2692 93.3213 98.0097 93.2261 97.8375 93.0357C97.6675 92.8431 97.5825 92.579 97.5825 92.2436V89.6395H98.344ZM101.693 93.2295V92.6856H102.22V90.1801H101.693V89.6395H102.802L102.941 90.4724C103.075 90.171 103.24 89.9421 103.437 89.7857C103.637 89.6271 103.893 89.5477 104.206 89.5477C104.312 89.5477 104.407 89.5568 104.491 89.5749C104.577 89.5908 104.662 89.6123 104.746 89.6395L104.518 90.2922C104.446 90.2718 104.378 90.2571 104.314 90.248C104.251 90.2367 104.181 90.231 104.104 90.231C103.843 90.231 103.618 90.3285 103.427 90.5234C103.239 90.7183 103.091 90.9948 102.982 91.3529V92.6856H103.706V93.2295H101.693ZM104.073 90.962V90.0781L104.168 89.6395H104.746L104.617 90.962H104.073ZM107.565 88.4429C107.882 88.4429 108.15 88.4848 108.367 88.5686C108.587 88.6502 108.791 88.7681 108.979 88.9222L108.568 89.4117C108.428 89.2939 108.277 89.2066 108.116 89.15C107.955 89.0933 107.784 89.065 107.603 89.065C107.369 89.065 107.154 89.1239 106.957 89.2418C106.759 89.3596 106.601 89.5511 106.481 89.8163C106.363 90.0815 106.304 90.435 106.304 90.877C106.304 91.3099 106.361 91.6589 106.474 91.924C106.587 92.1892 106.742 92.3819 106.94 92.502C107.137 92.6221 107.358 92.6822 107.603 92.6822C107.854 92.6822 108.063 92.6414 108.228 92.5598C108.394 92.4759 108.54 92.3819 108.667 92.2776L109.047 92.7637C108.891 92.9156 108.693 93.047 108.452 93.1581C108.212 93.2669 107.92 93.3213 107.575 93.3213C107.179 93.3213 106.822 93.2284 106.505 93.0425C106.189 92.8544 105.94 92.579 105.757 92.2164C105.575 91.8538 105.485 91.4073 105.485 90.877C105.485 90.3512 105.579 89.9081 105.767 89.5477C105.955 89.1851 106.206 88.9109 106.522 88.725C106.837 88.5369 107.184 88.4429 107.565 88.4429ZM111.39 88.1981V92.2504C111.39 92.4159 111.44 92.5337 111.54 92.604C111.642 92.672 111.773 92.706 111.934 92.706C112.039 92.706 112.137 92.6946 112.23 92.672C112.323 92.6493 112.414 92.621 112.502 92.587L112.696 93.1173C112.589 93.1717 112.458 93.2193 112.302 93.2601C112.147 93.3009 111.971 93.3213 111.771 93.3213C111.411 93.3213 111.13 93.2204 110.928 93.0187C110.729 92.8147 110.629 92.536 110.629 92.1824V88.759H109.544V88.1981H111.39ZM115.851 89.6395V92.672H116.827V93.2295H114.016V92.672H115.09V90.1971H114.05V89.6395H115.851ZM115.321 87.8819C115.471 87.8819 115.591 87.9273 115.682 88.0179C115.774 88.1086 115.821 88.2219 115.821 88.3579C115.821 88.4939 115.774 88.6083 115.682 88.7012C115.591 88.7942 115.471 88.8406 115.321 88.8406C115.176 88.8406 115.057 88.7942 114.964 88.7012C114.871 88.6083 114.825 88.4939 114.825 88.3579C114.825 88.2219 114.871 88.1086 114.964 88.0179C115.057 87.9273 115.176 87.8819 115.321 87.8819ZM118.599 91.6793C118.615 91.924 118.667 92.1246 118.755 92.281C118.844 92.4351 118.959 92.5484 119.102 92.621C119.247 92.6935 119.406 92.7298 119.578 92.7298C119.755 92.7298 119.918 92.7026 120.068 92.6482C120.217 92.5938 120.368 92.5167 120.52 92.417L120.85 92.8725C120.682 93.0085 120.486 93.1173 120.262 93.1989C120.037 93.2805 119.797 93.3213 119.541 93.3213C119.169 93.3213 118.854 93.242 118.596 93.0833C118.34 92.9247 118.145 92.7037 118.011 92.4204C117.877 92.1371 117.81 91.8096 117.81 91.4379C117.81 91.0775 117.876 90.7557 118.008 90.4724C118.139 90.1869 118.327 89.9613 118.572 89.7959C118.817 89.6282 119.109 89.5443 119.449 89.5443C119.769 89.5443 120.043 89.6169 120.272 89.7619C120.503 89.907 120.681 90.1132 120.805 90.3806C120.932 90.6458 120.996 90.9654 120.996 91.3393C120.996 91.4005 120.994 91.4617 120.989 91.5229C120.987 91.5818 120.983 91.6339 120.979 91.6793H118.599ZM119.456 90.1087C119.218 90.1087 119.021 90.1937 118.864 90.3636C118.71 90.5336 118.621 90.7988 118.596 91.1591H120.258C120.251 90.8214 120.179 90.5619 120.041 90.3806C119.905 90.1993 119.71 90.1087 119.456 90.1087ZM122.044 93.2295V89.6395H122.7L122.758 90.1053C122.907 89.9217 123.084 89.7823 123.288 89.6871C123.492 89.5919 123.702 89.5443 123.917 89.5443C124.252 89.5443 124.503 89.6384 124.668 89.8265C124.836 90.0123 124.92 90.2741 124.92 90.6118V93.2295H124.158V90.9892C124.158 90.7807 124.146 90.6129 124.121 90.486C124.096 90.3591 124.046 90.2673 123.971 90.2107C123.899 90.154 123.79 90.1257 123.645 90.1257C123.529 90.1257 123.419 90.1506 123.315 90.2005C123.211 90.2503 123.116 90.316 123.03 90.3976C122.943 90.477 122.869 90.5619 122.805 90.6526V93.2295H122.044ZM129.119 93.0391C128.987 93.123 128.83 93.191 128.646 93.2431C128.463 93.2952 128.271 93.3213 128.072 93.3213C127.655 93.3213 127.338 93.2136 127.12 92.9983C126.905 92.7807 126.797 92.4952 126.797 92.1416V90.1937H125.998V89.6395H126.797V88.8372L127.559 88.7454V89.6395H128.769L128.684 90.1937H127.559V92.1348C127.559 92.3275 127.606 92.4714 127.701 92.5666C127.799 92.6595 127.957 92.706 128.177 92.706C128.309 92.706 128.43 92.6901 128.541 92.6584C128.652 92.6266 128.753 92.5858 128.844 92.536L129.119 93.0391ZM133.043 88.5381V89.1398H132.03V92.6244H133.043V93.2295H130.221V92.6244H131.234V89.1398H130.221V88.5381H133.043ZM136.382 88.1131L137.143 88.1981V93.2295H136.474L136.419 92.7875C136.297 92.9575 136.151 93.089 135.981 93.1819C135.811 93.2748 135.62 93.3213 135.41 93.3213C135.101 93.3213 134.848 93.2431 134.648 93.0867C134.449 92.9281 134.3 92.7071 134.203 92.4238C134.108 92.1382 134.06 91.8085 134.06 91.4345C134.06 91.0696 134.117 90.7455 134.23 90.4622C134.343 90.1767 134.505 89.9523 134.716 89.7891C134.927 89.6259 135.181 89.5443 135.478 89.5443C135.666 89.5443 135.835 89.5783 135.984 89.6463C136.134 89.712 136.266 89.8084 136.382 89.9353V88.1131ZM135.678 90.1291C135.422 90.1291 135.223 90.2356 135.08 90.4486C134.937 90.6594 134.866 90.988 134.866 91.4345C134.866 91.7405 134.895 91.9898 134.954 92.1824C135.013 92.3728 135.098 92.5133 135.209 92.604C135.32 92.6924 135.454 92.7366 135.61 92.7366C135.782 92.7366 135.932 92.6867 136.059 92.587C136.186 92.4872 136.294 92.3671 136.382 92.2266V90.5268C136.294 90.3999 136.19 90.3024 136.073 90.2344C135.955 90.1642 135.823 90.1291 135.678 90.1291ZM140.646 87.6678V94.0318H138.793V93.4301H139.928V88.2763H138.793V87.6678H140.646ZM148.235 92.6958C148.403 92.6958 148.559 92.6674 148.704 92.6108C148.849 92.5518 148.988 92.4759 149.119 92.383L149.473 92.8725C149.316 93.0063 149.126 93.115 148.901 93.1989C148.679 93.2805 148.449 93.3213 148.211 93.3213C147.844 93.3213 147.53 93.2442 147.27 93.0901C147.009 92.9337 146.81 92.715 146.671 92.434C146.533 92.153 146.464 91.8255 146.464 91.4515C146.464 91.0866 146.533 90.7614 146.671 90.4758C146.812 90.188 147.014 89.9613 147.276 89.7959C147.539 89.6282 147.856 89.5443 148.225 89.5443C148.47 89.5443 148.695 89.5806 148.901 89.6531C149.108 89.7256 149.297 89.8333 149.469 89.9761L149.119 90.4554C148.979 90.358 148.835 90.2843 148.687 90.2344C148.542 90.1823 148.393 90.1563 148.239 90.1563C147.955 90.1563 147.723 90.2605 147.542 90.469C147.363 90.6775 147.273 91.005 147.273 91.4515C147.273 91.7507 147.314 91.992 147.395 92.1756C147.479 92.3569 147.594 92.4895 147.739 92.5734C147.884 92.655 148.049 92.6958 148.235 92.6958ZM152.159 88.1981V92.2504C152.159 92.4159 152.209 92.5337 152.309 92.604C152.411 92.672 152.542 92.706 152.703 92.706C152.807 92.706 152.906 92.6946 152.999 92.672C153.092 92.6493 153.182 92.621 153.271 92.587L153.464 93.1173C153.358 93.1717 153.227 93.2193 153.07 93.2601C152.916 93.3009 152.739 93.3213 152.54 93.3213C152.179 93.3213 151.898 93.2204 151.697 93.0187C151.497 92.8147 151.398 92.536 151.398 92.1824V88.759H150.313V88.1981H152.159ZM156.62 89.6395V92.672H157.596V93.2295H154.784V92.672H155.859V90.1971H154.818V89.6395H156.62ZM156.09 87.8819C156.239 87.8819 156.359 87.9273 156.45 88.0179C156.543 88.1086 156.589 88.2219 156.589 88.3579C156.589 88.4939 156.543 88.6083 156.45 88.7012C156.359 88.7942 156.239 88.8406 156.09 88.8406C155.945 88.8406 155.826 88.7942 155.733 88.7012C155.64 88.6083 155.593 88.4939 155.593 88.3579C155.593 88.2219 155.64 88.1086 155.733 88.0179C155.826 87.9273 155.945 87.8819 156.09 87.8819ZM159.368 91.6793C159.384 91.924 159.436 92.1246 159.524 92.281C159.612 92.4351 159.728 92.5484 159.871 92.621C160.016 92.6935 160.175 92.7298 160.347 92.7298C160.524 92.7298 160.687 92.7026 160.836 92.6482C160.986 92.5938 161.137 92.5167 161.288 92.417L161.618 92.8725C161.45 93.0085 161.254 93.1173 161.03 93.1989C160.806 93.2805 160.565 93.3213 160.309 93.3213C159.938 93.3213 159.623 93.242 159.364 93.0833C159.108 92.9247 158.913 92.7037 158.78 92.4204C158.646 92.1371 158.579 91.8096 158.579 91.4379C158.579 91.0775 158.645 90.7557 158.776 90.4724C158.908 90.1869 159.096 89.9613 159.34 89.7959C159.585 89.6282 159.878 89.5443 160.218 89.5443C160.537 89.5443 160.811 89.6169 161.04 89.7619C161.271 89.907 161.449 90.1132 161.574 90.3806C161.701 90.6458 161.764 90.9654 161.764 91.3393C161.764 91.4005 161.762 91.4617 161.758 91.5229C161.755 91.5818 161.752 91.6339 161.747 91.6793H159.368ZM160.224 90.1087C159.986 90.1087 159.789 90.1937 159.633 90.3636C159.479 90.5336 159.389 90.7988 159.364 91.1591H161.027C161.02 90.8214 160.947 90.5619 160.809 90.3806C160.673 90.1993 160.478 90.1087 160.224 90.1087ZM162.812 93.2295V89.6395H163.468L163.526 90.1053C163.676 89.9217 163.852 89.7823 164.056 89.6871C164.26 89.5919 164.47 89.5443 164.685 89.5443C165.021 89.5443 165.271 89.6384 165.437 89.8265C165.604 90.0123 165.688 90.2741 165.688 90.6118V93.2295H164.927V90.9892C164.927 90.7807 164.914 90.6129 164.889 90.486C164.864 90.3591 164.815 90.2673 164.74 90.2107C164.667 90.154 164.558 90.1257 164.413 90.1257C164.298 90.1257 164.188 90.1506 164.084 90.2005C163.979 90.2503 163.884 90.316 163.798 90.3976C163.712 90.477 163.637 90.5619 163.574 90.6526V93.2295H162.812ZM169.888 93.0391C169.756 93.123 169.599 93.191 169.415 93.2431C169.231 93.2952 169.04 93.3213 168.84 93.3213C168.423 93.3213 168.106 93.2136 167.889 92.9983C167.673 92.7807 167.566 92.4952 167.566 92.1416V90.1937H166.767V89.6395H167.566V88.8372L168.327 88.7454V89.6395H169.537L169.452 90.1937H168.327V92.1348C168.327 92.3275 168.375 92.4714 168.47 92.5666C168.567 92.6595 168.726 92.706 168.946 92.706C169.077 92.706 169.199 92.6901 169.31 92.6584C169.421 92.6266 169.521 92.5858 169.612 92.536L169.888 93.0391ZM170.701 94.4737V93.8448H174.1V94.4737H170.701ZM176.348 92.7366C176.586 92.7366 176.775 92.6946 176.916 92.6108C177.056 92.5246 177.127 92.4068 177.127 92.2572C177.127 92.1598 177.106 92.077 177.066 92.009C177.025 91.9388 176.943 91.8753 176.821 91.8187C176.698 91.7597 176.513 91.6985 176.263 91.6351C176.028 91.5739 175.82 91.5014 175.641 91.4175C175.464 91.3337 175.327 91.2249 175.23 91.0911C175.132 90.9574 175.084 90.7852 175.084 90.5744C175.084 90.3682 175.141 90.188 175.257 90.0339C175.373 89.8798 175.538 89.7596 175.753 89.6735C175.971 89.5874 176.226 89.5443 176.518 89.5443C176.82 89.5443 177.083 89.584 177.307 89.6633C177.531 89.7426 177.723 89.8412 177.881 89.9591L177.562 90.4384C177.421 90.3455 177.267 90.2696 177.1 90.2107C176.934 90.1517 176.747 90.1223 176.539 90.1223C176.296 90.1223 176.122 90.1585 176.015 90.231C175.911 90.3036 175.859 90.3999 175.859 90.52C175.859 90.6084 175.885 90.6832 175.937 90.7444C175.991 90.8033 176.084 90.8588 176.216 90.911C176.347 90.9608 176.533 91.0198 176.773 91.0877C177.007 91.1512 177.209 91.226 177.382 91.3121C177.556 91.3982 177.691 91.5127 177.786 91.6555C177.884 91.796 177.932 91.9796 177.932 92.2062C177.932 92.4646 177.858 92.6765 177.708 92.8419C177.561 93.0051 177.366 93.1264 177.123 93.2057C176.883 93.2828 176.625 93.3213 176.348 93.3213C176.015 93.3213 175.727 93.2737 175.485 93.1785C175.242 93.081 175.038 92.9598 174.873 92.8147L175.277 92.3524C175.418 92.4657 175.579 92.5586 175.76 92.6312C175.941 92.7014 176.137 92.7366 176.348 92.7366ZM179.752 91.6793C179.768 91.924 179.82 92.1246 179.908 92.281C179.997 92.4351 180.112 92.5484 180.255 92.621C180.4 92.6935 180.559 92.7298 180.731 92.7298C180.908 92.7298 181.071 92.7026 181.221 92.6482C181.37 92.5938 181.521 92.5167 181.673 92.417L182.002 92.8725C181.835 93.0085 181.639 93.1173 181.414 93.1989C181.19 93.2805 180.95 93.3213 180.694 93.3213C180.322 93.3213 180.007 93.242 179.749 93.0833C179.492 92.9247 179.298 92.7037 179.164 92.4204C179.03 92.1371 178.963 91.8096 178.963 91.4379C178.963 91.0775 179.029 90.7557 179.16 90.4724C179.292 90.1869 179.48 89.9613 179.725 89.7959C179.97 89.6282 180.262 89.5443 180.602 89.5443C180.921 89.5443 181.196 89.6169 181.425 89.7619C181.656 89.907 181.834 90.1132 181.958 90.3806C182.085 90.6458 182.149 90.9654 182.149 91.3393C182.149 91.4005 182.146 91.4617 182.142 91.5229C182.14 91.5818 182.136 91.6339 182.132 91.6793H179.752ZM180.609 90.1087C180.371 90.1087 180.174 90.1937 180.017 90.3636C179.863 90.5336 179.773 90.7988 179.749 91.1591H181.411C181.404 90.8214 181.332 90.5619 181.193 90.3806C181.057 90.1993 180.862 90.1087 180.609 90.1087ZM184.927 92.6958C185.095 92.6958 185.251 92.6674 185.396 92.6108C185.541 92.5518 185.679 92.4759 185.811 92.383L186.164 92.8725C186.008 93.0063 185.818 93.115 185.593 93.1989C185.371 93.2805 185.141 93.3213 184.903 93.3213C184.536 93.3213 184.222 93.2442 183.961 93.0901C183.701 92.9337 183.501 92.715 183.363 92.434C183.225 92.153 183.156 91.8255 183.156 91.4515C183.156 91.0866 183.225 90.7614 183.363 90.4758C183.504 90.188 183.705 89.9613 183.968 89.7959C184.231 89.6282 184.547 89.5443 184.917 89.5443C185.161 89.5443 185.387 89.5806 185.593 89.6531C185.799 89.7256 185.989 89.8333 186.161 89.9761L185.811 90.4554C185.67 90.358 185.526 90.2843 185.379 90.2344C185.234 90.1823 185.084 90.1563 184.93 90.1563C184.647 90.1563 184.415 90.2605 184.233 90.469C184.054 90.6775 183.965 91.005 183.965 91.4515C183.965 91.7507 184.006 91.992 184.087 92.1756C184.171 92.3569 184.286 92.4895 184.431 92.5734C184.576 92.655 184.741 92.6958 184.927 92.6958ZM187.307 93.2295V92.6856H187.834V90.1801H187.307V89.6395H188.416L188.555 90.4724C188.689 90.171 188.854 89.9421 189.051 89.7857C189.251 89.6271 189.507 89.5477 189.82 89.5477C189.926 89.5477 190.021 89.5568 190.105 89.5749C190.191 89.5908 190.276 89.6123 190.36 89.6395L190.132 90.2922C190.06 90.2718 189.992 90.2571 189.928 90.248C189.865 90.2367 189.795 90.231 189.718 90.231C189.457 90.231 189.232 90.3285 189.041 90.5234C188.853 90.7183 188.705 90.9948 188.596 91.3529V92.6856H189.32V93.2295H187.307ZM189.687 90.962V90.0781L189.782 89.6395H190.36L190.231 90.962H189.687ZM191.983 91.6793C191.998 91.924 192.051 92.1246 192.139 92.281C192.227 92.4351 192.343 92.5484 192.486 92.621C192.631 92.6935 192.789 92.7298 192.962 92.7298C193.138 92.7298 193.302 92.7026 193.451 92.6482C193.601 92.5938 193.751 92.5167 193.903 92.417L194.233 92.8725C194.065 93.0085 193.869 93.1173 193.645 93.1989C193.421 93.2805 193.18 93.3213 192.924 93.3213C192.553 93.3213 192.238 93.242 191.979 93.0833C191.723 92.9247 191.528 92.7037 191.394 92.4204C191.261 92.1371 191.194 91.8096 191.194 91.4379C191.194 91.0775 191.26 90.7557 191.391 90.4724C191.522 90.1869 191.711 89.9613 191.955 89.7959C192.2 89.6282 192.492 89.5443 192.832 89.5443C193.152 89.5443 193.426 89.6169 193.655 89.7619C193.886 89.907 194.064 90.1132 194.189 90.3806C194.316 90.6458 194.379 90.9654 194.379 91.3393C194.379 91.4005 194.377 91.4617 194.372 91.5229C194.37 91.5818 194.367 91.6339 194.362 91.6793H191.983ZM192.839 90.1087C192.601 90.1087 192.404 90.1937 192.248 90.3636C192.094 90.5336 192.004 90.7988 191.979 91.1591H193.642C193.635 90.8214 193.562 90.5619 193.424 90.3806C193.288 90.1993 193.093 90.1087 192.839 90.1087ZM198.426 93.0391C198.294 93.123 198.137 93.191 197.953 93.2431C197.769 93.2952 197.578 93.3213 197.378 93.3213C196.961 93.3213 196.644 93.2136 196.427 92.9983C196.211 92.7807 196.104 92.4952 196.104 92.1416V90.1937H195.305V89.6395H196.104V88.8372L196.865 88.7454V89.6395H198.075L197.99 90.1937H196.865V92.1348C196.865 92.3275 196.913 92.4714 197.008 92.5666C197.105 92.6595 197.264 92.706 197.484 92.706C197.615 92.706 197.737 92.6901 197.848 92.6584C197.959 92.6266 198.059 92.5858 198.15 92.536L198.426 93.0391ZM204.155 94.0318V87.6678H206.008V88.2763H204.873V93.4301H206.008V94.0318H204.155ZM209.49 91.4379V93.2295H208.695V91.4447L207.131 88.5381H207.998L209.109 90.7614L210.228 88.5381H211.054L209.49 91.4379ZM213.173 89.5443C213.524 89.5443 213.82 89.6225 214.06 89.7789C214.3 89.9353 214.481 90.154 214.604 90.435C214.728 90.7161 214.791 91.047 214.791 91.4277C214.791 91.8062 214.727 92.1382 214.6 92.4238C214.476 92.7071 214.292 92.9281 214.05 93.0867C213.809 93.2431 213.516 93.3213 213.169 93.3213C212.822 93.3213 212.528 93.2454 212.285 93.0935C212.045 92.9394 211.861 92.7207 211.734 92.4374C211.61 92.1541 211.548 91.8198 211.548 91.4345C211.548 91.0606 211.61 90.7319 211.734 90.4486C211.861 90.1653 212.046 89.9444 212.289 89.7857C212.531 89.6248 212.826 89.5443 213.173 89.5443ZM213.173 90.1359C212.898 90.1359 212.692 90.2412 212.554 90.452C212.416 90.6605 212.346 90.988 212.346 91.4345C212.346 91.8787 212.414 92.2062 212.55 92.417C212.689 92.6278 212.895 92.7332 213.169 92.7332C213.443 92.7332 213.648 92.6278 213.784 92.417C213.923 92.2062 213.992 91.8765 213.992 91.4277C213.992 90.9858 213.924 90.6605 213.788 90.452C213.652 90.2412 213.447 90.1359 213.173 90.1359ZM216.573 89.6395V92.1484C216.573 92.3615 216.615 92.5133 216.699 92.604C216.785 92.6946 216.914 92.74 217.086 92.74C217.249 92.74 217.407 92.6912 217.559 92.5938C217.711 92.4963 217.831 92.3773 217.919 92.2368V89.6395H218.681V93.2295H218.024L217.977 92.7705C217.843 92.9496 217.674 93.0867 217.47 93.1819C217.266 93.2748 217.058 93.3213 216.845 93.3213C216.498 93.3213 216.239 93.2261 216.066 93.0357C215.896 92.8431 215.811 92.579 215.811 92.2436V89.6395H216.573ZM219.922 93.2295V92.6856H220.449V90.1801H219.922V89.6395H221.03L221.17 90.4724C221.304 90.171 221.469 89.9421 221.666 89.7857C221.866 89.6271 222.122 89.5477 222.435 89.5477C222.541 89.5477 222.636 89.5568 222.72 89.5749C222.806 89.5908 222.891 89.6123 222.975 89.6395L222.747 90.2922C222.675 90.2718 222.607 90.2571 222.543 90.248C222.48 90.2367 222.41 90.231 222.333 90.231C222.072 90.231 221.846 90.3285 221.656 90.5234C221.468 90.7183 221.319 90.9948 221.211 91.3529V92.6856H221.935V93.2295H219.922ZM222.302 90.962V90.0781L222.397 89.6395H222.975L222.846 90.962H222.302ZM227.089 91.9037C227.089 92.1802 227.018 92.4261 226.875 92.6414C226.735 92.8544 226.531 93.021 226.263 93.1411C225.998 93.2612 225.677 93.3213 225.301 93.3213C224.92 93.3213 224.586 93.2646 224.298 93.1513C224.013 93.0357 223.771 92.8827 223.574 92.6924L224.006 92.2096C224.174 92.3615 224.363 92.4816 224.574 92.57C224.784 92.6561 225.026 92.6992 225.298 92.6992C225.474 92.6992 225.637 92.672 225.784 92.6176C225.931 92.5609 226.049 92.477 226.137 92.366C226.226 92.2527 226.27 92.111 226.27 91.941C226.27 91.8028 226.242 91.6861 226.185 91.5909C226.128 91.4957 226.03 91.4096 225.889 91.3325C225.751 91.2555 225.557 91.1807 225.308 91.1081C224.977 91.0084 224.699 90.8974 224.475 90.775C224.251 90.6526 224.081 90.5064 223.965 90.3364C223.852 90.1642 223.795 89.9557 223.795 89.7109C223.795 89.4571 223.864 89.235 224.002 89.0446C224.143 88.8542 224.334 88.7069 224.577 88.6026C224.822 88.4961 225.098 88.4429 225.406 88.4429C225.746 88.4429 226.043 88.4916 226.297 88.589C226.551 88.6865 226.778 88.8259 226.977 89.0072L226.562 89.4763C226.397 89.3313 226.219 89.2259 226.029 89.1602C225.841 89.0945 225.649 89.0616 225.454 89.0616C225.295 89.0616 225.152 89.0843 225.022 89.1296C224.893 89.1749 224.791 89.2418 224.716 89.3302C224.642 89.4185 224.604 89.5307 224.604 89.6667C224.604 89.7868 224.637 89.89 224.703 89.9761C224.771 90.0622 224.884 90.1427 225.043 90.2175C225.204 90.29 225.423 90.3682 225.702 90.452C225.965 90.5291 226.201 90.6243 226.409 90.7376C226.62 90.8509 226.786 90.9994 226.906 91.1829C227.028 91.3665 227.089 91.6068 227.089 91.9037ZM228.674 91.6793C228.69 91.924 228.742 92.1246 228.831 92.281C228.919 92.4351 229.035 92.5484 229.177 92.621C229.322 92.6935 229.481 92.7298 229.653 92.7298C229.83 92.7298 229.993 92.7026 230.143 92.6482C230.292 92.5938 230.443 92.5167 230.595 92.417L230.925 92.8725C230.757 93.0085 230.561 93.1173 230.337 93.1989C230.112 93.2805 229.872 93.3213 229.616 93.3213C229.244 93.3213 228.929 93.242 228.671 93.0833C228.415 92.9247 228.22 92.7037 228.086 92.4204C227.952 92.1371 227.886 91.8096 227.886 91.4379C227.886 91.0775 227.951 90.7557 228.083 90.4724C228.214 90.1869 228.402 89.9613 228.647 89.7959C228.892 89.6282 229.184 89.5443 229.524 89.5443C229.844 89.5443 230.118 89.6169 230.347 89.7619C230.578 89.907 230.756 90.1132 230.881 90.3806C231.008 90.6458 231.071 90.9654 231.071 91.3393C231.071 91.4005 231.069 91.4617 231.064 91.5229C231.062 91.5818 231.058 91.6339 231.054 91.6793H228.674ZM229.531 90.1087C229.293 90.1087 229.096 90.1937 228.939 90.3636C228.785 90.5336 228.696 90.7988 228.671 91.1591H230.333C230.326 90.8214 230.254 90.5619 230.116 90.3806C229.98 90.1993 229.785 90.1087 229.531 90.1087ZM233.849 92.6958C234.017 92.6958 234.173 92.6674 234.318 92.6108C234.463 92.5518 234.602 92.4759 234.733 92.383L235.087 92.8725C234.93 93.0063 234.74 93.115 234.515 93.1989C234.293 93.2805 234.063 93.3213 233.825 93.3213C233.458 93.3213 233.144 93.2442 232.884 93.0901C232.623 92.9337 232.424 92.715 232.285 92.434C232.147 92.153 232.078 91.8255 232.078 91.4515C232.078 91.0866 232.147 90.7614 232.285 90.4758C232.426 90.188 232.628 89.9613 232.89 89.7959C233.153 89.6282 233.47 89.5443 233.839 89.5443C234.084 89.5443 234.309 89.5806 234.515 89.6531C234.722 89.7256 234.911 89.8333 235.083 89.9761L234.733 90.4554C234.593 90.358 234.449 90.2843 234.301 90.2344C234.156 90.1823 234.007 90.1563 233.853 90.1563C233.569 90.1563 233.337 90.2605 233.156 90.469C232.977 90.6775 232.887 91.005 232.887 91.4515C232.887 91.7507 232.928 91.992 233.009 92.1756C233.093 92.3569 233.208 92.4895 233.353 92.5734C233.498 92.655 233.663 92.6958 233.849 92.6958ZM236.23 93.2295V92.6856H236.757V90.1801H236.23V89.6395H237.338L237.477 90.4724C237.611 90.171 237.776 89.9421 237.974 89.7857C238.173 89.6271 238.429 89.5477 238.742 89.5477C238.848 89.5477 238.944 89.5568 239.028 89.5749C239.114 89.5908 239.199 89.6123 239.282 89.6395L239.055 90.2922C238.982 90.2718 238.914 90.2571 238.851 90.248C238.787 90.2367 238.717 90.231 238.64 90.231C238.379 90.231 238.154 90.3285 237.963 90.5234C237.775 90.7183 237.627 90.9948 237.518 91.3529V92.6856H238.242V93.2295H236.23ZM238.609 90.962V90.0781L238.705 89.6395H239.282L239.153 90.962H238.609ZM240.905 91.6793C240.921 91.924 240.973 92.1246 241.061 92.281C241.15 92.4351 241.265 92.5484 241.408 92.621C241.553 92.6935 241.712 92.7298 241.884 92.7298C242.061 92.7298 242.224 92.7026 242.373 92.6482C242.523 92.5938 242.674 92.5167 242.826 92.417L243.155 92.8725C242.988 93.0085 242.792 93.1173 242.567 93.1989C242.343 93.2805 242.103 93.3213 241.846 93.3213C241.475 93.3213 241.16 93.242 240.901 93.0833C240.645 92.9247 240.45 92.7037 240.317 92.4204C240.183 92.1371 240.116 91.8096 240.116 91.4379C240.116 91.0775 240.182 90.7557 240.313 90.4724C240.445 90.1869 240.633 89.9613 240.878 89.7959C241.122 89.6282 241.415 89.5443 241.755 89.5443C242.074 89.5443 242.349 89.6169 242.577 89.7619C242.809 89.907 242.986 90.1132 243.111 90.3806C243.238 90.6458 243.302 90.9654 243.302 91.3393C243.302 91.4005 243.299 91.4617 243.295 91.5229C243.292 91.5818 243.289 91.6339 243.285 91.6793H240.905ZM241.762 90.1087C241.524 90.1087 241.326 90.1937 241.17 90.3636C241.016 90.5336 240.926 90.7988 240.901 91.1591H242.564C242.557 90.8214 242.484 90.5619 242.346 90.3806C242.21 90.1993 242.015 90.1087 241.762 90.1087ZM247.348 93.0391C247.216 93.123 247.059 93.191 246.875 93.2431C246.692 93.2952 246.5 93.3213 246.301 93.3213C245.884 93.3213 245.566 93.2136 245.349 92.9983C245.134 92.7807 245.026 92.4952 245.026 92.1416V90.1937H244.227V89.6395H245.026V88.8372L245.787 88.7454V89.6395H246.998L246.913 90.1937H245.787V92.1348C245.787 92.3275 245.835 92.4714 245.93 92.5666C246.028 92.6595 246.186 92.706 246.406 92.706C246.538 92.706 246.659 92.6901 246.77 92.6584C246.881 92.6266 246.982 92.5858 247.072 92.536L247.348 93.0391ZM250.721 87.6678V94.0318H248.868V93.4301H250.004V88.2763H248.868V87.6678H250.721ZM259.602 89.184L259.806 89.8163C259.663 89.8639 259.506 89.8956 259.334 89.9115C259.164 89.9274 258.973 89.9353 258.762 89.9353C258.978 90.0305 259.14 90.1529 259.249 90.3024C259.357 90.4498 259.412 90.6311 259.412 90.8464C259.412 91.0798 259.355 91.2883 259.242 91.4719C259.128 91.6555 258.966 91.7994 258.756 91.9037C258.545 92.0079 258.292 92.06 257.998 92.06C257.893 92.06 257.803 92.0555 257.726 92.0464C257.651 92.0374 257.577 92.0226 257.505 92.0022C257.459 92.034 257.421 92.077 257.389 92.1314C257.36 92.1836 257.345 92.2391 257.345 92.298C257.345 92.3705 257.374 92.434 257.433 92.4884C257.494 92.5405 257.615 92.5666 257.794 92.5666H258.419C258.675 92.5666 258.901 92.6108 259.096 92.6992C259.293 92.7853 259.447 92.9043 259.558 93.0561C259.671 93.2057 259.728 93.3757 259.728 93.5661C259.728 93.9241 259.574 94.2018 259.266 94.399C258.957 94.5961 258.513 94.6947 257.933 94.6947C257.523 94.6947 257.201 94.6528 256.967 94.5689C256.734 94.4851 256.57 94.3604 256.475 94.195C256.379 94.0295 256.332 93.8267 256.332 93.5864H257.015C257.015 93.7111 257.039 93.8142 257.086 93.8958C257.136 93.9774 257.228 94.0386 257.362 94.0794C257.496 94.1202 257.688 94.1406 257.94 94.1406C258.191 94.1406 258.391 94.1191 258.538 94.076C258.688 94.0352 258.795 93.9751 258.861 93.8958C258.929 93.8188 258.963 93.7258 258.963 93.617C258.963 93.472 258.9 93.3598 258.773 93.2805C258.646 93.2012 258.476 93.1615 258.263 93.1615H257.647C257.307 93.1615 257.058 93.0924 256.899 92.9541C256.743 92.8159 256.665 92.655 256.665 92.4714C256.665 92.349 256.699 92.2311 256.767 92.1178C256.837 92.0045 256.937 91.9059 257.066 91.8221C256.851 91.7087 256.693 91.5716 256.594 91.4107C256.496 91.2475 256.447 91.0504 256.447 90.8192C256.447 90.5653 256.511 90.3432 256.638 90.1529C256.765 89.9625 256.94 89.814 257.165 89.7075C257.391 89.601 257.652 89.5477 257.947 89.5477C258.234 89.5477 258.475 89.533 258.667 89.5035C258.86 89.4718 259.028 89.4276 259.17 89.371C259.315 89.3143 259.459 89.252 259.602 89.184ZM257.953 90.0713C257.711 90.0713 257.528 90.1404 257.406 90.2786C257.284 90.4146 257.222 90.5925 257.222 90.8124C257.222 91.039 257.285 91.2215 257.409 91.3597C257.536 91.4957 257.721 91.5637 257.964 91.5637C258.188 91.5637 258.359 91.498 258.477 91.3665C258.597 91.2351 258.657 91.0481 258.657 90.8056C258.657 90.5608 258.598 90.3772 258.48 90.2548C258.362 90.1325 258.187 90.0713 257.953 90.0713ZM260.691 93.2295V92.6856H261.218V90.1801H260.691V89.6395H261.799L261.938 90.4724C262.072 90.171 262.238 89.9421 262.435 89.7857C262.634 89.6271 262.89 89.5477 263.203 89.5477C263.31 89.5477 263.405 89.5568 263.489 89.5749C263.575 89.5908 263.66 89.6123 263.744 89.6395L263.516 90.2922C263.443 90.2718 263.375 90.2571 263.312 90.248C263.248 90.2367 263.178 90.231 263.101 90.231C262.84 90.231 262.615 90.3285 262.425 90.5234C262.236 90.7183 262.088 90.9948 261.979 91.3529V92.6856H262.703V93.2295H260.691ZM263.07 90.962V90.0781L263.166 89.6395H263.744L263.614 90.962H263.07ZM267.477 92.349C267.477 92.4895 267.499 92.5926 267.542 92.6584C267.585 92.7218 267.654 92.7694 267.749 92.8011L267.579 93.3179C267.402 93.2975 267.25 93.2488 267.124 93.1717C266.997 93.0946 266.9 92.9779 266.835 92.8215C266.703 92.987 266.537 93.1116 266.335 93.1955C266.133 93.2794 265.918 93.3213 265.689 93.3213C265.326 93.3213 265.038 93.2193 264.825 93.0153C264.615 92.8091 264.509 92.5394 264.509 92.2062C264.509 91.8277 264.657 91.5365 264.951 91.3325C265.246 91.1285 265.667 91.0266 266.216 91.0266H266.729V90.792C266.729 90.5608 266.659 90.3942 266.518 90.2922C266.38 90.1903 266.184 90.1393 265.93 90.1393C265.812 90.1393 265.67 90.1551 265.502 90.1869C265.334 90.2163 265.159 90.2628 264.975 90.3262L264.788 89.7891C265.012 89.7052 265.232 89.6441 265.448 89.6055C265.663 89.5647 265.862 89.5443 266.046 89.5443C266.526 89.5443 266.884 89.6509 267.12 89.8639C267.358 90.0769 267.477 90.3716 267.477 90.7478V92.349ZM265.92 92.7603C266.074 92.7603 266.225 92.7196 266.372 92.638C266.52 92.5564 266.639 92.4419 266.729 92.2946V91.5025H266.308C265.95 91.5025 265.693 91.5626 265.539 91.6827C265.385 91.8005 265.308 91.9637 265.308 92.1722C265.308 92.3626 265.359 92.5088 265.461 92.6108C265.565 92.7105 265.718 92.7603 265.92 92.7603ZM268.81 93.2295V89.6395H269.467L269.524 90.1053C269.674 89.9217 269.851 89.7823 270.055 89.6871C270.259 89.5919 270.468 89.5443 270.684 89.5443C271.019 89.5443 271.27 89.6384 271.435 89.8265C271.603 90.0123 271.687 90.2741 271.687 90.6118V93.2295H270.925V90.9892C270.925 90.7807 270.913 90.6129 270.888 90.486C270.863 90.3591 270.813 90.2673 270.738 90.2107C270.666 90.154 270.557 90.1257 270.412 90.1257C270.296 90.1257 270.186 90.1506 270.082 90.2005C269.978 90.2503 269.883 90.316 269.796 90.3976C269.71 90.477 269.635 90.5619 269.572 90.6526V93.2295H268.81ZM275.886 93.0391C275.754 93.123 275.597 93.191 275.413 93.2431C275.23 93.2952 275.038 93.3213 274.839 93.3213C274.422 93.3213 274.104 93.2136 273.887 92.9983C273.672 92.7807 273.564 92.4952 273.564 92.1416V90.1937H272.765V89.6395H273.564V88.8372L274.325 88.7454V89.6395H275.536L275.451 90.1937H274.325V92.1348C274.325 92.3275 274.373 92.4714 274.468 92.5666C274.566 92.6595 274.724 92.706 274.944 92.706C275.076 92.706 275.197 92.6901 275.308 92.6584C275.419 92.6266 275.52 92.5858 275.61 92.536L275.886 93.0391ZM276.699 94.4737V93.8448H280.099V94.4737H276.699ZM284.039 93.0391C283.908 93.123 283.751 93.191 283.567 93.2431C283.383 93.2952 283.192 93.3213 282.992 93.3213C282.575 93.3213 282.258 93.2136 282.041 92.9983C281.825 92.7807 281.718 92.4952 281.718 92.1416V90.1937H280.919V89.6395H281.718V88.8372L282.479 88.7454V89.6395H283.689L283.604 90.1937H282.479V92.1348C282.479 92.3275 282.527 92.4714 282.622 92.5666C282.719 92.6595 282.878 92.706 283.098 92.706C283.229 92.706 283.351 92.6901 283.462 92.6584C283.573 92.6266 283.673 92.5858 283.764 92.536L284.039 93.0391ZM288.259 89.6395L287.022 93.2431C286.929 93.5151 286.81 93.7542 286.665 93.9604C286.52 94.1689 286.334 94.3366 286.107 94.4635C285.881 94.5905 285.6 94.6687 285.264 94.6981L285.166 94.127C285.408 94.0885 285.601 94.0318 285.743 93.957C285.888 93.8845 286.003 93.7882 286.087 93.668C286.173 93.5479 286.249 93.4017 286.315 93.2295H286.056L284.846 89.6395H285.655L286.559 92.6992L287.477 89.6395H288.259ZM290.946 89.5443C291.263 89.5443 291.517 89.6225 291.707 89.7789C291.897 89.933 292.036 90.1517 292.122 90.435C292.208 90.7161 292.251 91.047 292.251 91.4277C292.251 91.7926 292.199 92.1178 292.095 92.4034C291.99 92.689 291.835 92.9133 291.629 93.0765C291.425 93.2397 291.171 93.3213 290.867 93.3213C290.491 93.3213 290.187 93.1887 289.956 92.9235V94.6097L289.195 94.6947V89.6395H289.858L289.905 90.1019C290.041 89.916 290.199 89.7766 290.378 89.6837C290.559 89.5908 290.748 89.5443 290.946 89.5443ZM290.735 90.1325C290.565 90.1325 290.415 90.1835 290.286 90.2854C290.157 90.3874 290.047 90.5076 289.956 90.6458V92.3252C290.042 92.4544 290.144 92.5541 290.262 92.6244C290.382 92.6924 290.517 92.7264 290.667 92.7264C290.923 92.7264 291.118 92.6232 291.252 92.417C291.385 92.2107 291.452 91.8821 291.452 91.4311C291.452 91.1251 291.425 90.877 291.371 90.6866C291.318 90.494 291.239 90.3534 291.133 90.265C291.028 90.1767 290.896 90.1325 290.735 90.1325ZM293.904 91.6793C293.92 91.924 293.972 92.1246 294.06 92.281C294.149 92.4351 294.264 92.5484 294.407 92.621C294.552 92.6935 294.711 92.7298 294.883 92.7298C295.06 92.7298 295.223 92.7026 295.373 92.6482C295.522 92.5938 295.673 92.5167 295.825 92.417L296.154 92.8725C295.987 93.0085 295.791 93.1173 295.566 93.1989C295.342 93.2805 295.102 93.3213 294.846 93.3213C294.474 93.3213 294.159 93.242 293.901 93.0833C293.644 92.9247 293.45 92.7037 293.316 92.4204C293.182 92.1371 293.115 91.8096 293.115 91.4379C293.115 91.0775 293.181 90.7557 293.312 90.4724C293.444 90.1869 293.632 89.9613 293.877 89.7959C294.122 89.6282 294.414 89.5443 294.754 89.5443C295.073 89.5443 295.348 89.6169 295.577 89.7619C295.808 89.907 295.986 90.1132 296.11 90.3806C296.237 90.6458 296.301 90.9654 296.301 91.3393C296.301 91.4005 296.298 91.4617 296.294 91.5229C296.292 91.5818 296.288 91.6339 296.284 91.6793H293.904ZM294.761 90.1087C294.523 90.1087 294.326 90.1937 294.169 90.3636C294.015 90.5336 293.925 90.7988 293.901 91.1591H295.563C295.556 90.8214 295.484 90.5619 295.345 90.3806C295.209 90.1993 295.014 90.1087 294.761 90.1087ZM303.156 92.6958C303.323 92.6958 303.48 92.6674 303.625 92.6108C303.77 92.5518 303.908 92.4759 304.04 92.383L304.393 92.8725C304.237 93.0063 304.046 93.115 303.822 93.1989C303.6 93.2805 303.37 93.3213 303.132 93.3213C302.765 93.3213 302.451 93.2442 302.19 93.0901C301.93 92.9337 301.73 92.715 301.592 92.434C301.454 92.153 301.385 91.8255 301.385 91.4515C301.385 91.0866 301.454 90.7614 301.592 90.4758C301.732 90.188 301.934 89.9613 302.197 89.7959C302.46 89.6282 302.776 89.5443 303.146 89.5443C303.39 89.5443 303.616 89.5806 303.822 89.6531C304.028 89.7256 304.218 89.8333 304.39 89.9761L304.04 90.4554C303.899 90.358 303.755 90.2843 303.608 90.2344C303.463 90.1823 303.313 90.1563 303.159 90.1563C302.876 90.1563 302.644 90.2605 302.462 90.469C302.283 90.6775 302.194 91.005 302.194 91.4515C302.194 91.7507 302.234 91.992 302.316 92.1756C302.4 92.3569 302.514 92.4895 302.659 92.5734C302.804 92.655 302.97 92.6958 303.156 92.6958ZM307.08 88.1981V92.2504C307.08 92.4159 307.129 92.5337 307.229 92.604C307.331 92.672 307.463 92.706 307.624 92.706C307.728 92.706 307.826 92.6946 307.919 92.672C308.012 92.6493 308.103 92.621 308.191 92.587L308.385 93.1173C308.279 93.1717 308.147 93.2193 307.991 93.2601C307.837 93.3009 307.66 93.3213 307.46 93.3213C307.1 93.3213 306.819 93.2204 306.617 93.0187C306.418 92.8147 306.318 92.536 306.318 92.1824V88.759H305.234V88.1981H307.08ZM311.541 89.6395V92.672H312.516V93.2295H309.705V92.672H310.779V90.1971H309.739V89.6395H311.541ZM311.01 87.8819C311.16 87.8819 311.28 87.9273 311.371 88.0179C311.464 88.1086 311.51 88.2219 311.51 88.3579C311.51 88.4939 311.464 88.6083 311.371 88.7012C311.28 88.7942 311.16 88.8406 311.01 88.8406C310.865 88.8406 310.746 88.7942 310.653 88.7012C310.56 88.6083 310.514 88.4939 310.514 88.3579C310.514 88.2219 310.56 88.1086 310.653 88.0179C310.746 87.9273 310.865 87.8819 311.01 87.8819ZM314.288 91.6793C314.304 91.924 314.356 92.1246 314.445 92.281C314.533 92.4351 314.649 92.5484 314.791 92.621C314.936 92.6935 315.095 92.7298 315.267 92.7298C315.444 92.7298 315.607 92.7026 315.757 92.6482C315.906 92.5938 316.057 92.5167 316.209 92.417L316.539 92.8725C316.371 93.0085 316.175 93.1173 315.951 93.1989C315.726 93.2805 315.486 93.3213 315.23 93.3213C314.858 93.3213 314.543 93.242 314.285 93.0833C314.029 92.9247 313.834 92.7037 313.7 92.4204C313.566 92.1371 313.5 91.8096 313.5 91.4379C313.5 91.0775 313.565 90.7557 313.697 90.4724C313.828 90.1869 314.016 89.9613 314.261 89.7959C314.506 89.6282 314.798 89.5443 315.138 89.5443C315.458 89.5443 315.732 89.6169 315.961 89.7619C316.192 89.907 316.37 90.1132 316.495 90.3806C316.621 90.6458 316.685 90.9654 316.685 91.3393C316.685 91.4005 316.683 91.4617 316.678 91.5229C316.676 91.5818 316.672 91.6339 316.668 91.6793H314.288ZM315.145 90.1087C314.907 90.1087 314.71 90.1937 314.553 90.3636C314.399 90.5336 314.31 90.7988 314.285 91.1591H315.947C315.94 90.8214 315.868 90.5619 315.73 90.3806C315.594 90.1993 315.399 90.1087 315.145 90.1087ZM317.733 93.2295V89.6395H318.389L318.447 90.1053C318.596 89.9217 318.773 89.7823 318.977 89.6871C319.181 89.5919 319.391 89.5443 319.606 89.5443C319.941 89.5443 320.192 89.6384 320.357 89.8265C320.525 90.0123 320.609 90.2741 320.609 90.6118V93.2295H319.847V90.9892C319.847 90.7807 319.835 90.6129 319.81 90.486C319.785 90.3591 319.735 90.2673 319.66 90.2107C319.588 90.154 319.479 90.1257 319.334 90.1257C319.218 90.1257 319.108 90.1506 319.004 90.2005C318.9 90.2503 318.805 90.316 318.719 90.3976C318.633 90.477 318.558 90.5619 318.494 90.6526V93.2295H317.733ZM324.808 93.0391C324.677 93.123 324.519 93.191 324.336 93.2431C324.152 93.2952 323.96 93.3213 323.761 93.3213C323.344 93.3213 323.027 93.2136 322.809 92.9983C322.594 92.7807 322.486 92.4952 322.486 92.1416V90.1937H321.687V89.6395H322.486V88.8372L323.248 88.7454V89.6395H324.458L324.373 90.1937H323.248V92.1348C323.248 92.3275 323.295 92.4714 323.39 92.5666C323.488 92.6595 323.647 92.706 323.866 92.706C323.998 92.706 324.119 92.6901 324.23 92.6584C324.341 92.6266 324.442 92.5858 324.533 92.536L324.808 93.0391ZM325.621 94.4737V93.8448H329.021V94.4737H325.621ZM331.694 92.6958C331.861 92.6958 332.018 92.6674 332.163 92.6108C332.308 92.5518 332.446 92.4759 332.578 92.383L332.931 92.8725C332.775 93.0063 332.584 93.115 332.36 93.1989C332.138 93.2805 331.908 93.3213 331.67 93.3213C331.303 93.3213 330.989 93.2442 330.728 93.0901C330.468 92.9337 330.268 92.715 330.13 92.434C329.992 92.153 329.923 91.8255 329.923 91.4515C329.923 91.0866 329.992 90.7614 330.13 90.4758C330.27 90.188 330.472 89.9613 330.735 89.7959C330.998 89.6282 331.314 89.5443 331.684 89.5443C331.928 89.5443 332.154 89.5806 332.36 89.6531C332.566 89.7256 332.756 89.8333 332.928 89.9761L332.578 90.4554C332.437 90.358 332.293 90.2843 332.146 90.2344C332.001 90.1823 331.851 90.1563 331.697 90.1563C331.414 90.1563 331.182 90.2605 331 90.469C330.821 90.6775 330.732 91.005 330.732 91.4515C330.732 91.7507 330.772 91.992 330.854 92.1756C330.938 92.3569 331.052 92.4895 331.197 92.5734C331.342 92.655 331.508 92.6958 331.694 92.6958ZM334.074 93.2295V92.6856H334.601V90.1801H334.074V89.6395H335.182L335.322 90.4724C335.456 90.171 335.621 89.9421 335.818 89.7857C336.018 89.6271 336.274 89.5477 336.587 89.5477C336.693 89.5477 336.788 89.5568 336.872 89.5749C336.958 89.5908 337.043 89.6123 337.127 89.6395L336.899 90.2922C336.827 90.2718 336.759 90.2571 336.695 90.248C336.632 90.2367 336.562 90.231 336.485 90.231C336.224 90.231 335.998 90.3285 335.808 90.5234C335.62 90.7183 335.471 90.9948 335.363 91.3529V92.6856H336.087V93.2295H334.074ZM336.454 90.962V90.0781L336.549 89.6395H337.127L336.998 90.962H336.454ZM338.749 91.6793C338.765 91.924 338.817 92.1246 338.906 92.281C338.994 92.4351 339.11 92.5484 339.253 92.621C339.398 92.6935 339.556 92.7298 339.728 92.7298C339.905 92.7298 340.068 92.7026 340.218 92.6482C340.368 92.5938 340.518 92.5167 340.67 92.417L341 92.8725C340.832 93.0085 340.636 93.1173 340.412 93.1989C340.187 93.2805 339.947 93.3213 339.691 93.3213C339.319 93.3213 339.004 93.242 338.746 93.0833C338.49 92.9247 338.295 92.7037 338.161 92.4204C338.028 92.1371 337.961 91.8096 337.961 91.4379C337.961 91.0775 338.026 90.7557 338.158 90.4724C338.289 90.1869 338.477 89.9613 338.722 89.7959C338.967 89.6282 339.259 89.5443 339.599 89.5443C339.919 89.5443 340.193 89.6169 340.422 89.7619C340.653 89.907 340.831 90.1132 340.956 90.3806C341.083 90.6458 341.146 90.9654 341.146 91.3393C341.146 91.4005 341.144 91.4617 341.139 91.5229C341.137 91.5818 341.134 91.6339 341.129 91.6793H338.749ZM339.606 90.1087C339.368 90.1087 339.171 90.1937 339.015 90.3636C338.86 90.5336 338.771 90.7988 338.746 91.1591H340.408C340.402 90.8214 340.329 90.5619 340.191 90.3806C340.055 90.1993 339.86 90.1087 339.606 90.1087ZM344.302 88.1131L345.063 88.1981V93.2295H344.393L344.339 92.7875C344.217 92.9575 344.071 93.089 343.901 93.1819C343.731 93.2748 343.54 93.3213 343.329 93.3213C343.021 93.3213 342.767 93.2431 342.568 93.0867C342.368 92.9281 342.22 92.7071 342.123 92.4238C342.027 92.1382 341.98 91.8085 341.98 91.4345C341.98 91.0696 342.036 90.7455 342.15 90.4622C342.263 90.1767 342.425 89.9523 342.636 89.7891C342.847 89.6259 343.1 89.5443 343.397 89.5443C343.586 89.5443 343.754 89.5783 343.904 89.6463C344.054 89.712 344.186 89.8084 344.302 89.9353V88.1131ZM343.598 90.1291C343.342 90.1291 343.142 90.2356 343 90.4486C342.857 90.6594 342.785 90.988 342.785 91.4345C342.785 91.7405 342.815 91.9898 342.874 92.1824C342.933 92.3728 343.018 92.5133 343.129 92.604C343.24 92.6924 343.374 92.7366 343.53 92.7366C343.702 92.7366 343.852 92.6867 343.979 92.587C344.106 92.4872 344.213 92.3671 344.302 92.2266V90.5268C344.213 90.3999 344.11 90.3024 343.992 90.2344C343.874 90.1642 343.743 90.1291 343.598 90.1291ZM346.903 91.6793C346.919 91.924 346.971 92.1246 347.059 92.281C347.148 92.4351 347.263 92.5484 347.406 92.621C347.551 92.6935 347.71 92.7298 347.882 92.7298C348.059 92.7298 348.222 92.7026 348.372 92.6482C348.521 92.5938 348.672 92.5167 348.824 92.417L349.154 92.8725C348.986 93.0085 348.79 93.1173 348.566 93.1989C348.341 93.2805 348.101 93.3213 347.845 93.3213C347.473 93.3213 347.158 93.242 346.9 93.0833C346.644 92.9247 346.449 92.7037 346.315 92.4204C346.181 92.1371 346.114 91.8096 346.114 91.4379C346.114 91.0775 346.18 90.7557 346.312 90.4724C346.443 90.1869 346.631 89.9613 346.876 89.7959C347.121 89.6282 347.413 89.5443 347.753 89.5443C348.073 89.5443 348.347 89.6169 348.576 89.7619C348.807 89.907 348.985 90.1132 349.109 90.3806C349.236 90.6458 349.3 90.9654 349.3 91.3393C349.3 91.4005 349.298 91.4617 349.293 91.5229C349.291 91.5818 349.287 91.6339 349.283 91.6793H346.903ZM347.76 90.1087C347.522 90.1087 347.325 90.1937 347.168 90.3636C347.014 90.5336 346.925 90.7988 346.9 91.1591H348.562C348.555 90.8214 348.483 90.5619 348.345 90.3806C348.209 90.1993 348.014 90.1087 347.76 90.1087ZM350.348 93.2295V89.6395H351.004L351.062 90.1053C351.211 89.9217 351.388 89.7823 351.592 89.6871C351.796 89.5919 352.005 89.5443 352.221 89.5443C352.556 89.5443 352.807 89.6384 352.972 89.8265C353.14 90.0123 353.224 90.2741 353.224 90.6118V93.2295H352.462V90.9892C352.462 90.7807 352.45 90.6129 352.425 90.486C352.4 90.3591 352.35 90.2673 352.275 90.2107C352.203 90.154 352.094 90.1257 351.949 90.1257C351.833 90.1257 351.723 90.1506 351.619 90.2005C351.515 90.2503 351.42 90.316 351.334 90.3976C351.247 90.477 351.173 90.5619 351.109 90.6526V93.2295H350.348ZM357.423 93.0391C357.291 93.123 357.134 93.191 356.95 93.2431C356.767 93.2952 356.575 93.3213 356.376 93.3213C355.959 93.3213 355.642 93.2136 355.424 92.9983C355.209 92.7807 355.101 92.4952 355.101 92.1416V90.1937H354.302V89.6395H355.101V88.8372L355.863 88.7454V89.6395H357.073L356.988 90.1937H355.863V92.1348C355.863 92.3275 355.91 92.4714 356.005 92.5666C356.103 92.6595 356.261 92.706 356.481 92.706C356.613 92.706 356.734 92.6901 356.845 92.6584C356.956 92.6266 357.057 92.5858 357.148 92.536L357.423 93.0391ZM360.463 89.6395V92.672H361.439V93.2295H358.627V92.672H359.701V90.1971H358.661V89.6395H360.463ZM359.933 87.8819C360.082 87.8819 360.202 87.9273 360.293 88.0179C360.386 88.1086 360.432 88.2219 360.432 88.3579C360.432 88.4939 360.386 88.6083 360.293 88.7012C360.202 88.7942 360.082 88.8406 359.933 88.8406C359.788 88.8406 359.669 88.7942 359.576 88.7012C359.483 88.6083 359.436 88.4939 359.436 88.3579C359.436 88.2219 359.483 88.1086 359.576 88.0179C359.669 87.9273 359.788 87.8819 359.933 87.8819ZM365.322 92.349C365.322 92.4895 365.343 92.5926 365.386 92.6584C365.429 92.7218 365.498 92.7694 365.594 92.8011L365.424 93.3179C365.247 93.2975 365.095 93.2488 364.968 93.1717C364.841 93.0946 364.745 92.9779 364.679 92.8215C364.548 92.987 364.381 93.1116 364.179 93.1955C363.978 93.2794 363.762 93.3213 363.533 93.3213C363.171 93.3213 362.883 93.2193 362.67 93.0153C362.459 92.8091 362.354 92.5394 362.354 92.2062C362.354 91.8277 362.501 91.5365 362.796 91.3325C363.09 91.1285 363.512 91.0266 364.06 91.0266H364.574V90.792C364.574 90.5608 364.504 90.3942 364.363 90.2922C364.225 90.1903 364.029 90.1393 363.775 90.1393C363.657 90.1393 363.514 90.1551 363.347 90.1869C363.179 90.2163 363.003 90.2628 362.82 90.3262L362.633 89.7891C362.857 89.7052 363.077 89.6441 363.292 89.6055C363.507 89.5647 363.707 89.5443 363.89 89.5443C364.371 89.5443 364.729 89.6509 364.965 89.8639C365.203 90.0769 365.322 90.3716 365.322 90.7478V92.349ZM363.765 92.7603C363.919 92.7603 364.07 92.7196 364.217 92.638C364.364 92.5564 364.483 92.4419 364.574 92.2946V91.5025H364.152C363.794 91.5025 363.538 91.5626 363.384 91.6827C363.23 91.8005 363.153 91.9637 363.153 92.1722C363.153 92.3626 363.204 92.5088 363.306 92.6108C363.41 92.7105 363.563 92.7603 363.765 92.7603ZM368.232 88.1981V92.2504C368.232 92.4159 368.282 92.5337 368.382 92.604C368.484 92.672 368.615 92.706 368.776 92.706C368.881 92.706 368.979 92.6946 369.072 92.672C369.165 92.6493 369.256 92.621 369.344 92.587L369.538 93.1173C369.431 93.1717 369.3 93.2193 369.144 93.2601C368.989 93.3009 368.813 93.3213 368.613 93.3213C368.253 93.3213 367.972 93.2204 367.77 93.0187C367.571 92.8147 367.471 92.536 367.471 92.1824V88.759H366.386V88.1981H368.232ZM372.037 92.7366C372.275 92.7366 372.465 92.6946 372.605 92.6108C372.746 92.5246 372.816 92.4068 372.816 92.2572C372.816 92.1598 372.795 92.077 372.755 92.009C372.714 91.9388 372.632 91.8753 372.51 91.8187C372.388 91.7597 372.202 91.6985 371.952 91.6351C371.717 91.5739 371.509 91.5014 371.33 91.4175C371.153 91.3337 371.016 91.2249 370.919 91.0911C370.821 90.9574 370.773 90.7852 370.773 90.5744C370.773 90.3682 370.831 90.188 370.946 90.0339C371.062 89.8798 371.227 89.7596 371.442 89.6735C371.66 89.5874 371.915 89.5443 372.207 89.5443C372.509 89.5443 372.772 89.584 372.996 89.6633C373.22 89.7426 373.412 89.8412 373.571 89.9591L373.251 90.4384C373.111 90.3455 372.956 90.2696 372.789 90.2107C372.623 90.1517 372.436 90.1223 372.228 90.1223C371.985 90.1223 371.811 90.1585 371.704 90.231C371.6 90.3036 371.548 90.3999 371.548 90.52C371.548 90.6084 371.574 90.6832 371.626 90.7444C371.68 90.8033 371.773 90.8588 371.905 90.911C372.036 90.9608 372.222 91.0198 372.462 91.0877C372.696 91.1512 372.899 91.226 373.071 91.3121C373.245 91.3982 373.38 91.5127 373.475 91.6555C373.573 91.796 373.622 91.9796 373.622 92.2062C373.622 92.4646 373.547 92.6765 373.397 92.8419C373.25 93.0051 373.055 93.1264 372.812 93.2057C372.572 93.2828 372.314 93.3213 372.037 93.3213C371.704 93.3213 371.416 93.2737 371.174 93.1785C370.931 93.081 370.727 92.9598 370.562 92.8147L370.967 92.3524C371.107 92.4657 371.268 92.5586 371.449 92.6312C371.631 92.7014 371.827 92.7366 372.037 92.7366Z" fill="white"/>
<path d="M61.1865 71.9536L60.5814 71.6816L63.4711 65.7086L64.0694 65.9907L61.1865 71.9536ZM73.1519 80.4141V79.7886H75.96V80.4141H73.1519ZM146.801 82.9536L146.195 82.6816L149.085 76.7086L149.683 76.9907L146.801 82.9536ZM154.689 80.6861V80.0606H157.497V80.6861H154.689ZM170.997 80.6861V80.0606H173.805V80.6861H170.997ZM191.381 80.6861V80.0606H194.189V80.6861H191.381ZM84.1171 90.1325V90.7546H81.3023V90.1325H84.1171ZM84.1171 91.4753V92.0974H81.3023V91.4753H84.1171ZM143.72 88.4497C143.951 88.4497 144.163 88.4859 144.355 88.5584C144.548 88.6287 144.739 88.7647 144.927 88.9664L144.495 89.3506C144.384 89.2282 144.273 89.1386 144.162 89.082C144.053 89.0231 143.92 88.9936 143.764 88.9936C143.553 88.9936 143.395 89.0525 143.288 89.1704C143.181 89.286 143.128 89.4378 143.128 89.6259C143.128 89.7551 143.161 89.8752 143.227 89.9863C143.293 90.0951 143.382 90.1823 143.495 90.248C143.611 90.3115 143.741 90.3432 143.886 90.3432H145.732V90.8838H145.185V92.706C145.108 92.7966 145.005 92.8895 144.876 92.9847C144.749 93.0799 144.589 93.1604 144.396 93.2261C144.206 93.2896 143.978 93.3213 143.713 93.3213C143.359 93.3213 143.066 93.2544 142.832 93.1207C142.601 92.987 142.429 92.8125 142.316 92.5972C142.202 92.3796 142.146 92.1462 142.146 91.8969C142.146 91.5365 142.238 91.2475 142.421 91.03C142.607 90.8124 142.866 90.6673 143.2 90.5948V90.571C143.005 90.5234 142.847 90.452 142.727 90.3568C142.609 90.2594 142.523 90.1438 142.469 90.0101C142.414 89.8764 142.387 89.7313 142.387 89.5749C142.387 89.3687 142.443 89.1806 142.554 89.0106C142.665 88.8406 142.82 88.7046 143.019 88.6026C143.219 88.5007 143.452 88.4497 143.72 88.4497ZM144.488 90.8838H143.812C143.596 90.8838 143.421 90.9325 143.285 91.03C143.151 91.1274 143.051 91.2509 142.985 91.4005C142.922 91.5501 142.89 91.7019 142.89 91.8561C142.89 92.0147 142.921 92.1609 142.982 92.2946C143.043 92.4283 143.136 92.536 143.261 92.6176C143.388 92.6992 143.55 92.74 143.747 92.74C143.908 92.74 144.052 92.7139 144.179 92.6618C144.306 92.6096 144.409 92.5371 144.488 92.4442V90.8838ZM202.346 90.1325V90.7546H199.531V90.1325H202.346ZM202.346 91.4753V92.0974H199.531V91.4753H202.346ZM253.795 88.4497C254.026 88.4497 254.238 88.4859 254.431 88.5584C254.623 88.6287 254.814 88.7647 255.002 88.9664L254.57 89.3506C254.459 89.2282 254.348 89.1386 254.237 89.082C254.128 89.0231 253.995 88.9936 253.839 88.9936C253.628 88.9936 253.47 89.0525 253.363 89.1704C253.257 89.286 253.203 89.4378 253.203 89.6259C253.203 89.7551 253.236 89.8752 253.302 89.9863C253.368 90.0951 253.457 90.1823 253.571 90.248C253.686 90.3115 253.816 90.3432 253.961 90.3432H255.807V90.8838H255.26V92.706C255.183 92.7966 255.08 92.8895 254.951 92.9847C254.824 93.0799 254.664 93.1604 254.471 93.2261C254.281 93.2896 254.053 93.3213 253.788 93.3213C253.435 93.3213 253.141 93.2544 252.908 93.1207C252.676 92.987 252.504 92.8125 252.391 92.5972C252.278 92.3796 252.221 92.1462 252.221 91.8969C252.221 91.5365 252.313 91.2475 252.496 91.03C252.682 90.8124 252.942 90.6673 253.275 90.5948V90.571C253.08 90.5234 252.922 90.452 252.802 90.3568C252.684 90.2594 252.598 90.1438 252.544 90.0101C252.489 89.8764 252.462 89.7313 252.462 89.5749C252.462 89.3687 252.518 89.1806 252.629 89.0106C252.74 88.8406 252.895 88.7046 253.095 88.6026C253.294 88.5007 253.527 88.4497 253.795 88.4497ZM254.563 90.8838H253.887C253.671 90.8838 253.496 90.9325 253.36 91.03C253.226 91.1274 253.126 91.2509 253.061 91.4005C252.997 91.5501 252.965 91.7019 252.965 91.8561C252.965 92.0147 252.996 92.1609 253.057 92.2946C253.118 92.4283 253.211 92.536 253.336 92.6176C253.463 92.6992 253.625 92.74 253.822 92.74C253.983 92.74 254.127 92.7139 254.254 92.6618C254.381 92.6096 254.484 92.5371 254.563 92.4442V90.8838ZM300.191 90.1325V90.7546H297.376V90.1325H300.191ZM300.191 91.4753V92.0974H297.376V91.4753H300.191Z" fill="#548DDB"/>
</g>
<defs>
<filter id="filter0_b_71_81" x="-20.6885" y="-1.68853" width="459.836" height="163.377" filterUnits="userSpaceOnUse" color-interpolation-filters="sRGB">
<feFlood flood-opacity="0" result="BackgroundImageFix"/>
<feGaussianBlur in="BackgroundImageFix" stdDeviation="24.3443"/>
<feComposite in2="SourceAlpha" operator="in" result="effect1_backgroundBlur_71_81"/>
<feBlend mode="normal" in="SourceGraphic" in2="effect1_backgroundBlur_71_81" result="shape"/>
</filter>
<linearGradient id="paint0_linear_71_81" x1="209" y1="26" x2="209" y2="230" gradientUnits="userSpaceOnUse">
<stop stop-color="#3D4C66" stop-opacity="0.866667"/>
<stop offset="1" stop-color="#3D4C66" stop-opacity="0"/>
</linearGradient>
<linearGradient id="paint1_linear_71_81" x1="209.23" y1="47" x2="209.23" y2="113" gradientUnits="userSpaceOnUse">
<stop stop-color="#3D4C66"/>
<stop offset="1" stop-color="#3D4C66" stop-opacity="0"/>
</linearGradient>
<clipPath id="clip0_71_81">
<path d="M0 5C0 2.23857 2.23858 0 5 0H413C415.761 0 418 2.23858 418 5V159H0V5Z" fill="white"/>
</clipPath>
</defs>
</svg>
