<svg width="1280" height="159" viewBox="0 0 1280 159" fill="none" xmlns="http://www.w3.org/2000/svg">
<g clip-path="url(#clip0_71_145)">
<path d="M0 5C0 2.23857 2.23858 0 5 0H1275C1277.76 0 1280 2.23858 1280 5V159H0V5Z" fill="#102240"/>
<rect x="-76.5" y="25.5" width="598" height="266" rx="9.5" fill="#091427" fill-opacity="0.37" stroke="url(#paint0_linear_71_145)"/>
<path d="M603 79L522 79" stroke="url(#paint1_linear_71_145)" stroke-width="2"/>
<path d="M759 79L677 79" stroke="url(#paint2_linear_71_145)" stroke-width="2"/>
<rect x="603" y="43" width="74" height="74" rx="16.087" fill="#195AB4"/>
<g clip-path="url(#clip1_71_145)">
<path fill-rule="evenodd" clip-rule="evenodd" d="M651.097 78.2326L651.665 75.4057H646.777V71.5439L643.345 72.0736V83.6084C643.345 87.5962 644.875 88.7828 649.048 88.7828H650.874L651.443 85.9808H649.294C647.394 85.9808 646.776 85.5019 646.776 83.3811V78.2326H651.097ZM627.52 70.2057V82.5992C627.52 87.193 629.594 89.1111 634.112 89.1111C638.802 89.1111 640.876 87.2435 640.876 82.6241V81.4381C640.876 77.0968 638.95 74.9763 634.753 74.9763C633.42 74.9763 631.963 75.2538 630.976 76.0361V69.6504L627.52 70.2057ZM634.235 77.7525C636.605 77.7525 637.445 78.7119 637.445 81.5638V82.6241C637.445 85.4003 636.605 86.3599 634.186 86.3599C631.766 86.3599 630.926 85.4003 630.926 82.5989V81.1603C630.926 78.6108 631.766 77.7525 634.235 77.7525ZM659.392 74.9763C654.874 74.9763 652.8 76.9197 652.8 81.362V82.0436C652.8 86.2586 654.603 88.303 658.849 88.303C660.207 88.303 661.565 88.0511 662.527 87.2682V87.7736C662.527 90.1462 661.515 90.9279 659.145 90.9279H657.726C656.915 90.9427 656.546 91.09 656.057 91.9092L656.055 91.908C651.984 98.4945 644.917 102.518 637.215 102.518C624.926 102.518 614.929 92.2977 614.929 79.7337C614.929 67.1701 624.926 56.9494 637.215 56.9494C645.847 56.9494 653.699 62.0601 657.373 70.0133H658.397C654.653 61.497 646.352 56 637.215 56C624.414 56 614 66.647 614 79.7337C614 92.8208 624.414 103.468 637.215 103.468C644.743 103.468 651.69 99.7777 656.021 93.6539H659.343C663.712 93.6539 665.959 91.963 665.959 87.647V81.135C665.959 76.8439 663.811 74.9763 659.392 74.9763ZM662.552 82.4726C662.552 84.8453 661.737 85.5771 659.392 85.5771C656.75 85.5771 656.232 84.6433 656.232 81.8924V81.4633C656.232 78.7368 656.701 77.7525 659.392 77.7525C662.034 77.7525 662.552 78.7118 662.552 81.4883V82.4726Z" fill="white"/>
</g>
<rect x="759" y="25" width="599" height="267" rx="10" fill="url(#paint3_linear_71_145)"/>
<rect x="362" y="43" width="139" height="73" rx="7" fill="#122442"/>
<rect x="779" y="43" width="338" height="73" rx="7" fill="#21314D"/>
<rect x="1132" y="43" width="338" height="73" rx="7" fill="#21314D"/>
<rect x="-86" y="132" width="587" height="73" rx="7" fill="#122442"/>
<rect x="208" y="43" width="139" height="73" rx="7" fill="#122442"/>
<rect x="-58" y="43" width="251" height="73" rx="7" fill="#122442"/>
</g>
<defs>
<linearGradient id="paint0_linear_71_145" x1="222.5" y1="25" x2="222.5" y2="292" gradientUnits="userSpaceOnUse">
<stop stop-color="#3D4C66" stop-opacity="0.866667"/>
<stop offset="1" stop-color="#3D4C66" stop-opacity="0"/>
</linearGradient>
<linearGradient id="paint1_linear_71_145" x1="522" y1="79.5" x2="603" y2="79.5" gradientUnits="userSpaceOnUse">
<stop stop-color="#195AB4"/>
<stop offset="1" stop-color="#195AB4"/>
</linearGradient>
<linearGradient id="paint2_linear_71_145" x1="677" y1="79.5" x2="759" y2="79.5" gradientUnits="userSpaceOnUse">
<stop stop-color="#195AB4"/>
<stop offset="1" stop-color="#195AB4"/>
</linearGradient>
<linearGradient id="paint3_linear_71_145" x1="1058.5" y1="25" x2="1058.5" y2="292" gradientUnits="userSpaceOnUse">
<stop stop-color="#0A1629"/>
<stop offset="1" stop-color="#0A1629"/>
</linearGradient>
<clipPath id="clip0_71_145">
<path d="M0 5C0 2.23857 2.23858 0 5 0H1275C1277.76 0 1280 2.23858 1280 5V159H0V5Z" fill="white"/>
</clipPath>
<clipPath id="clip1_71_145">
<rect width="52.2443" height="47.1884" fill="white" transform="translate(614 56)"/>
</clipPath>
</defs>
</svg>
