<svg width="418" height="159" viewBox="0 0 418 159" fill="none" xmlns="http://www.w3.org/2000/svg">
<path d="M0 5C0 2.23857 2.23858 0 5 0H413C415.761 0 418 2.23858 418 5V159H0V5Z" fill="#102240"/>
<rect x="166.5" y="36.5" width="86" height="86" rx="18.413" fill="#0A1629" stroke="url(#paint0_linear_71_124)"/>
<path fill-rule="evenodd" clip-rule="evenodd" d="M207.948 53.1103C206.525 53.4211 205.295 54.0454 204.19 55.0186C203.775 55.3838 201.25 57.9147 198.577 60.6426L193.719 65.6024L194.768 65.6675C196.453 65.7721 197.811 66.2048 198.995 67.0139C199.27 67.2016 201.478 69.364 203.903 71.8193C206.328 74.2746 208.413 76.3362 208.538 76.4007C208.825 76.5489 209.404 76.5512 209.783 76.4056C209.943 76.3438 212.082 74.2565 214.535 71.7671C217.316 68.945 219.218 67.0981 219.585 66.8619C220.865 66.0397 221.911 65.7432 223.804 65.6662L225.293 65.6056L220.174 60.3843C217.358 57.5127 214.774 54.9452 214.432 54.6789C213.696 54.1067 212.399 53.4529 211.527 53.2155C210.666 52.9808 208.794 52.9258 207.948 53.1103ZM188.018 71.42C186.219 73.2651 184.597 75.0007 184.414 75.277C183.946 75.9808 183.403 77.186 183.188 77.997C182.937 78.9422 182.937 81.0667 183.188 82.0119C183.403 82.8229 183.946 84.0281 184.414 84.7318C184.597 85.0082 186.219 86.7439 188.018 88.5889L191.29 91.9434L193.265 91.9418C195.493 91.9401 196.185 91.8248 197.203 91.2868C197.724 91.0111 198.624 90.153 202.347 86.3824C206.219 82.4604 206.943 81.7731 207.451 81.5365C208.202 81.1868 208.98 81.0613 209.727 81.1689C210.952 81.3452 210.985 81.3729 215.828 86.2683C219.025 89.501 220.519 90.9387 220.944 91.1927C222.03 91.8414 222.625 91.9434 225.326 91.9434H227.719L230.99 88.5889C234.302 85.1922 234.634 84.8031 235.215 83.6283C235.789 82.466 236 81.4934 236 80.0044C236 78.5155 235.789 77.5429 235.215 76.3806C234.634 75.2059 234.303 74.8169 230.985 71.4132L227.709 68.0519L225.064 68.0879C222.139 68.1278 221.972 68.1604 220.782 68.9227C220.475 69.1191 218.305 71.2282 215.778 73.7863C212.032 77.5787 211.225 78.3458 210.746 78.5688C209.7 79.0566 208.59 79.0364 207.458 78.5092C207.076 78.3314 205.919 77.2238 202.399 73.6678C197.472 68.6905 197.327 68.5694 195.906 68.2282C195.437 68.1156 194.661 68.0682 193.265 68.0671L191.29 68.0655L188.018 71.42ZM208.571 83.6088C208.428 83.6662 206.281 85.7674 203.799 88.278C200.573 91.5415 199.114 92.9457 198.682 93.2038C197.478 93.922 195.777 94.3734 194.275 94.3734H193.686L198.561 99.3497C201.242 102.087 203.786 104.634 204.213 105.01C205.077 105.771 206.459 106.521 207.533 106.812C208.463 107.064 210.553 107.063 211.475 106.81C212.395 106.558 213.681 105.914 214.432 105.33C214.774 105.064 217.358 102.496 220.174 99.6245L225.293 94.4033L223.804 94.35C222.485 94.3029 222.203 94.2583 221.335 93.9604C219.628 93.3744 219.492 93.2595 214.587 88.2892C212.105 85.7741 209.943 83.6657 209.783 83.6037C209.427 83.4664 208.919 83.4685 208.571 83.6088Z" fill="#195AFF" fill-opacity="0.956863"/>
<rect x="93.5" y="49.5" width="60" height="60" rx="12.7609" fill="#091427" fill-opacity="0.37" stroke="url(#paint1_linear_71_124)"/>
<rect x="47.5" y="63" width="33" height="33" rx="6.8913" fill="#091427" fill-opacity="0.37" stroke="url(#paint2_linear_71_124)"/>
<rect x="338.5" y="63" width="33" height="33" rx="6.8913" fill="#091427" fill-opacity="0.37" stroke="url(#paint3_linear_71_124)"/>
<rect x="265.5" y="49.5" width="60" height="60" rx="12.7609" fill="#091427" fill-opacity="0.37" stroke="url(#paint4_linear_71_124)"/>
<defs>
<linearGradient id="paint0_linear_71_124" x1="209.5" y1="36" x2="209.5" y2="123" gradientUnits="userSpaceOnUse">
<stop stop-color="#3D4C66"/>
<stop offset="1" stop-color="#3D4C66" stop-opacity="0"/>
</linearGradient>
<linearGradient id="paint1_linear_71_124" x1="123.5" y1="49" x2="123.5" y2="110" gradientUnits="userSpaceOnUse">
<stop stop-color="#3D4C66"/>
<stop offset="1" stop-color="#3D4C66" stop-opacity="0"/>
</linearGradient>
<linearGradient id="paint2_linear_71_124" x1="64" y1="62.5" x2="64" y2="96.5" gradientUnits="userSpaceOnUse">
<stop stop-color="#3D4C66"/>
<stop offset="1" stop-color="#3D4C66" stop-opacity="0"/>
</linearGradient>
<linearGradient id="paint3_linear_71_124" x1="355" y1="62.5" x2="355" y2="96.5" gradientUnits="userSpaceOnUse">
<stop stop-color="#3D4C66"/>
<stop offset="1" stop-color="#3D4C66" stop-opacity="0"/>
</linearGradient>
<linearGradient id="paint4_linear_71_124" x1="295.5" y1="49" x2="295.5" y2="110" gradientUnits="userSpaceOnUse">
<stop stop-color="#3D4C66"/>
<stop offset="1" stop-color="#3D4C66" stop-opacity="0"/>
</linearGradient>
</defs>
</svg>
