<svg width="418" height="159" viewBox="0 0 418 159" fill="none" xmlns="http://www.w3.org/2000/svg">
<g clip-path="url(#clip0_71_106)">
<path d="M0 5C0 2.23857 2.23858 0 5 0H413C415.761 0 418 2.23858 418 5V159H0V5Z" fill="#102240"/>
<rect opacity="0.37" x="81.5" y="26.5" width="255" height="203" rx="9.5" fill="#091427" stroke="url(#paint0_linear_71_106)"/>
<g filter="url(#filter0_b_71_106)">
<rect x="21" y="47" width="121" height="66" rx="10.8197" fill="#0A1629" fill-opacity="0.8"/>
<rect x="21.541" y="47.541" width="119.918" height="64.918" rx="10.2787" stroke="url(#paint1_linear_71_106)" stroke-width="1.08197"/>
</g>
<g filter="url(#filter1_b_71_106)">
<rect x="149" y="47" width="121" height="66" rx="10.8197" fill="#0A1629" fill-opacity="0.8"/>
<rect x="149.541" y="47.541" width="119.918" height="64.918" rx="10.2787" stroke="url(#paint2_linear_71_106)" stroke-width="1.08197"/>
</g>
<g filter="url(#filter2_b_71_106)">
<rect x="277" y="47" width="121" height="66" rx="10.8197" fill="#0A1629" fill-opacity="0.8"/>
<rect x="277.541" y="47.541" width="119.918" height="64.918" rx="10.2787" stroke="url(#paint3_linear_71_106)" stroke-width="1.08197"/>
</g>
<rect x="31" y="75" width="35" height="7" rx="3.5" fill="#202F46"/>
<rect x="31" y="58" width="14" height="7" rx="3.5" fill="#195AB4"/>
<path d="M34.8271 103.182V91.3636H35.5842V103.182H34.8271ZM37.1953 95.0291C37.1461 94.5921 36.9429 94.2536 36.5859 94.0135C36.2289 93.7704 35.7796 93.6488 35.2379 93.6488C34.8501 93.6488 34.5147 93.7103 34.2315 93.8335C33.9484 93.9535 33.7283 94.1197 33.5714 94.332C33.4175 94.5413 33.3406 94.7798 33.3406 95.0476C33.3406 95.2723 33.3929 95.4661 33.4975 95.6293C33.6052 95.7924 33.7453 95.9293 33.9176 96.0401C34.093 96.1478 34.2808 96.2386 34.4808 96.3125C34.6809 96.3833 34.8732 96.4418 35.0579 96.4879L35.9812 96.728C36.2828 96.8018 36.5921 96.9019 36.9091 97.0281C37.2261 97.1542 37.52 97.3204 37.7908 97.5266C38.0617 97.7328 38.2802 97.9883 38.4464 98.293C38.6156 98.5977 38.7003 98.9624 38.7003 99.3871C38.7003 99.9226 38.5618 100.398 38.2848 100.814C38.0109 101.229 37.6123 101.557 37.0891 101.797C36.569 102.037 35.9396 102.157 35.201 102.157C34.4931 102.157 33.8807 102.045 33.3636 101.82C32.8466 101.595 32.4419 101.277 32.1495 100.864C31.8571 100.449 31.6955 99.9564 31.6648 99.3871H33.0959C33.1236 99.7287 33.2344 100.013 33.4283 100.241C33.6252 100.466 33.8761 100.634 34.1808 100.744C34.4885 100.852 34.8255 100.906 35.1918 100.906C35.5949 100.906 35.9535 100.843 36.2674 100.717C36.5844 100.587 36.8337 100.409 37.0153 100.181C37.1969 99.9503 37.2876 99.681 37.2876 99.3732C37.2876 99.0932 37.2076 98.8639 37.0476 98.6854C36.8906 98.5069 36.6767 98.3591 36.4059 98.2422C36.1381 98.1252 35.835 98.0221 35.4964 97.9329L34.3793 97.6282C33.6222 97.422 33.022 97.1188 32.5788 96.7188C32.1387 96.3187 31.9187 95.7893 31.9187 95.1307C31.9187 94.5859 32.0664 94.1104 32.3619 93.7042C32.6573 93.2979 33.0574 92.9825 33.5621 92.7578C34.0669 92.5301 34.6362 92.4162 35.2702 92.4162C35.9104 92.4162 36.4751 92.5285 36.9645 92.7532C37.4569 92.9779 37.8447 93.2872 38.1278 93.6811C38.411 94.072 38.5587 94.5213 38.571 95.0291H37.1953ZM46.8599 92.4162C47.2815 92.4193 47.697 92.4962 48.1064 92.647C48.5157 92.7978 48.885 93.044 49.2143 93.3857C49.5467 93.7273 49.8114 94.1889 50.0083 94.7706C50.2084 95.3492 50.31 96.0694 50.313 96.9311C50.313 97.759 50.2299 98.4961 50.0637 99.1424C49.8975 99.7856 49.659 100.329 49.3482 100.772C49.0404 101.215 48.6665 101.552 48.2264 101.783C47.7863 102.014 47.2908 102.129 46.7399 102.129C46.1767 102.129 45.6766 102.018 45.2395 101.797C44.8025 101.575 44.447 101.269 44.1731 100.878C43.8992 100.484 43.7284 100.032 43.6607 99.521H45.0687C45.161 99.9272 45.3488 100.257 45.6319 100.509C45.9181 100.758 46.2875 100.883 46.7399 100.883C47.4324 100.883 47.9725 100.581 48.3603 99.978C48.748 99.3717 48.9435 98.5253 48.9466 97.4389H48.8727C48.7127 97.7036 48.5126 97.9313 48.2725 98.1222C48.0356 98.313 47.7694 98.4607 47.4739 98.5653C47.1784 98.67 46.863 98.7223 46.5275 98.7223C45.9828 98.7223 45.4873 98.5884 45.041 98.3207C44.5948 98.0529 44.2393 97.6851 43.9746 97.2173C43.7099 96.7495 43.5776 96.2156 43.5776 95.6154C43.5776 95.0183 43.713 94.4767 43.9838 93.9904C44.2578 93.5041 44.6394 93.1194 45.1287 92.8363C45.6212 92.5501 46.1982 92.41 46.8599 92.4162ZM46.8645 93.6165C46.5044 93.6165 46.1797 93.7057 45.8904 93.8842C45.6042 94.0597 45.378 94.2982 45.2118 94.5998C45.0456 94.8983 44.9625 95.2307 44.9625 95.5969C44.9625 95.9632 45.0426 96.2956 45.2026 96.5941C45.3657 96.8896 45.5873 97.125 45.8674 97.3004C46.1505 97.4728 46.4737 97.5589 46.8368 97.5589C47.1077 97.5589 47.36 97.5066 47.5939 97.402C47.8278 97.2973 48.0325 97.1527 48.2079 96.968C48.3833 96.7803 48.5203 96.5679 48.6188 96.331C48.7173 96.094 48.7665 95.8447 48.7665 95.5831C48.7665 95.2353 48.6834 94.9122 48.5172 94.6136C48.3541 94.3151 48.1294 94.075 47.8432 93.8935C47.557 93.7088 47.2308 93.6165 46.8645 93.6165ZM55.2815 102.129C54.8599 102.123 54.4444 102.046 54.0351 101.898C53.6288 101.751 53.2595 101.504 52.9271 101.16C52.5947 100.815 52.3285 100.352 52.1285 99.7702C51.9315 99.1886 51.833 98.4622 51.833 97.5913C51.833 96.7665 51.9146 96.034 52.0777 95.3938C52.2439 94.7537 52.4824 94.2135 52.7932 93.7734C53.1041 93.3303 53.4796 92.9933 53.9197 92.7624C54.3598 92.5316 54.8537 92.4162 55.4015 92.4162C55.9648 92.4162 56.4649 92.527 56.9019 92.7486C57.3389 92.9702 57.6929 93.2764 57.9637 93.6673C58.2376 94.0581 58.4115 94.5028 58.4854 95.0014H57.0773C56.9819 94.6075 56.7926 94.2859 56.5095 94.0366C56.2264 93.7873 55.857 93.6626 55.4015 93.6626C54.7091 93.6626 54.1689 93.9643 53.7812 94.5675C53.3965 95.1707 53.2026 96.0094 53.1995 97.0835H53.2687C53.4318 96.8157 53.6319 96.5879 53.8689 96.4002C54.1089 96.2094 54.3767 96.0632 54.6721 95.9616C54.9707 95.857 55.2846 95.8047 55.6139 95.8047C56.1617 95.8047 56.6572 95.9386 57.1004 96.2063C57.5467 96.471 57.9021 96.8372 58.1668 97.305C58.4315 97.7728 58.5638 98.3084 58.5638 98.9116C58.5638 99.5148 58.4269 100.061 58.153 100.55C57.8821 101.04 57.5005 101.428 57.0081 101.714C56.5157 101.997 55.9401 102.135 55.2815 102.129ZM55.2769 100.929C55.6401 100.929 55.9648 100.84 56.251 100.661C56.5372 100.483 56.7634 100.243 56.9296 99.9411C57.0958 99.6394 57.1789 99.3024 57.1789 98.93C57.1789 98.5669 57.0973 98.236 56.9342 97.9375C56.7742 97.639 56.5526 97.402 56.2694 97.2266C55.9894 97.0511 55.6693 96.9634 55.3092 96.9634C55.0353 96.9634 54.7814 97.0157 54.5475 97.1204C54.3167 97.225 54.1135 97.3697 53.9381 97.5543C53.7627 97.739 53.6242 97.9513 53.5226 98.1914C53.4242 98.4284 53.3749 98.6792 53.3749 98.9439C53.3749 99.2978 53.4565 99.6256 53.6196 99.9272C53.7858 100.229 54.012 100.472 54.2982 100.657C54.5875 100.838 54.9137 100.929 55.2769 100.929ZM61.628 100.707L61.5588 101.211C61.5126 101.58 61.4341 101.965 61.3233 102.365C61.2156 102.768 61.1033 103.142 60.9863 103.487C60.8725 103.831 60.7786 104.105 60.7047 104.308H59.726C59.766 104.117 59.8214 103.859 59.8922 103.533C59.963 103.21 60.0323 102.848 60.1 102.448C60.1677 102.048 60.2185 101.64 60.2523 101.224L60.2985 100.707H61.628ZM63.5589 102V100.966L66.7581 97.6513C67.0997 97.2912 67.3813 96.9757 67.6029 96.7049C67.8276 96.431 67.9953 96.1709 68.1061 95.9247C68.2169 95.6785 68.2723 95.4169 68.2723 95.1399C68.2723 94.826 68.1984 94.5552 68.0507 94.3274C67.903 94.0966 67.7014 93.9196 67.4459 93.7965C67.1905 93.6703 66.9027 93.6072 66.5827 93.6072C66.2441 93.6072 65.9487 93.6765 65.6963 93.815C65.4439 93.9535 65.25 94.1489 65.1146 94.4013C64.9792 94.6536 64.9115 94.9491 64.9115 95.2876H63.5496C63.5496 94.7121 63.682 94.2089 63.9466 93.7781C64.2113 93.3472 64.5745 93.0133 65.0361 92.7763C65.4978 92.5362 66.0225 92.4162 66.6104 92.4162C67.2043 92.4162 67.7275 92.5347 68.18 92.7717C68.6354 93.0056 68.9909 93.3256 69.2464 93.7319C69.5018 94.1351 69.6295 94.5906 69.6295 95.0984C69.6295 95.4492 69.5634 95.7924 69.431 96.1278C69.3018 96.4633 69.0756 96.8372 68.7524 97.2496C68.4292 97.659 67.9799 98.156 67.4044 98.7408L65.5255 100.707V100.777H69.7819V102H63.5589ZM74.7261 102.129C74.0644 102.129 73.4797 102.015 72.9719 101.788C72.4671 101.56 72.0716 101.246 71.7854 100.846C71.4992 100.446 71.3576 99.9903 71.3607 99.4794C71.3576 99.0793 71.4392 98.7115 71.6054 98.3761C71.7747 98.0375 72.0039 97.7559 72.2932 97.5312C72.5825 97.3035 72.9057 97.1589 73.2627 97.0973V97.0419C72.7918 96.928 72.4148 96.6757 72.1317 96.2848C71.8485 95.8939 71.7085 95.4446 71.7116 94.9368C71.7085 94.4536 71.8362 94.0227 72.0947 93.6442C72.3563 93.2625 72.7149 92.9625 73.1704 92.744C73.6259 92.5254 74.1444 92.4162 74.7261 92.4162C75.3016 92.4162 75.8156 92.527 76.268 92.7486C76.7235 92.9671 77.0821 93.2672 77.3437 93.6488C77.6053 94.0273 77.7376 94.4567 77.7407 94.9368C77.7376 95.4446 77.593 95.8939 77.3067 96.2848C77.0205 96.6757 76.6481 96.928 76.1895 97.0419V97.0973C76.5435 97.1589 76.862 97.3035 77.1452 97.5312C77.4314 97.7559 77.6591 98.0375 77.8284 98.3761C78.0007 98.7115 78.0885 99.0793 78.0915 99.4794C78.0885 99.9903 77.9438 100.446 77.6576 100.846C77.3714 101.246 76.9743 101.56 76.4665 101.788C75.9618 102.015 75.3817 102.129 74.7261 102.129ZM74.7261 100.961C75.117 100.961 75.4555 100.897 75.7417 100.767C76.028 100.635 76.2496 100.452 76.4065 100.218C76.5635 99.9811 76.6435 99.7041 76.6466 99.3871C76.6435 99.0578 76.5573 98.7669 76.3881 98.5146C76.2219 98.2622 75.9957 98.0637 75.7094 97.919C75.4232 97.7744 75.0954 97.7021 74.7261 97.7021C74.3537 97.7021 74.0229 97.7744 73.7336 97.919C73.4443 98.0637 73.2165 98.2622 73.0503 98.5146C72.8841 98.7669 72.8026 99.0578 72.8057 99.3871C72.8026 99.7041 72.878 99.9811 73.0319 100.218C73.1888 100.452 73.412 100.635 73.7013 100.767C73.9906 100.897 74.3322 100.961 74.7261 100.961ZM74.7261 96.5618C75.04 96.5618 75.3186 96.4987 75.5617 96.3725C75.8048 96.2463 75.9957 96.0709 76.1341 95.8462C76.2757 95.6216 76.348 95.3584 76.3511 95.0568C76.348 94.7614 76.2773 94.5028 76.1388 94.2812C76.0033 94.0597 75.8141 93.8888 75.5709 93.7688C75.3278 93.6457 75.0462 93.5842 74.7261 93.5842C74.3999 93.5842 74.1137 93.6457 73.8675 93.7688C73.6243 93.8888 73.435 94.0597 73.2996 94.2812C73.1642 94.5028 73.098 94.7614 73.1011 95.0568C73.098 95.3584 73.1657 95.6216 73.3042 95.8462C73.4427 96.0709 73.6336 96.2463 73.8767 96.3725C74.1229 96.4987 74.406 96.5618 74.7261 96.5618ZM83.0369 102.157C82.3075 102.154 81.6843 101.962 81.1673 101.58C80.6502 101.198 80.2547 100.643 79.9808 99.9134C79.7069 99.1839 79.57 98.3053 79.57 97.2773C79.57 96.2525 79.7069 95.3769 79.9808 94.6506C80.2578 93.9242 80.6548 93.3703 81.1719 92.9886C81.692 92.607 82.3137 92.4162 83.0369 92.4162C83.7602 92.4162 84.3803 92.6085 84.8974 92.9933C85.4144 93.3749 85.8099 93.9289 86.0838 94.6552C86.3608 95.3784 86.4993 96.2525 86.4993 97.2773C86.4993 98.3084 86.3623 99.1886 86.0884 99.918C85.8145 100.644 85.419 101.2 84.902 101.585C84.3849 101.966 83.7633 102.157 83.0369 102.157ZM83.0369 100.924C83.6771 100.924 84.1772 100.612 84.5373 99.9872C84.9004 99.3625 85.082 98.4592 85.082 97.2773C85.082 96.4925 84.9989 95.8293 84.8327 95.2876C84.6696 94.7429 84.4342 94.3305 84.1264 94.0504C83.8217 93.7673 83.4586 93.6257 83.0369 93.6257C82.3999 93.6257 81.8997 93.9396 81.5366 94.5675C81.1734 95.1953 80.9903 96.0986 80.9872 97.2773C80.9872 98.0652 81.0688 98.7315 81.2319 99.2763C81.3981 99.8179 81.6335 100.229 81.9382 100.509C82.2429 100.786 82.6091 100.924 83.0369 100.924ZM88.7221 102.088C88.4698 102.088 88.2528 101.998 88.0712 101.82C87.8896 101.638 87.7988 101.42 87.7988 101.164C87.7988 100.912 87.8896 100.697 88.0712 100.518C88.2528 100.337 88.4698 100.246 88.7221 100.246C88.9745 100.246 89.1915 100.337 89.373 100.518C89.5546 100.697 89.6454 100.912 89.6454 101.164C89.6454 101.334 89.6023 101.489 89.5162 101.631C89.4331 101.769 89.3223 101.88 89.1838 101.963C89.0453 102.046 88.8914 102.088 88.7221 102.088ZM94.4246 102.157C93.6952 102.154 93.072 101.962 92.555 101.58C92.0379 101.198 91.6424 100.643 91.3685 99.9134C91.0946 99.1839 90.9577 98.3053 90.9577 97.2773C90.9577 96.2525 91.0946 95.3769 91.3685 94.6506C91.6455 93.9242 92.0425 93.3703 92.5596 92.9886C93.0797 92.607 93.7014 92.4162 94.4246 92.4162C95.1479 92.4162 95.768 92.6085 96.2851 92.9933C96.8021 93.3749 97.1976 93.9289 97.4715 94.6552C97.7485 95.3784 97.887 96.2525 97.887 97.2773C97.887 98.3084 97.75 99.1886 97.4761 99.918C97.2022 100.644 96.8067 101.2 96.2897 101.585C95.7726 101.966 95.151 102.157 94.4246 102.157ZM94.4246 100.924C95.0648 100.924 95.5649 100.612 95.925 99.9872C96.2881 99.3625 96.4697 98.4592 96.4697 97.2773C96.4697 96.4925 96.3866 95.8293 96.2204 95.2876C96.0573 94.7429 95.8219 94.3305 95.5141 94.0504C95.2094 93.7673 94.8463 93.6257 94.4246 93.6257C93.7876 93.6257 93.2874 93.9396 92.9243 94.5675C92.5611 95.1953 92.378 96.0986 92.3749 97.2773C92.3749 98.0652 92.4565 98.7315 92.6196 99.2763C92.7858 99.8179 93.0212 100.229 93.3259 100.509C93.6306 100.786 93.9968 100.924 94.4246 100.924ZM102.816 102.157C102.087 102.154 101.464 101.962 100.947 101.58C100.43 101.198 100.034 100.643 99.7601 99.9134C99.4862 99.1839 99.3493 98.3053 99.3493 97.2773C99.3493 96.2525 99.4862 95.3769 99.7601 94.6506C100.037 93.9242 100.434 93.3703 100.951 92.9886C101.471 92.607 102.093 92.4162 102.816 92.4162C103.539 92.4162 104.16 92.6085 104.677 92.9933C105.194 93.3749 105.589 93.9289 105.863 94.6552C106.14 95.3784 106.279 96.2525 106.279 97.2773C106.279 98.3084 106.142 99.1886 105.868 99.918C105.594 100.644 105.198 101.2 104.681 101.585C104.164 101.966 103.543 102.157 102.816 102.157ZM102.816 100.924C103.456 100.924 103.956 100.612 104.317 99.9872C104.68 99.3625 104.861 98.4592 104.861 97.2773C104.861 96.4925 104.778 95.8293 104.612 95.2876C104.449 94.7429 104.213 94.3305 103.906 94.0504C103.601 93.7673 103.238 93.6257 102.816 93.6257C102.179 93.6257 101.679 93.9396 101.316 94.5675C100.953 95.1953 100.77 96.0986 100.767 97.2773C100.767 98.0652 100.848 98.7315 101.011 99.2763C101.177 99.8179 101.413 100.229 101.718 100.509C102.022 100.786 102.388 100.924 102.816 100.924Z" fill="white"/>
<rect x="160" y="75" width="35" height="7" rx="3.5" fill="#202F46"/>
<rect x="160" y="58" width="14" height="7" rx="3.5" fill="#8BA5D1"/>
<path d="M163.827 103.182V91.3636H164.584V103.182H163.827ZM166.195 95.0291C166.146 94.5921 165.943 94.2536 165.586 94.0135C165.229 93.7704 164.78 93.6488 164.238 93.6488C163.85 93.6488 163.515 93.7103 163.232 93.8335C162.948 93.9535 162.728 94.1197 162.571 94.332C162.417 94.5413 162.341 94.7798 162.341 95.0476C162.341 95.2723 162.393 95.4661 162.498 95.6293C162.605 95.7924 162.745 95.9293 162.918 96.0401C163.093 96.1478 163.281 96.2386 163.481 96.3125C163.681 96.3833 163.873 96.4418 164.058 96.4879L164.981 96.728C165.283 96.8018 165.592 96.9019 165.909 97.0281C166.226 97.1542 166.52 97.3204 166.791 97.5266C167.062 97.7328 167.28 97.9883 167.446 98.293C167.616 98.5977 167.7 98.9624 167.7 99.3871C167.7 99.9226 167.562 100.398 167.285 100.814C167.011 101.229 166.612 101.557 166.089 101.797C165.569 102.037 164.94 102.157 164.201 102.157C163.493 102.157 162.881 102.045 162.364 101.82C161.847 101.595 161.442 101.277 161.15 100.864C160.857 100.449 160.696 99.9564 160.665 99.3871H162.096C162.124 99.7287 162.234 100.013 162.428 100.241C162.625 100.466 162.876 100.634 163.181 100.744C163.489 100.852 163.826 100.906 164.192 100.906C164.595 100.906 164.953 100.843 165.267 100.717C165.584 100.587 165.834 100.409 166.015 100.181C166.197 99.9503 166.288 99.681 166.288 99.3732C166.288 99.0932 166.208 98.8639 166.048 98.6854C165.891 98.5069 165.677 98.3591 165.406 98.2422C165.138 98.1252 164.835 98.0221 164.496 97.9329L163.379 97.6282C162.622 97.422 162.022 97.1188 161.579 96.7188C161.139 96.3187 160.919 95.7893 160.919 95.1307C160.919 94.5859 161.066 94.1104 161.362 93.7042C161.657 93.2979 162.057 92.9825 162.562 92.7578C163.067 92.5301 163.636 92.4162 164.27 92.4162C164.91 92.4162 165.475 92.5285 165.964 92.7532C166.457 92.9779 166.845 93.2872 167.128 93.6811C167.411 94.072 167.559 94.5213 167.571 95.0291H166.195ZM176.008 102.129C175.374 102.129 174.807 102.02 174.309 101.801C173.813 101.583 173.421 101.28 173.132 100.892C172.845 100.501 172.691 100.049 172.67 99.5348H174.119C174.138 99.8149 174.232 100.058 174.401 100.264C174.573 100.467 174.798 100.624 175.075 100.735C175.352 100.846 175.66 100.901 175.998 100.901C176.371 100.901 176.7 100.837 176.986 100.707C177.276 100.578 177.502 100.398 177.665 100.167C177.828 99.9334 177.91 99.6641 177.91 99.3594C177.91 99.0424 177.828 98.7638 177.665 98.5238C177.505 98.2807 177.269 98.0898 176.959 97.9513C176.651 97.8129 176.278 97.7436 175.841 97.7436H175.043V96.5803H175.841C176.192 96.5803 176.5 96.5172 176.765 96.391C177.032 96.2648 177.242 96.0894 177.393 95.8647C177.543 95.637 177.619 95.3707 177.619 95.0661C177.619 94.7737 177.553 94.5198 177.42 94.3043C177.291 94.0858 177.106 93.915 176.866 93.7919C176.629 93.6688 176.349 93.6072 176.026 93.6072C175.718 93.6072 175.431 93.6642 175.163 93.7781C174.898 93.8888 174.683 94.0489 174.517 94.2582C174.35 94.4644 174.261 94.7121 174.249 95.0014H172.868C172.884 94.4905 173.035 94.0412 173.321 93.6534C173.61 93.2656 173.992 92.9625 174.466 92.744C174.94 92.5254 175.466 92.4162 176.045 92.4162C176.651 92.4162 177.174 92.5347 177.614 92.7717C178.057 93.0056 178.399 93.3179 178.639 93.7088C178.882 94.0997 179.002 94.5275 178.999 94.9922C179.002 95.5215 178.854 95.9709 178.556 96.3402C178.26 96.7095 177.867 96.9573 177.374 97.0835V97.1573C178.002 97.2527 178.488 97.502 178.833 97.9052C179.181 98.3084 179.353 98.8085 179.35 99.4055C179.353 99.9257 179.208 100.392 178.916 100.804C178.627 101.217 178.231 101.541 177.73 101.778C177.228 102.012 176.654 102.129 176.008 102.129ZM181.095 102V100.966L184.294 97.6513C184.636 97.2912 184.917 96.9757 185.139 96.7049C185.364 96.431 185.531 96.1709 185.642 95.9247C185.753 95.6785 185.808 95.4169 185.808 95.1399C185.808 94.826 185.735 94.5552 185.587 94.3274C185.439 94.0966 185.238 93.9196 184.982 93.7965C184.727 93.6703 184.439 93.6072 184.119 93.6072C183.78 93.6072 183.485 93.6765 183.232 93.815C182.98 93.9535 182.786 94.1489 182.651 94.4013C182.515 94.6536 182.448 94.9491 182.448 95.2876H181.086C181.086 94.7121 181.218 94.2089 181.483 93.7781C181.747 93.3472 182.111 93.0133 182.572 92.7763C183.034 92.5362 183.559 92.4162 184.146 92.4162C184.74 92.4162 185.264 92.5347 185.716 92.7717C186.172 93.0056 186.527 93.3256 186.782 93.7319C187.038 94.1351 187.166 94.5906 187.166 95.0984C187.166 95.4492 187.099 95.7924 186.967 96.1278C186.838 96.4633 186.612 96.8372 186.289 97.2496C185.965 97.659 185.516 98.156 184.941 98.7408L183.062 100.707V100.777H187.318V102H181.095ZM190.882 100.707L190.813 101.211C190.767 101.58 190.688 101.965 190.577 102.365C190.47 102.768 190.357 103.142 190.24 103.487C190.126 103.831 190.032 104.105 189.959 104.308H188.98C189.02 104.117 189.075 103.859 189.146 103.533C189.217 103.21 189.286 102.848 189.354 102.448C189.422 102.048 189.472 101.64 189.506 101.224L189.552 100.707H190.882ZM195.257 92.5455V102H193.826V93.9766H193.771L191.509 95.4538V94.0874L193.868 92.5455H195.257ZM200.935 102.129C200.357 102.129 199.837 102.018 199.375 101.797C198.917 101.572 198.55 101.264 198.276 100.874C198.002 100.483 197.856 100.036 197.838 99.5348H199.223C199.257 99.9411 199.437 100.275 199.763 100.537C200.089 100.798 200.48 100.929 200.935 100.929C201.299 100.929 201.62 100.846 201.9 100.68C202.183 100.51 202.405 100.278 202.565 99.9826C202.728 99.6871 202.81 99.3501 202.81 98.9716C202.81 98.5869 202.727 98.2437 202.56 97.9421C202.394 97.6405 202.165 97.4035 201.873 97.2312C201.583 97.0588 201.251 96.9711 200.875 96.968C200.589 96.968 200.301 97.0173 200.012 97.1158C199.723 97.2143 199.489 97.3435 199.31 97.5036L198.004 97.3097L198.535 92.5455H203.733V93.7688H199.721L199.421 96.4141H199.477C199.661 96.2356 199.906 96.0863 200.211 95.9663C200.518 95.8462 200.848 95.7862 201.199 95.7862C201.774 95.7862 202.287 95.9232 202.736 96.1971C203.188 96.471 203.544 96.8449 203.802 97.3189C204.064 97.7898 204.193 98.3314 204.19 98.9439C204.193 99.5563 204.055 100.103 203.775 100.583C203.498 101.063 203.113 101.441 202.62 101.718C202.131 101.992 201.569 102.129 200.935 102.129ZM209.168 102.157C208.438 102.154 207.815 101.962 207.298 101.58C206.781 101.198 206.386 100.643 206.112 99.9134C205.838 99.1839 205.701 98.3053 205.701 97.2773C205.701 96.2525 205.838 95.3769 206.112 94.6506C206.389 93.9242 206.786 93.3703 207.303 92.9886C207.823 92.607 208.445 92.4162 209.168 92.4162C209.891 92.4162 210.511 92.6085 211.028 92.9933C211.545 93.3749 211.941 93.9289 212.215 94.6552C212.492 95.3784 212.63 96.2525 212.63 97.2773C212.63 98.3084 212.493 99.1886 212.219 99.918C211.945 100.644 211.55 101.2 211.033 101.585C210.516 101.966 209.894 102.157 209.168 102.157ZM209.168 100.924C209.808 100.924 210.308 100.612 210.668 99.9872C211.031 99.3625 211.213 98.4592 211.213 97.2773C211.213 96.4925 211.13 95.8293 210.964 95.2876C210.8 94.7429 210.565 94.3305 210.257 94.0504C209.953 93.7673 209.589 93.6257 209.168 93.6257C208.531 93.6257 208.031 93.9396 207.667 94.5675C207.304 95.1953 207.121 96.0986 207.118 97.2773C207.118 98.0652 207.2 98.7315 207.363 99.2763C207.529 99.8179 207.764 100.229 208.069 100.509C208.374 100.786 208.74 100.924 209.168 100.924ZM214.853 102.088C214.601 102.088 214.384 101.998 214.202 101.82C214.02 101.638 213.93 101.42 213.93 101.164C213.93 100.912 214.02 100.697 214.202 100.518C214.384 100.337 214.601 100.246 214.853 100.246C215.105 100.246 215.322 100.337 215.504 100.518C215.685 100.697 215.776 100.912 215.776 101.164C215.776 101.334 215.733 101.489 215.647 101.631C215.564 101.769 215.453 101.88 215.315 101.963C215.176 102.046 215.022 102.088 214.853 102.088ZM220.555 102.157C219.826 102.154 219.203 101.962 218.686 101.58C218.169 101.198 217.773 100.643 217.499 99.9134C217.225 99.1839 217.089 98.3053 217.089 97.2773C217.089 96.2525 217.225 95.3769 217.499 94.6506C217.776 93.9242 218.173 93.3703 218.69 92.9886C219.211 92.607 219.832 92.4162 220.555 92.4162C221.279 92.4162 221.899 92.6085 222.416 92.9933C222.933 93.3749 223.328 93.9289 223.602 94.6552C223.879 95.3784 224.018 96.2525 224.018 97.2773C224.018 98.3084 223.881 99.1886 223.607 99.918C223.333 100.644 222.938 101.2 222.421 101.585C221.903 101.966 221.282 102.157 220.555 102.157ZM220.555 100.924C221.196 100.924 221.696 100.612 222.056 99.9872C222.419 99.3625 222.601 98.4592 222.601 97.2773C222.601 96.4925 222.517 95.8293 222.351 95.2876C222.188 94.7429 221.953 94.3305 221.645 94.0504C221.34 93.7673 220.977 93.6257 220.555 93.6257C219.918 93.6257 219.418 93.9396 219.055 94.5675C218.692 95.1953 218.509 96.0986 218.506 97.2773C218.506 98.0652 218.587 98.7315 218.75 99.2763C218.917 99.8179 219.152 100.229 219.457 100.509C219.761 100.786 220.128 100.924 220.555 100.924ZM228.947 102.157C228.218 102.154 227.594 101.962 227.077 101.58C226.56 101.198 226.165 100.643 225.891 99.9134C225.617 99.1839 225.48 98.3053 225.48 97.2773C225.48 96.2525 225.617 95.3769 225.891 94.6506C226.168 93.9242 226.565 93.3703 227.082 92.9886C227.602 92.607 228.224 92.4162 228.947 92.4162C229.67 92.4162 230.29 92.6085 230.808 92.9933C231.325 93.3749 231.72 93.9289 231.994 94.6552C232.271 95.3784 232.409 96.2525 232.409 97.2773C232.409 98.3084 232.272 99.1886 231.999 99.918C231.725 100.644 231.329 101.2 230.812 101.585C230.295 101.966 229.673 102.157 228.947 102.157ZM228.947 100.924C229.587 100.924 230.087 100.612 230.447 99.9872C230.811 99.3625 230.992 98.4592 230.992 97.2773C230.992 96.4925 230.909 95.8293 230.743 95.2876C230.58 94.7429 230.344 94.3305 230.037 94.0504C229.732 93.7673 229.369 93.6257 228.947 93.6257C228.31 93.6257 227.81 93.9396 227.447 94.5675C227.084 95.1953 226.9 96.0986 226.897 97.2773C226.897 98.0652 226.979 98.7315 227.142 99.2763C227.308 99.8179 227.544 100.229 227.848 100.509C228.153 100.786 228.519 100.924 228.947 100.924Z" fill="white"/>
<rect x="288" y="75" width="35" height="7" rx="3.5" fill="#202F46"/>
<rect x="288" y="58" width="14" height="7" rx="3.5" fill="#323944"/>
<path d="M291.827 103.182V91.3636H292.584V103.182H291.827ZM294.195 95.0291C294.146 94.5921 293.943 94.2536 293.586 94.0135C293.229 93.7704 292.78 93.6488 292.238 93.6488C291.85 93.6488 291.515 93.7103 291.232 93.8335C290.948 93.9535 290.728 94.1197 290.571 94.332C290.417 94.5413 290.341 94.7798 290.341 95.0476C290.341 95.2723 290.393 95.4661 290.498 95.6293C290.605 95.7924 290.745 95.9293 290.918 96.0401C291.093 96.1478 291.281 96.2386 291.481 96.3125C291.681 96.3833 291.873 96.4418 292.058 96.4879L292.981 96.728C293.283 96.8018 293.592 96.9019 293.909 97.0281C294.226 97.1542 294.52 97.3204 294.791 97.5266C295.062 97.7328 295.28 97.9883 295.446 98.293C295.616 98.5977 295.7 98.9624 295.7 99.3871C295.7 99.9226 295.562 100.398 295.285 100.814C295.011 101.229 294.612 101.557 294.089 101.797C293.569 102.037 292.94 102.157 292.201 102.157C291.493 102.157 290.881 102.045 290.364 101.82C289.847 101.595 289.442 101.277 289.15 100.864C288.857 100.449 288.696 99.9564 288.665 99.3871H290.096C290.124 99.7287 290.234 100.013 290.428 100.241C290.625 100.466 290.876 100.634 291.181 100.744C291.489 100.852 291.826 100.906 292.192 100.906C292.595 100.906 292.953 100.843 293.267 100.717C293.584 100.587 293.834 100.409 294.015 100.181C294.197 99.9503 294.288 99.681 294.288 99.3732C294.288 99.0932 294.208 98.8639 294.048 98.6854C293.891 98.5069 293.677 98.3591 293.406 98.2422C293.138 98.1252 292.835 98.0221 292.496 97.9329L291.379 97.6282C290.622 97.422 290.022 97.1188 289.579 96.7188C289.139 96.3187 288.919 95.7893 288.919 95.1307C288.919 94.5859 289.066 94.1104 289.362 93.7042C289.657 93.2979 290.057 92.9825 290.562 92.7578C291.067 92.5301 291.636 92.4162 292.27 92.4162C292.91 92.4162 293.475 92.5285 293.964 92.7532C294.457 92.9779 294.845 93.2872 295.128 93.6811C295.411 94.072 295.559 94.5213 295.571 95.0291H294.195ZM303.911 102.129C303.249 102.129 302.664 102.015 302.156 101.788C301.652 101.56 301.256 101.246 300.97 100.846C300.684 100.446 300.542 99.9903 300.545 99.4794C300.542 99.0793 300.624 98.7115 300.79 98.3761C300.959 98.0375 301.189 97.7559 301.478 97.5312C301.767 97.3035 302.09 97.1589 302.447 97.0973V97.0419C301.976 96.928 301.599 96.6757 301.316 96.2848C301.033 95.8939 300.893 95.4446 300.896 94.9368C300.893 94.4536 301.021 94.0227 301.279 93.6442C301.541 93.2625 301.899 92.9625 302.355 92.744C302.81 92.5254 303.329 92.4162 303.911 92.4162C304.486 92.4162 305 92.527 305.453 92.7486C305.908 92.9671 306.267 93.2672 306.528 93.6488C306.79 94.0273 306.922 94.4567 306.925 94.9368C306.922 95.4446 306.778 95.8939 306.491 96.2848C306.205 96.6757 305.833 96.928 305.374 97.0419V97.0973C305.728 97.1589 306.047 97.3035 306.33 97.5312C306.616 97.7559 306.844 98.0375 307.013 98.3761C307.185 98.7115 307.273 99.0793 307.276 99.4794C307.273 99.9903 307.128 100.446 306.842 100.846C306.556 101.246 306.159 101.56 305.651 101.788C305.146 102.015 304.566 102.129 303.911 102.129ZM303.911 100.961C304.302 100.961 304.64 100.897 304.926 100.767C305.213 100.635 305.434 100.452 305.591 100.218C305.748 99.9811 305.828 99.7041 305.831 99.3871C305.828 99.0578 305.742 98.7669 305.573 98.5146C305.406 98.2622 305.18 98.0637 304.894 97.919C304.608 97.7744 304.28 97.7021 303.911 97.7021C303.538 97.7021 303.207 97.7744 302.918 97.919C302.629 98.0637 302.401 98.2622 302.235 98.5146C302.069 98.7669 301.987 99.0578 301.99 99.3871C301.987 99.7041 302.063 99.9811 302.216 100.218C302.373 100.452 302.597 100.635 302.886 100.767C303.175 100.897 303.517 100.961 303.911 100.961ZM303.911 96.5618C304.225 96.5618 304.503 96.4987 304.746 96.3725C304.989 96.2463 305.18 96.0709 305.319 95.8462C305.46 95.6216 305.533 95.3584 305.536 95.0568C305.533 94.7614 305.462 94.5028 305.323 94.2812C305.188 94.0597 304.999 93.8888 304.756 93.7688C304.512 93.6457 304.231 93.5842 303.911 93.5842C303.584 93.5842 303.298 93.6457 303.052 93.7688C302.809 93.8888 302.62 94.0597 302.484 94.2812C302.349 94.5028 302.283 94.7614 302.286 95.0568C302.283 95.3584 302.35 95.6216 302.489 95.8462C302.627 96.0709 302.818 96.2463 303.061 96.3725C303.307 96.4987 303.591 96.5618 303.911 96.5618ZM310.465 100.707L310.396 101.211C310.35 101.58 310.271 101.965 310.16 102.365C310.053 102.768 309.94 103.142 309.823 103.487C309.709 103.831 309.616 104.105 309.542 104.308H308.563C308.603 104.117 308.658 103.859 308.729 103.533C308.8 103.21 308.869 102.848 308.937 102.448C309.005 102.048 309.055 101.64 309.089 101.224L309.135 100.707H310.465ZM315.354 102.129C314.932 102.123 314.517 102.046 314.107 101.898C313.701 101.751 313.332 101.504 312.999 101.16C312.667 100.815 312.401 100.352 312.201 99.7702C312.004 99.1886 311.905 98.4622 311.905 97.5913C311.905 96.7665 311.987 96.034 312.15 95.3938C312.316 94.7537 312.555 94.2135 312.866 93.7734C313.176 93.3303 313.552 92.9933 313.992 92.7624C314.432 92.5316 314.926 92.4162 315.474 92.4162C316.037 92.4162 316.537 92.527 316.974 92.7486C317.411 92.9702 317.765 93.2764 318.036 93.6673C318.31 94.0581 318.484 94.5028 318.558 95.0014H317.15C317.054 94.6075 316.865 94.2859 316.582 94.0366C316.299 93.7873 315.929 93.6626 315.474 93.6626C314.781 93.6626 314.241 93.9643 313.853 94.5675C313.469 95.1707 313.275 96.0094 313.272 97.0835H313.341C313.504 96.8157 313.704 96.5879 313.941 96.4002C314.181 96.2094 314.449 96.0632 314.744 95.9616C315.043 95.857 315.357 95.8047 315.686 95.8047C316.234 95.8047 316.729 95.9386 317.173 96.2063C317.619 96.471 317.974 96.8372 318.239 97.305C318.504 97.7728 318.636 98.3084 318.636 98.9116C318.636 99.5148 318.499 100.061 318.225 100.55C317.954 101.04 317.573 101.428 317.08 101.714C316.588 101.997 316.012 102.135 315.354 102.129ZM315.349 100.929C315.712 100.929 316.037 100.84 316.323 100.661C316.609 100.483 316.836 100.243 317.002 99.9411C317.168 99.6394 317.251 99.3024 317.251 98.93C317.251 98.5669 317.17 98.236 317.006 97.9375C316.846 97.639 316.625 97.402 316.342 97.2266C316.062 97.0511 315.742 96.9634 315.381 96.9634C315.108 96.9634 314.854 97.0157 314.62 97.1204C314.389 97.225 314.186 97.3697 314.01 97.5543C313.835 97.739 313.696 97.9513 313.595 98.1914C313.496 98.4284 313.447 98.6792 313.447 98.9439C313.447 99.2978 313.529 99.6256 313.692 99.9272C313.858 100.229 314.084 100.472 314.37 100.657C314.66 100.838 314.986 100.929 315.349 100.929ZM320.119 100.153V98.9993L324.205 92.5455H325.114V94.2443H324.537L321.615 98.87V98.9439H327.215V100.153H320.119ZM324.602 102V99.8026L324.611 99.2763V92.5455H325.964V102H324.602ZM332.115 102.157C331.386 102.154 330.762 101.962 330.245 101.58C329.728 101.198 329.333 100.643 329.059 99.9134C328.785 99.1839 328.648 98.3053 328.648 97.2773C328.648 96.2525 328.785 95.3769 329.059 94.6506C329.336 93.9242 329.733 93.3703 330.25 92.9886C330.77 92.607 331.392 92.4162 332.115 92.4162C332.838 92.4162 333.458 92.6085 333.975 92.9933C334.493 93.3749 334.888 93.9289 335.162 94.6552C335.439 95.3784 335.577 96.2525 335.577 97.2773C335.577 98.3084 335.44 99.1886 335.167 99.918C334.893 100.644 334.497 101.2 333.98 101.585C333.463 101.966 332.841 102.157 332.115 102.157ZM332.115 100.924C332.755 100.924 333.255 100.612 333.615 99.9872C333.979 99.3625 334.16 98.4592 334.16 97.2773C334.16 96.4925 334.077 95.8293 333.911 95.2876C333.748 94.7429 333.512 94.3305 333.205 94.0504C332.9 93.7673 332.537 93.6257 332.115 93.6257C331.478 93.6257 330.978 93.9396 330.615 94.5675C330.252 95.1953 330.068 96.0986 330.065 97.2773C330.065 98.0652 330.147 98.7315 330.31 99.2763C330.476 99.8179 330.712 100.229 331.016 100.509C331.321 100.786 331.687 100.924 332.115 100.924ZM337.8 102.088C337.548 102.088 337.331 101.998 337.149 101.82C336.968 101.638 336.877 101.42 336.877 101.164C336.877 100.912 336.968 100.697 337.149 100.518C337.331 100.337 337.548 100.246 337.8 100.246C338.053 100.246 338.27 100.337 338.451 100.518C338.633 100.697 338.724 100.912 338.724 101.164C338.724 101.334 338.68 101.489 338.594 101.631C338.511 101.769 338.4 101.88 338.262 101.963C338.123 102.046 337.97 102.088 337.8 102.088ZM343.503 102.157C342.773 102.154 342.15 101.962 341.633 101.58C341.116 101.198 340.721 100.643 340.447 99.9134C340.173 99.1839 340.036 98.3053 340.036 97.2773C340.036 96.2525 340.173 95.3769 340.447 94.6506C340.724 93.9242 341.121 93.3703 341.638 92.9886C342.158 92.607 342.78 92.4162 343.503 92.4162C344.226 92.4162 344.846 92.6085 345.363 92.9933C345.88 93.3749 346.276 93.9289 346.55 94.6552C346.827 95.3784 346.965 96.2525 346.965 97.2773C346.965 98.3084 346.828 99.1886 346.554 99.918C346.28 100.644 345.885 101.2 345.368 101.585C344.851 101.966 344.229 102.157 343.503 102.157ZM343.503 100.924C344.143 100.924 344.643 100.612 345.003 99.9872C345.366 99.3625 345.548 98.4592 345.548 97.2773C345.548 96.4925 345.465 95.8293 345.299 95.2876C345.135 94.7429 344.9 94.3305 344.592 94.0504C344.288 93.7673 343.924 93.6257 343.503 93.6257C342.866 93.6257 342.366 93.9396 342.002 94.5675C341.639 95.1953 341.456 96.0986 341.453 97.2773C341.453 98.0652 341.535 98.7315 341.698 99.2763C341.864 99.8179 342.099 100.229 342.404 100.509C342.709 100.786 343.075 100.924 343.503 100.924ZM351.894 102.157C351.165 102.154 350.542 101.962 350.025 101.58C349.508 101.198 349.112 100.643 348.838 99.9134C348.564 99.1839 348.427 98.3053 348.427 97.2773C348.427 96.2525 348.564 95.3769 348.838 94.6506C349.115 93.9242 349.512 93.3703 350.029 92.9886C350.549 92.607 351.171 92.4162 351.894 92.4162C352.618 92.4162 353.238 92.6085 353.755 92.9933C354.272 93.3749 354.667 93.9289 354.941 94.6552C355.218 95.3784 355.357 96.2525 355.357 97.2773C355.357 98.3084 355.22 99.1886 354.946 99.918C354.672 100.644 354.276 101.2 353.759 101.585C353.242 101.966 352.621 102.157 351.894 102.157ZM351.894 100.924C352.535 100.924 353.035 100.612 353.395 99.9872C353.758 99.3625 353.939 98.4592 353.939 97.2773C353.939 96.4925 353.856 95.8293 353.69 95.2876C353.527 94.7429 353.292 94.3305 352.984 94.0504C352.679 93.7673 352.316 93.6257 351.894 93.6257C351.257 93.6257 350.757 93.9396 350.394 94.5675C350.031 95.1953 349.848 96.0986 349.845 97.2773C349.845 98.0652 349.926 98.7315 350.089 99.2763C350.256 99.8179 350.491 100.229 350.796 100.509C351.1 100.786 351.467 100.924 351.894 100.924Z" fill="white"/>
</g>
<defs>
<filter id="filter0_b_71_106" x="-27.6885" y="-1.68853" width="218.377" height="163.377" filterUnits="userSpaceOnUse" color-interpolation-filters="sRGB">
<feFlood flood-opacity="0" result="BackgroundImageFix"/>
<feGaussianBlur in="BackgroundImageFix" stdDeviation="24.3443"/>
<feComposite in2="SourceAlpha" operator="in" result="effect1_backgroundBlur_71_106"/>
<feBlend mode="normal" in="SourceGraphic" in2="effect1_backgroundBlur_71_106" result="shape"/>
</filter>
<filter id="filter1_b_71_106" x="100.311" y="-1.68853" width="218.377" height="163.377" filterUnits="userSpaceOnUse" color-interpolation-filters="sRGB">
<feFlood flood-opacity="0" result="BackgroundImageFix"/>
<feGaussianBlur in="BackgroundImageFix" stdDeviation="24.3443"/>
<feComposite in2="SourceAlpha" operator="in" result="effect1_backgroundBlur_71_106"/>
<feBlend mode="normal" in="SourceGraphic" in2="effect1_backgroundBlur_71_106" result="shape"/>
</filter>
<filter id="filter2_b_71_106" x="228.311" y="-1.68853" width="218.377" height="163.377" filterUnits="userSpaceOnUse" color-interpolation-filters="sRGB">
<feFlood flood-opacity="0" result="BackgroundImageFix"/>
<feGaussianBlur in="BackgroundImageFix" stdDeviation="24.3443"/>
<feComposite in2="SourceAlpha" operator="in" result="effect1_backgroundBlur_71_106"/>
<feBlend mode="normal" in="SourceGraphic" in2="effect1_backgroundBlur_71_106" result="shape"/>
</filter>
<linearGradient id="paint0_linear_71_106" x1="209" y1="26" x2="209" y2="230" gradientUnits="userSpaceOnUse">
<stop stop-color="#3D4C66" stop-opacity="0.866667"/>
<stop offset="1" stop-color="#3D4C66" stop-opacity="0"/>
</linearGradient>
<linearGradient id="paint1_linear_71_106" x1="81.5" y1="47" x2="81.5" y2="113" gradientUnits="userSpaceOnUse">
<stop stop-color="#3D4C66" stop-opacity="0.866667"/>
<stop offset="1" stop-color="#3D4C66" stop-opacity="0"/>
</linearGradient>
<linearGradient id="paint2_linear_71_106" x1="209.5" y1="47" x2="209.5" y2="113" gradientUnits="userSpaceOnUse">
<stop stop-color="#3D4C66" stop-opacity="0.866667"/>
<stop offset="1" stop-color="#3D4C66" stop-opacity="0"/>
</linearGradient>
<linearGradient id="paint3_linear_71_106" x1="337.5" y1="47" x2="337.5" y2="113" gradientUnits="userSpaceOnUse">
<stop stop-color="#3D4C66" stop-opacity="0.866667"/>
<stop offset="1" stop-color="#3D4C66" stop-opacity="0"/>
</linearGradient>
<clipPath id="clip0_71_106">
<path d="M0 5C0 2.23857 2.23858 0 5 0H413C415.761 0 418 2.23858 418 5V159H0V5Z" fill="white"/>
</clipPath>
</defs>
</svg>
